<?xml version="1.0" encoding="utf-8"?>
<!-- Generator: Adobe Illustrator 21.0.2, SVG Export Plug-In . SVG Version: 6.00 Build 0)  -->
<svg version="1.1" id="Layer_1" xmlns="http://www.w3.org/2000/svg" xmlns:xlink="http://www.w3.org/1999/xlink" x="0px" y="0px"
	 width="166px" height="100px" viewBox="0 0 166 100" style="enable-background:new 0 0 166 100;" xml:space="preserve">
<style type="text/css">
	.st0{fill:#68133D;}
	.st1{fill:#8E1C51;}
</style>
<g>
	<g>
		<path class="st0" d="M81.8,74.5H36.3l-6.7,14.1c-0.9,2-1.4,3.5-1.4,4.6c0,2.2,1.6,3.6,4.9,4.5v2.3H0v-2.3c2-0.4,3.4-1.1,4.5-2.1
			c1-1,2.2-2.9,3.5-5.7L44.8,13c1.2-2.4,1.8-4.4,1.8-5.9c0-2.2-1.4-3.9-4.2-4.8V0h35.5v2.3c-2.9,0.8-4.3,2.3-4.3,4.3
			c0,1.4,0.5,3,1.4,4.8l38.1,77.1c1.6,3.3,3,5.5,4.2,6.7c1.2,1.2,2.9,2,4.9,2.4v2.3H85.2v-2.3c3.2-0.5,4.9-2.1,4.9-4.5
			c0-1-0.5-2.5-1.5-4.5L81.8,74.5z M75.5,60.8L59.3,25.2L42.8,60.8H75.5z"/>
		<path class="st1" d="M160.7,24c-4.5-9.3-11.4-15.9-20.8-19.9c-6.6-2.8-15.9-4-28.2-4H83v2c-2.1,0.8-4.1,2.3-4.1,4.3
			c0,1.4,0.6,2.7,1.5,4.5l2.6,4.6h26.9c6.6,0,12,1,16,2.3c4,1.3,7.4,3.8,10.3,7c5.1,5.7,7.6,14,7.6,24.8c0,14.8-4.7,24.9-14.2,30
			c-3.3,1.8-7.7,3.1-13.4,3.5l2.2,5.1c1.6,3.3,2.5,5.5,3.7,6.7c1.2,1.2,2.1,2,4.2,2.4v1c0,0,0.9,0,1.1-0.1c2.4-0.4,4.9-0.7,6.9-1.2
			c6-1.6,11.2-4.3,15.7-8.1c10.6-9,16-22.1,16-39.4C166,39.8,164.3,31.3,160.7,24z"/>
	</g>
</g>
</svg>
