<?xml version="1.0" encoding="utf-8"?>
<!-- Generator: Adobe Illustrator 21.0.2, SVG Export Plug-In . SVG Version: 6.00 Build 0)  -->
<svg version="1.1" id="Layer_1" xmlns="http://www.w3.org/2000/svg" xmlns:xlink="http://www.w3.org/1999/xlink" x="0px" y="0px"
	 width="110px" height="110px" viewBox="0 0 110 110" style="enable-background:new 0 0 110 110;" xml:space="preserve">
<style type="text/css">
	.st0{fill:url(#XMLID_2_);}
	.st1{fill:url(#XMLID_3_);}
</style>
<g>
	<g>
		<linearGradient id="XMLID_2_" gradientUnits="userSpaceOnUse" x1="0" y1="35.3309" x2="104.7127" y2="35.3309">
			<stop  offset="0" style="stop-color:#C53D51"/>
			<stop  offset="1" style="stop-color:#EC4D58"/>
		</linearGradient>
		<path id="XMLID_214_" class="st0" d="M92.5,50.2L92.5,50.2c-1.2-1.1-2.7-1.5-4.4-1.5c-1.8,0-3.5,0.6-4.8,1.6c0,0,0,0,0,0l-7.1-6.6
			c0,0,0.1-0.2,0.1-0.4c0-4.2-3.6-7.9-7.9-7.9c-4.2,0-7.1,3.9-7.6,7.6c-0.1,0.8,0,2.4,0,2.4L44.6,69.1c0,0,0.1,0,0.1,0
			c-0.8-0.3-1.6-0.2-2.5-0.2c-1.7,0-3.3,0.7-4.6,1.8h0l-0.1-0.2l-7.4-6.8c0,0,0-0.1,0-0.1c0.2-0.6,0.2-1.3,0.2-2
			c0-4.2-3.4-7.7-7.7-7.7c-4.2,0-7.6,3.4-7.6,7.6c0,0.2,0,0.3,0,0.5v0L1.9,69.3C0.7,64.7,0,59.9,0,55C0,24.6,24.1,0,54.5,0
			c22.8,0,42.3,13.8,50.2,33.6v0C104.7,33.6,92.5,50.2,92.5,50.2z"/>
		<linearGradient id="XMLID_3_" gradientUnits="userSpaceOnUse" x1="3.516" y1="74.7561" x2="109.9916" y2="74.7561">
			<stop  offset="0" style="stop-color:#FFA678"/>
			<stop  offset="1" style="stop-color:#FFCE90"/>
		</linearGradient>
		<path id="XMLID_185_" class="st1" d="M110,55c0,30.4-24.6,55-55,55c-0.4,0-0.8,0-1.3,0c-0.2,0-0.3,0-0.5,0c-0.3,0-0.7,0-1,0
			c0,0-0.1,0-0.1,0c-0.3,0-0.6,0-0.9-0.1c-0.3,0-0.5,0-0.8-0.1c-0.3,0-0.7-0.1-1-0.1c-0.4,0-0.8-0.1-1.2-0.1c-0.2,0-0.3,0-0.5-0.1
			c-0.3,0-0.6-0.1-0.9-0.1c-0.2,0-0.4-0.1-0.6-0.1c-0.3-0.1-0.7-0.1-1-0.2c-0.4-0.1-0.9-0.2-1.3-0.2c-0.4-0.1-0.9-0.2-1.3-0.3
			c-0.4-0.1-0.8-0.2-1.3-0.3c-0.1,0-0.1,0-0.2-0.1c-0.4-0.1-0.8-0.2-1.2-0.3c-0.4-0.1-0.9-0.2-1.3-0.4c-0.3-0.1-0.7-0.2-1-0.3
			c-0.2-0.1-0.4-0.1-0.6-0.2c-0.3-0.1-0.6-0.2-0.9-0.3c0,0,0,0-0.1,0c-0.4-0.1-0.7-0.3-1.1-0.4c-0.1,0-0.2-0.1-0.3-0.1
			c-0.3-0.1-0.6-0.2-0.8-0.3c-0.5-0.2-1-0.4-1.5-0.6c-0.4-0.2-0.7-0.3-1.1-0.5c-0.7-0.4-1.5-0.7-2.2-1.1c-0.2-0.1-0.3-0.2-0.5-0.3
			c-0.7-0.4-1.4-0.8-2.1-1.2c-0.4-0.2-0.8-0.5-1.1-0.7c-0.4-0.2-0.7-0.5-1.1-0.7c0,0,0,0,0,0c-0.3-0.2-0.7-0.5-1-0.7
			c-0.7-0.5-1.3-1-2-1.5c-0.2-0.2-0.4-0.3-0.7-0.5c-0.1-0.1-0.2-0.1-0.3-0.2c-0.2-0.2-0.4-0.3-0.6-0.5c-0.9-0.8-1.8-1.6-2.7-2.4
			c-0.3-0.3-0.5-0.5-0.8-0.8c-0.4-0.4-0.7-0.8-1.1-1.1c-0.2-0.2-0.5-0.5-0.7-0.7c-0.5-0.6-1.1-1.2-1.6-1.8c-0.2-0.2-0.4-0.5-0.6-0.7
			c0,0-0.1-0.1-0.1-0.2c-0.2-0.2-0.4-0.4-0.5-0.7c-0.2-0.3-0.4-0.5-0.6-0.8c-0.1-0.2-0.3-0.4-0.4-0.6c-0.2-0.3-0.5-0.7-0.7-1
			c-0.3-0.4-0.6-0.8-0.9-1.3c-0.2-0.3-0.3-0.5-0.5-0.8c-0.3-0.4-0.5-0.8-0.8-1.3c-0.3-0.5-0.6-1-0.9-1.6c-0.2-0.3-0.3-0.6-0.5-0.9
			c0,0,0,0,0,0c-0.1-0.3-0.3-0.6-0.4-0.9c-0.1-0.3-0.3-0.6-0.4-0.8c-0.1-0.3-0.3-0.5-0.4-0.8c-0.1-0.2-0.2-0.4-0.3-0.6
			c-0.2-0.5-0.4-1-0.6-1.5c-0.1-0.3-0.2-0.6-0.4-0.9c-0.1-0.1-0.1-0.3-0.2-0.4l13.7-7.6c1.4,1.4,3.3,2.3,5.5,2.3
			c1.6,0,3-0.5,4.2-1.3c0,0,0.1,0,0.1-0.1l7.7,6.9c0,0,0,0,0,0.1c-0.1,0.5-0.1,1-0.1,1.5c0,4.2,3.4,7.7,7.6,7.7
			c4.2,0,7.7-3.4,7.7-7.7c0-1.4-0.4-2.6-1-3.7c0,0,0,0,0,0l16-22.8c0,0,0,0,0,0c1.1,0.6,2.3,0.9,3.6,0.9c1.9,0,3.7-0.7,5-1.9
			c0,0,0,0,0.1,0l6.9,6.3c0,0.4-0.1,0.7-0.1,1.1c0,4.2,3.4,7.7,7.6,7.7c4.2,0,7.7-3.4,7.7-7.7c0-0.5-0.1-1.1-0.2-1.6
			c0,0,0-0.1,0-0.1l12.2-15c0,0.1,0,0.1,0,0.1c0.1,0.2,0.1,0.3,0.1,0.5c0.5,1.8,0.9,3.6,1.2,5.5c0.1,0.3,0.1,0.5,0.1,0.8
			c0,0.2,0.1,0.4,0.1,0.6c0,0.2,0.1,0.4,0.1,0.6c0,0.3,0.1,0.5,0.1,0.8c0,0.1,0,0.3,0.1,0.4c0,0.2,0,0.4,0.1,0.7
			c0,0.2,0,0.5,0.1,0.7c0,0.3,0.1,0.6,0.1,0.9c0,0.3,0,0.7,0.1,1c0,0.2,0,0.5,0,0.7c0,0.3,0,0.5,0,0.8C110,54.1,110,54.6,110,55z"/>
	</g>
</g>
</svg>
