<?xml version="1.0" encoding="utf-8"?>
<!-- Generator: Adobe Illustrator 21.0.2, SVG Export Plug-In . SVG Version: 6.00 Build 0)  -->
<svg version="1.1" id="Layer_1" xmlns="http://www.w3.org/2000/svg" xmlns:xlink="http://www.w3.org/1999/xlink" x="0px" y="0px"
	 width="138.2px" height="80px" viewBox="0 0 138.2 80" style="enable-background:new 0 0 138.2 80;" xml:space="preserve">
<style type="text/css">
	.st0{fill:#616160;}
	.st1{fill:#4BC1F0;}
</style>
<path class="st0" d="M95.3,74.4H29.1c-13,0-23.6-10.6-23.6-23.6s10.6-23.6,23.6-23.6c3.9,0,7.6,0.9,11,2.7l2.8,1.5l1.1-3
	C48.9,14.7,62,5.5,76.5,5.5c16.5,0,30.2,11.4,33.6,27c1.8-0.2,3.6-0.3,5.6-0.3c-1.6-7.9-5.5-15.1-11.3-20.8C96.9,4,87,0,76.5,0
	C60.7,0,46.3,9.4,40,23.7c-3.4-1.4-7.1-2.1-10.8-2.1C13.1,21.6,0,34.7,0,50.8s13.1,29.1,29.1,29.1h71.7
	C97.4,78.5,95.3,76.5,95.3,74.4z"/>
<path class="st1" d="M138.2,43.3c0-1.3-0.5-2.4-1.5-3.4c-3.2-3.4-11.2-5.2-19.2-5.2c-0.5,0-1,0-1.4,0c-1.9,0.1-3.7,0.2-5.5,0.4
	c-7.5,1-13.7,3.8-13.7,8.2c0,0.3,0,0.5,0.1,0.8c0,0.2-0.1,0.4-0.1,0.5v8c0,0.3,0,0.5,0.1,0.8c0,0.2-0.1,0.4-0.1,0.5v8
	c0,0.3,0,0.5,0.1,0.8c0,0.2-0.1,0.4-0.1,0.5v8c0,1.1,0.4,2.1,1.1,3c2.6,3.2,9.3,5.1,16.5,5.5c1,0.1,2,0.1,3,0.1c8,0,16-1.8,19.2-5.2
	c0.9-1,1.5-2.1,1.5-3.4v-8c0-0.2,0-0.4-0.1-0.5c0-0.3,0.1-0.5,0.1-0.8v-8c0-0.2,0-0.4-0.1-0.5c0-0.3,0.1-0.5,0.1-0.8v-8
	c0-0.2,0-0.4-0.1-0.5C138.2,43.8,138.2,43.5,138.2,43.3z M117.5,66.7c-4.8,0-9.3-0.7-12.6-1.8c-3.1-1.1-4.2-2.3-4.2-2.9v-4.1
	c4,2.2,10.4,3.4,16.8,3.4c4.4,0,8.8-0.5,12.5-1.6c1.6-0.5,3.1-1.1,4.3-1.8V62c0,0.6-1.1,1.8-4.2,2.9c-0.6,0.2-1.2,0.4-1.8,0.6
	C125.2,66.3,121.5,66.7,117.5,66.7z M134.3,50.7v2c0,0.6-1.1,1.8-4.2,2.9c-0.1,0-0.2,0.1-0.2,0.1c-3.3,1.1-7.7,1.8-12.4,1.8
	c-4.8,0-9.3-0.7-12.6-1.8c-3.1-1.1-4.2-2.3-4.2-2.9v-4.1c4,2.2,10.4,3.4,16.8,3.4c3.8,0,7.5-0.4,10.8-1.2c2-0.5,3.8-1.1,5.3-1.8
	c0.2-0.1,0.5-0.2,0.7-0.4V50.7z M105,40.4c1.7-0.6,3.7-1.1,6-1.4c2.1-0.3,4.3-0.4,6.6-0.4c2.5,0,4.9,0.2,7.1,0.5
	c2,0.3,3.9,0.8,5.5,1.3c3.1,1.1,4.2,2.3,4.2,2.9c0,0.5-0.7,1.4-2.6,2.3c-0.4,0.2-1,0.4-1.5,0.6c-1.2,0.4-2.6,0.8-4.1,1.1
	c-2.6,0.5-5.5,0.8-8.5,0.8c-4.8,0-9.3-0.7-12.6-1.8c-3.1-1.1-4.2-2.3-4.2-2.9C100.8,42.7,101.9,41.5,105,40.4z M134.3,71.4
	c0,0.6-1.1,1.8-4.2,2.9c-0.8,0.3-1.7,0.5-2.6,0.8c-2.9,0.7-6.3,1.1-10,1.1c-4.6,0-8.9-0.6-12.1-1.7c-0.2-0.1-0.3-0.1-0.5-0.2
	c-3.1-1.1-4.2-2.3-4.2-2.9v-4.1c4,2.2,10.4,3.4,16.8,3.4c2.4,0,4.9-0.2,7.2-0.5c3.3-0.5,6.3-1.3,8.6-2.4c0.4-0.2,0.7-0.3,1-0.5V71.4
	z"/>
</svg>
