<?xml version="1.0" encoding="utf-8"?>
<!-- Generator: Adobe Illustrator 21.0.2, SVG Export Plug-In . SVG Version: 6.00 Build 0)  -->
<svg version="1.1" id="Layer_1" xmlns="http://www.w3.org/2000/svg" xmlns:xlink="http://www.w3.org/1999/xlink" x="0px" y="0px"
	 width="177.2px" height="110px" viewBox="0 0 177.2 110" style="enable-background:new 0 0 177.2 110;" xml:space="preserve">
<style type="text/css">
	.st0{fill:#2887B2;}
	.st1{fill:#3DA0D4;}
</style>
<path id="XMLID_4906_" class="st0" d="M65.4,77.9c-8,8.4-19.4,13.6-31.9,13.6c-13.4,0-25.4-6-33.5-15.4c2.2-1,4.9-2.1,8.2-3.3
	c13.3-4.9,12.4-2.5,12.4-11.5c0-5.8-2.9-2.4-4.8-13.5c-0.8-4.4-1.3-1.5-2.9-8.4c-0.8-3.6,0.6-3.9,0.4-5.7c-0.2-1.7-0.3-3.3-0.6-6.9
	c-0.4-4.4,3.7-16,18.4-16c14.7,0,18.7,11.6,18.4,16c-0.3,3.6-0.5,5.1-0.7,6.9c-0.2,1.7,1.2,2,0.4,5.7c-1.6,7-2.2,4.1-2.9,8.4
	c-1.9,11-4.9,7.7-4.9,13.5c0,9-0.8,6.6,12.4,11.5C59.1,74.8,62.8,76.5,65.4,77.9z"/>
<path class="st1" d="M174.3,0H58.1c17.1,8.9,29.2,26.7,29.2,47.3c0,28.4-22.2,51.5-49.5,53.3v6.5c0,1.6,1.3,2.9,2.9,2.9h133.6
	c1.6,0,2.9-1.3,2.9-2.9V2.9C177.2,1.3,175.9,0,174.3,0z M164.9,86.1H99.1v-5.7h65.8V86.1z M164.9,76.8H99.1v-5.7h65.8V76.8z
	 M164.9,67.5H99.1v-5.7h65.8V67.5z M164.9,58.3H99.1v-5.7h65.8V58.3z M164.9,47.8H99.1V24.2h65.8V47.8z"/>
<path id="XMLID_2084_" class="st0" d="M77.7,47.3c0,10.5-3.7,20.2-9.8,27.8l-0.7-0.4c-2.9-1.6-6.8-3.3-12.1-5.3
	c-2.6-1-4.6-1.6-6.3-2.2c-1.5-0.5-3.1-1-3.8-1.3c-0.1-0.6-0.1-1.9-0.1-3v-1.5c0-1.3,0.1-1.4,0.7-2.1c1.5-1.9,3.1-4.3,4.2-10.7
	c0.2-1.2,0.3-1.4,0.5-1.7c0.8-1.2,1.5-2.5,2.4-6.5c0.7-3.1,0.2-4.8-0.3-6.1c0-0.1,0-0.1-0.1-0.2l0.2-1.8c0.1-1.2,0.3-2.7,0.5-4.9
	c0.3-3.5-1.2-8.9-5.2-13.2C45,11,40.2,7.3,31.4,7.3c-1,0-2.4,0-2.4,0.1V6.2c0-1.6,0.9-2.9,2.5-3C32.4,3.2,33,3.1,34,3.1
	C58.4,3.1,77.7,22.9,77.7,47.3z"/>
</svg>
