<?xml version="1.0" encoding="utf-8"?>
<!-- Generator: Adobe Illustrator 21.0.2, SVG Export Plug-In . SVG Version: 6.00 Build 0)  -->
<svg version="1.1" id="Layer_1" xmlns="http://www.w3.org/2000/svg" xmlns:xlink="http://www.w3.org/1999/xlink" x="0px" y="0px"
	 width="121px" height="110px" viewBox="0 0 121 110" style="enable-background:new 0 0 121 110;" xml:space="preserve">
<style type="text/css">
	.st0{fill-rule:evenodd;clip-rule:evenodd;fill:#239FC0;}
	.st1{fill-rule:evenodd;clip-rule:evenodd;fill:#EDCD2F;}
	.st2{fill:#239FC0;}
	.st3{opacity:0.3;fill-rule:evenodd;clip-rule:evenodd;fill:#145F70;}
</style>
<path id="XMLID_197_" class="st0" d="M98.1,3.2l-13.9,0l0,6.3c0,0.5,0,3.4,0,3.6c0,3.1-2.5,5.5-5.5,5.5c-3.1,0-5.5-2.5-5.5-5.5
	c0-0.3,0-2.6,0-3.7l0-6.2l-43.6,0l0,6.2c0,0,0,2.3,0,3.7c0,3.1-2.5,5.5-5.5,5.5c-3.1,0-5.5-2.5-5.5-5.5c0-1.4,0-3.7,0-3.7l0-6.2
	l-12.6,0c-3.1,0-5.6,2.5-5.6,5.6l0,11.9l103.6,0.1l0-11.9C103.8,5.7,101.2,3.2,98.1,3.2z"/>
<rect id="XMLID_352_" x="8.2" y="30.9" class="st0" width="14.5" height="12.8"/>
<rect id="XMLID_351_" x="8.2" y="47.1" class="st0" width="14.5" height="12.8"/>
<rect id="XMLID_350_" x="8.2" y="64.3" class="st0" width="14.5" height="12.8"/>
<rect id="XMLID_349_" x="26.7" y="30.9" class="st0" width="14.5" height="12.8"/>
<rect id="XMLID_196_" x="26.7" y="47.1" class="st0" width="14.5" height="12.8"/>
<rect id="XMLID_346_" x="26.7" y="64.3" class="st0" width="14.5" height="12.8"/>
<rect id="XMLID_345_" x="8.1" y="81.4" class="st0" width="14.5" height="12.8"/>
<rect id="XMLID_344_" x="45.2" y="30.9" class="st0" width="14.5" height="12.8"/>
<rect id="XMLID_343_" x="45.2" y="47.1" class="st0" width="14.5" height="12.8"/>
<rect id="XMLID_342_" x="63.8" y="30.9" class="st0" width="14.5" height="12.8"/>
<polygon id="XMLID_341_" class="st1" points="78.3,43.7 63.8,43.7 78.3,30.9 "/>
<rect id="XMLID_340_" x="63.8" y="47.1" class="st0" width="14.5" height="12.8"/>
<rect id="XMLID_339_" x="82.3" y="30.9" class="st0" width="14.5" height="12.8"/>
<rect id="XMLID_338_" x="82.2" y="47" class="st0" width="14.5" height="12.8"/>
<path id="XMLID_336_" class="st2" d="M66.4,101.1c0,3.1,0.5,6.1,1.4,8.9l3.8,0c-1-2.8-1.6-5.8-1.6-8.9c0-14.5,11.8-26.3,26.4-26.3
	c2.1,0,3.3,0.2,5.2,0.7l3.3-3.1c-2.7-0.8-5.6-1.2-8.5-1.2C79.8,71.1,66.4,84.5,66.4,101.1z"/>
<polygon id="XMLID_334_" class="st3" points="96.8,43.7 82.2,43.7 96.8,30.9 "/>
<polygon id="XMLID_333_" class="st3" points="59.7,43.7 45.1,43.7 59.7,30.9 "/>
<polygon id="XMLID_332_" class="st3" points="41.3,43.7 26.7,43.7 41.3,30.9 "/>
<polygon id="XMLID_331_" class="st3" points="96.8,59.8 82.2,59.8 96.8,47 "/>
<polygon id="XMLID_330_" class="st3" points="78.3,59.8 63.8,59.8 78.3,47 "/>
<polygon id="XMLID_329_" class="st3" points="59.7,59.8 45.1,59.8 59.7,47 "/>
<polygon id="XMLID_328_" class="st3" points="41.2,59.8 26.7,59.8 41.2,47 "/>
<polygon id="XMLID_327_" class="st3" points="22.7,59.8 8.2,59.8 22.7,47 "/>
<polygon id="XMLID_326_" class="st3" points="41.2,77.1 26.7,77.1 41.2,64.3 "/>
<polygon id="XMLID_325_" class="st3" points="22.7,77.1 8.2,77.1 22.7,64.3 "/>
<polygon id="XMLID_324_" class="st3" points="22.7,94.2 8.1,94.2 22.7,81.4 "/>
<polygon id="XMLID_323_" class="st3" points="22.7,43.7 8.2,43.7 22.7,30.9 "/>
<path id="XMLID_322_" class="st0" d="M81.9,13.3c0,0-0.5,2.3-3.1,2.3c-2.6,0-3.1-2.3-3.1-2.3l0-13.2l6.2,0L81.9,13.3z"/>
<path id="XMLID_321_" class="st0" d="M27.1,13.2c0,0-0.5,2.3-3.1,2.3c-2.6,0-3.1-2.3-3.1-2.3l0-13.2l6.2,0L27.1,13.2z"/>
<path id="XMLID_318_" class="st2" d="M59.3,109.8l-52,0c-4,0-7.2-3.3-7.2-7.2l0.1-79.3l103.7,0.1l0,44.4l-2.1-0.3
	c-0.2,0-17.8-2.4-29.9,9.7C58.6,90.2,61,107.6,61.1,107.7l0.3,2.1L59.3,109.8z M3.7,26.9l-0.1,75.7c0,2,1.6,3.6,3.6,3.6l50,0
	c-0.3-5.4,0.1-19.8,12-31.7l0,0c10.9-10.9,25.5-11.2,30.9-10.9l0-36.7L3.7,26.9z"/>
<path id="XMLID_317_" class="st2" d="M121,63.9l0,14.7c0,0-22.1,7.4-30.9,31.3L74.9,95.1l6.6-6.5l6.3,9.2
	C87.9,97.8,96.1,78.4,121,63.9z"/>
</svg>
