<?xml version="1.0" encoding="utf-8"?>
<!-- Generator: Adobe Illustrator 21.0.2, SVG Export Plug-In . SVG Version: 6.00 Build 0)  -->
<svg version="1.1" id="Layer_1" xmlns="http://www.w3.org/2000/svg" xmlns:xlink="http://www.w3.org/1999/xlink" x="0px" y="0px"
	 width="142.6px" height="110px" viewBox="0 0 142.6 110" style="enable-background:new 0 0 142.6 110;" xml:space="preserve">
<style type="text/css">
	.st0{fill:#3c5a98;}
</style>
<g>
	<g>
		<path id="XMLID_1084_" class="st0" d="M16.8,93.4V71.8c0,0,0-1.5-0.9-2.2c-0.9-0.8-2-0.8-2-0.8H6.4c0,0-2.9-0.4-4.8-2.6
			C0.1,64.4,0,61.8,0,61.8v-13c0,0,0.1-3.5,2.2-5.4c2.1-1.9,4.7-2.2,4.7-2.2h6.5c0,0,0.9,0.1,2.4-0.9s1.1-2.5,1.1-2.5V19.8
			c0,0,0.6-8.2,6.6-13.6s12-6.1,12-6.1H58c0,0,3.7,0.8,5.5,3c1.9,2.3,1.9,4.4,1.9,4.4l0,12.4c0,0,0.4,2.7-2.2,5.5
			c-2,2.2-4.6,2.3-4.6,2.3l-11.2,0c0,0-1.4-0.1-2.2,0.6c-0.8,0.8-0.8,1.7-0.8,1.7l0,8.3c0,0,0.3,1.3,1.3,2c1,0.8,2.3,0.9,2.3,0.9
			h11.1c0,0,3.7,0.3,4.9,2.8c1.2,2.4,1.5,3.2,1.1,5.6C64.9,52.1,63,60.9,63,60.9s-0.8,3.6-3,6c-1.6,1.8-4.4,1.9-4.4,1.9h-8.9
			c0,0-0.9,0.1-1.6,0.8c-0.6,0.6-0.7,1.5-0.7,1.5s0,33,0,32.6c0-0.4,0.1,1.7-2.2,4c-2.2,2.3-4.2,2.3-4.2,2.3H26.4
			c0,0-2.8-0.3-2.8-3.7c0-3.6,2.8-3.7,2.8-3.7l8.4,0c0,0,1.7,0.1,1.9-0.5c0.5-1.4,0.4-2.6,0.4-2.6l0-30.3c0,0,0.3-2.8,2.7-5.2
			c2.5-2.5,4.7-2.5,4.7-2.5h8.7c0,0,1.7-0.2,2.5-2c1.5-3.6,2.3-7.8,2.3-7.8s0.5-1.7-0.3-2.7c-0.5-0.7-1.9-0.6-1.9-0.6l-10.7,0
			c0,0-3.5-0.3-5.9-3.3c-2-2.5-2-4.7-2-4.7v-12c0,0,0-3.1,2.8-5.8c2.5-2.4,4.5-2.5,4.5-2.5h11.3c0,0,1-0.2,1.6-0.7
			c0.7-0.7,0.7-1.5,0.7-1.5V9.7c0,0-0.2-1.2-1.1-1.9c-0.8-0.6-2.2-0.6-2.2-0.6H38.4c0,0-5,0.4-10,5.2c-3.6,3.5-4.2,8.4-4.2,8.4v19.5
			c0,0-0.3,3.8-3.1,6c-2.6,2.1-4.9,2.1-4.9,2.1l-6.8,0c0,0-1.5-0.1-2.3,0.9c-0.4,0.6-0.5,1.5-0.5,1.5v7.6c0,0,0,1.3,1.1,2.2
			c1.2,1,2.3,0.9,2.3,0.9l6.3,0c0,0,3.4,0.4,5.5,2.7c2.6,2.9,2.3,4.8,2.3,4.8l0,24.3c0,0-0.1,3.1-3.9,3.1S16.8,93.4,16.8,93.4z"/>
		<g id="XMLID_1074_">
			<path id="XMLID_1081_" class="st0" d="M86.3,56.4H74.8c0,1.3,0.3,2.5,0.8,3.6c0.5,1,1.2,1.8,2.1,2.3c0.9,0.5,1.8,0.8,2.9,0.8
				c0.7,0,1.4-0.1,1.9-0.2c0.6-0.2,1.2-0.4,1.7-0.8s1.1-0.7,1.5-1.1c0.5-0.4,1.1-1,1.8-1.6c0.3-0.3,0.7-0.4,1.3-0.4
				c0.6,0,1.1,0.2,1.5,0.5c0.4,0.3,0.6,0.8,0.6,1.4c0,0.5-0.2,1.2-0.6,1.9c-0.4,0.7-1.1,1.4-1.9,2.1s-1.9,1.2-3.2,1.6
				c-1.3,0.4-2.7,0.7-4.4,0.7c-3.8,0-6.8-1.1-8.9-3.2c-2.1-2.2-3.2-5.1-3.2-8.8c0-1.7,0.3-3.4,0.8-4.9c0.5-1.5,1.3-2.8,2.3-3.8
				s2.2-1.9,3.7-2.5c1.5-0.6,3.1-0.9,4.9-0.9c2.3,0,4.3,0.5,5.9,1.5c1.7,1,2.9,2.2,3.7,3.8c0.8,1.5,1.2,3.1,1.2,4.7
				c0,1.5-0.4,2.5-1.3,2.9C89.1,56.1,87.9,56.4,86.3,56.4z M74.8,53h10.7c-0.1-2-0.7-3.5-1.6-4.5c-0.9-1-2.2-1.5-3.7-1.5
				c-1.5,0-2.7,0.5-3.6,1.5C75.6,49.5,75,51,74.8,53z"/>
			<path id="XMLID_1078_" class="st0" d="M111.8,56.4h-11.6c0,1.3,0.3,2.5,0.8,3.6c0.5,1,1.2,1.8,2.1,2.3c0.9,0.5,1.8,0.8,2.9,0.8
				c0.7,0,1.4-0.1,1.9-0.2c0.6-0.2,1.2-0.4,1.7-0.8c0.5-0.4,1.1-0.7,1.5-1.1c0.5-0.4,1.1-1,1.8-1.6c0.3-0.3,0.7-0.4,1.3-0.4
				c0.6,0,1.1,0.2,1.5,0.5c0.4,0.3,0.6,0.8,0.6,1.4c0,0.5-0.2,1.2-0.6,1.9c-0.4,0.7-1.1,1.4-1.9,2.1s-1.9,1.2-3.2,1.6
				c-1.3,0.4-2.7,0.7-4.4,0.7c-3.8,0-6.8-1.1-8.9-3.2c-2.1-2.2-3.2-5.1-3.2-8.8c0-1.7,0.3-3.4,0.8-4.9c0.5-1.5,1.3-2.8,2.3-3.8
				c1-1.1,2.2-1.9,3.7-2.5c1.5-0.6,3.1-0.9,4.9-0.9c2.3,0,4.3,0.5,5.9,1.5c1.7,1,2.9,2.2,3.7,3.8c0.8,1.5,1.2,3.1,1.2,4.7
				c0,1.5-0.4,2.5-1.3,2.9C114.6,56.1,113.4,56.4,111.8,56.4z M100.3,53H111c-0.1-2-0.7-3.5-1.6-4.5c-0.9-1-2.2-1.5-3.7-1.5
				c-1.5,0-2.7,0.5-3.6,1.5C101,49.5,100.5,51,100.3,53z"/>
			<path id="XMLID_1075_" class="st0" d="M137,63.6V63c-0.8,0.9-1.6,1.6-2.4,2.2c-0.8,0.6-1.6,1-2.5,1.3s-1.9,0.4-3,0.4
				c-1.4,0-2.7-0.3-3.9-0.9c-1.2-0.6-2.2-1.5-3.1-2.6c-0.9-1.1-1.5-2.4-2-3.9c-0.5-1.5-0.7-3.1-0.7-4.9c0-3.7,0.9-6.6,2.7-8.6
				c1.8-2.1,4.2-3.1,7.1-3.1c1.7,0,3.1,0.3,4.3,0.9c1.2,0.6,2.3,1.5,3.4,2.7v-8.7c0-1.2,0.2-2.1,0.7-2.8c0.5-0.6,1.2-0.9,2.1-0.9
				c0.9,0,1.6,0.3,2.1,0.9c0.5,0.6,0.7,1.4,0.7,2.5v26.1c0,1.1-0.3,2-0.8,2.5c-0.5,0.6-1.2,0.8-2,0.8c-0.8,0-1.5-0.3-2-0.9
				C137.3,65.5,137,64.6,137,63.6z M125.4,54.9c0,1.6,0.2,3,0.7,4.1c0.5,1.1,1.2,2,2,2.5c0.9,0.6,1.8,0.9,2.8,0.9c1,0,2-0.3,2.8-0.8
				c0.9-0.5,1.5-1.4,2.1-2.5c0.5-1.1,0.8-2.5,0.8-4.2c0-1.6-0.3-2.9-0.8-4.1c-0.5-1.1-1.2-2-2.1-2.6s-1.8-0.9-2.9-0.9
				c-1.1,0-2.1,0.3-2.9,0.9c-0.9,0.6-1.5,1.5-2,2.6S125.4,53.4,125.4,54.9z"/>
		</g>
	</g>
</g>
</svg>
