<?xml version="1.0" encoding="utf-8"?>
<!-- Generator: Adobe Illustrator 21.0.2, SVG Export Plug-In . SVG Version: 6.00 Build 0)  -->
<svg version="1.1" id="Layer_1" xmlns="http://www.w3.org/2000/svg" xmlns:xlink="http://www.w3.org/1999/xlink" x="0px" y="0px"
	 width="96.9px" height="110px" viewBox="0 0 96.9 110" style="enable-background:new 0 0 96.9 110;" xml:space="preserve">
<style type="text/css">
	.st0{fill:#36B2E2;}
</style>
<path id="XMLID_48835_" class="st0" d="M79.3,85.7L95.8,110L66.7,93.3l-4-10.3c13.6-5.6,23.2-19,23.2-34.6
	C85.8,27.8,69.1,11,48.4,11C27.8,11,11,27.8,11,48.4C11,62,18.3,74,29.2,80.5c0,0,0.1,0,0.1,0.1l-5.6,9.5c0,0-0.1-0.1-0.1-0.1
	C9.4,81.5,0,66.1,0,48.4C0,21.7,21.7,0,48.4,0s48.4,21.7,48.4,48.4C96.9,63.4,90,76.8,79.3,85.7z"/>
<path id="XMLID_48604_" class="st0" d="M31.6,27.9l3.3,13.2c0,0,7.3-3.5,11.8-2.2s7,4,3.3,8.8S41,58,39.7,63
	c-1.2,4.5-0.9,8.3-0.9,8.3l16.6,0.8c0,0,0.4-5.6,1.9-8.4c2.8-5.2,6.1-7.3,9.3-10.8c3.2-3.5,7.3-13.6,0.9-21.5S44.7,21.6,31.6,27.9z"
	/>
<circle id="XMLID_48373_" class="st0" cx="46.1" cy="86.1" r="10.8"/>
</svg>
