<?xml version="1.0" encoding="utf-8"?>
<!-- Generator: Adobe Illustrator 21.0.2, SVG Export Plug-In . SVG Version: 6.00 Build 0)  -->
<svg version="1.1" id="Layer_1" xmlns="http://www.w3.org/2000/svg" xmlns:xlink="http://www.w3.org/1999/xlink" x="0px" y="0px"
	 width="158.3px" height="110px" viewBox="0 0 158.3 110" style="enable-background:new 0 0 158.3 110;" xml:space="preserve">
<style type="text/css">
	.st0{fill:#055D6B;}
	.st1{fill:#E6E6E6;}
	.st2{fill:#037EA1;}
</style>
<g>
	<g>
		<path id="XMLID_533_" class="st0" d="M128.2,88.8l-14-19.9c-0.5-0.7-1.4-0.9-2.2-0.5l-63,36.5c-0.8,0.5-0.4,0.9,0.1,1.7l1.3,3.4
			l77.1-18.4C128.4,91.1,128.9,89.7,128.2,88.8z"/>
		<path id="XMLID_532_" class="st1" d="M79.4,5.1l78.6,59.5c0.3,0.2,0.3,0.7,0,0.9l-71.7,44.3c-0.2,0.1-0.5,0.1-0.7-0.1L15,33.9
			c-0.3-0.3-0.2-0.7,0.2-0.9L78.9,5C79.1,4.9,79.3,5,79.4,5.1z"/>
		<path id="XMLID_531_" class="st2" d="M0.9,32.4L57.8,0.2c0.7-0.4,1.6-0.2,2.1,0.4l27.9,34.8c0.3,0.3,0.7,0.6,1.1,0.7l7.5,1.3
			c0.4,0.1,0.8,0.3,1.1,0.7l24,29.9c0.7,0.9,0.5,2.2-0.5,2.7L50.4,110L0.3,35C-0.3,34.1,0,32.9,0.9,32.4z"/>
	</g>
</g>
</svg>
