<?xml version="1.0" encoding="utf-8"?>
<!-- Generator: Adobe Illustrator 21.0.2, SVG Export Plug-In . SVG Version: 6.00 Build 0)  -->
<svg version="1.1" id="Layer_1" xmlns="http://www.w3.org/2000/svg" xmlns:xlink="http://www.w3.org/1999/xlink" x="0px" y="0px"
	 width="150.3px" height="110px" viewBox="0 0 150.3 110" style="enable-background:new 0 0 150.3 110;" xml:space="preserve">
<style type="text/css">
	.st0{fill:#00B5CB;}
</style>
<path class="st0" d="M145.9,0H4.4C2,0,0,2,0,4.4v101.3c0,2.4,2,4.4,4.4,4.4h141.6c2.4,0,4.4-2,4.4-4.4V4.4C150.3,2,148.3,0,145.9,0z
	 M49.8,18.1c18.7,0,43,0,43,0c0,4.4,0,4.4,0,6.6c0,0-39.7,0-43,0V18.1z M49.8,30.3h43c0,2.2,0,6.6,0,6.6c-4.4,0-35.3,0-43,0
	C49.8,36.8,49.8,33.5,49.8,30.3z M49.8,41.3h43v6.6c0,0-39.7,0-43,0C49.8,47.8,49.8,43.5,49.8,41.3z M12.4,18.1h33v29.7h-33V18.1z
	 M137.8,96.3H12.4V73.1h125.4V96.3z M137.8,65.5H12.4v-9.9h125.4V65.5z M137.8,47.8H96v-6.6h41.8V47.8z M137.8,36.8
	c-13.2,0-33,0-41.8,0v-6.5h41.8V36.8z M137.8,24.8H96c0,0,0-4.2,0-6.4l41.8,0C137.8,22.7,137.8,24.8,137.8,24.8z"/>
</svg>
