<?xml version="1.0" encoding="utf-8"?>
<!-- Generator: Adobe Illustrator 21.0.2, SVG Export Plug-In . SVG Version: 6.00 Build 0)  -->
<svg version="1.1" id="Layer_1" xmlns="http://www.w3.org/2000/svg" xmlns:xlink="http://www.w3.org/1999/xlink" x="0px" y="0px"
	 width="108.6px" height="110px" viewBox="0 0 108.6 110" style="enable-background:new 0 0 108.6 110;" xml:space="preserve">
<style type="text/css">
	.st0{fill:#00A0D2;}
	.st1{fill:#E64D3D;}
	.st2{fill:#C03A2C;}
</style>
<path id="XMLID_36054_" class="st0" d="M42.4,53.2c0.3,0,0.2-0.4,0.6-0.3c0.5,0.2,0.8,0.6,1.5,0.6c0.5-0.4-0.7-0.7-0.3-0.9
	c0.2,0.1,0.4,0.2,0.6,0.3c0.1-0.5-0.2-0.6-0.3-0.9c1.2-0.1,0.8-1.6,0.6-2.4c0.3-0.1,0.7-0.2,1.3-0.1c0-0.7-0.8-0.6-1.1-0.9
	c0.4,0.1,0.3-0.5,0.8-0.3c0.1-0.5-0.2-0.4-0.1-0.9c0.5,0.1,0.3-0.5,0.8-0.4c0.3-0.1,1.2,0.3,1.1-0.3c0.1-0.5-0.6-0.2-0.7-0.4
	c-0.3,0-0.3-0.5-0.7-0.4c-0.6-0.1-1.3,0.5-1.5,0.3c0.1-0.8,1.2-0.4,1.4-1c-0.3-0.4-0.9-0.5-1.7-0.4c-0.4-0.2-1-0.4-1.3,0
	c-0.1-0.2-0.4-0.2-0.7-0.3c-0.6,0.4-1.9-0.1-2.5,0.3c-0.6,0-1.4-0.1-1.7,0.3c0,0.3,0.4,1,0.1,1c-1-0.2-1.6,0.1-2.5-0.1
	c-1.4,0.2-2.1,1.2-3.5,1.3c-0.1,0.5,0.6,0.1,0.6,0.6c-0.4,0.4-1.2,0.4-1.5,0.7c-0.3-0.2-0.8-0.2-1,0.4c0.4-0.1,0.4,0.2,0.7,0.3
	c0-0.4,0.7-0.4,0.7,0c0.3-0.1,0.9-0.7,1,0.2c-0.6,0.1-1.4-0.1-1.8,0.1c0.1,0.6,0.7,0.7,1.1,0.9c0.4,0.1,0.3-0.4,0.7-0.3
	c0.4,0.3,0.9,0.6,1.7,0.4c-0.1,0.7,0.1,1,0.3,1.3c0,0.3-0.2,0.6-0.1,1c0.6,0.3,0.6-0.7,1-0.1c0.1,0.5-0.4,0.5-0.8,0.4
	c0.1,0.7,1.1,0.5,1.3,1c-0.3,0.3-0.7,0.4-1,0.7c0.4,0.2-0.4,0.3-0.3,0.7c1,0.7,0.2,2.4,1,3.4c0.3,0,0.7,0,1,0c0.4,0,0.2,0.6,0.7,0.6
	c0.1-0.3,0.2-0.6,0.6-0.7c-0.2-1.1,0.7-1.1,0.6-2.2c0.4,0,0.2-0.6,0.6-0.6c0.5,0.3,0.5-0.4,1.1,0c0.2-0.2,0.4-0.4,0.7-0.6
	c0.7-0.2,1-0.8,1.7-0.9c0.1-0.5,1.2-0.7,0.8-1.2C43.4,53.8,42.8,53.2,42.4,53.2z M43.8,52.6c-0.4-0.3,0-1,0.4-0.9
	C44.2,52,43.9,52.2,43.8,52.6z M44.8,45.4c0,0.4-0.3,0.6-0.6,0.7c-0.4-0.3-1.1-0.4-1.8-0.3C42.9,45.2,44.2,45.5,44.8,45.4z"/>
<path id="XMLID_32537_" class="st0" d="M25.1,47.6c0,0.3,0,0.6,0,0.9c0.4-0.1,0.5,0.2,0.8,0.2c0.1-0.7,0.9-1.3,1.4-1
	c0.2,0.6-0.7,0-0.7,0.4c0.4,0.2-0.5,0.3-0.4,0.6c0.4-0.1,0.5,0.1,0.4,0.4c-0.3,0-0.4-0.3-0.8-0.1c0,0.4-0.5,0.3-0.3,0.9
	c0.8-0.1,1.4-0.2,1.8,0.4c-1.1,0.3-1.8-0.6-2.5-0.3c-0.1,0.7,0.8,0.3,0.8,0.9c1.1-0.2,2.5,0.7,2.8-0.5c0.4,0,0.6-0.1,0.6-0.4
	c0.1-0.4-0.7,0.1-0.6-0.3c0.3,0,0.7,0,1,0c0-0.8,0.9-0.7,0.7-1.6c0.7,0,0.8-0.7,1.7-0.6c0.2-0.4,0.4-0.6,1-0.6
	c0.2-0.4-0.3-0.7,0-0.7c0.6-0.3,1.4,0.1,1.7-0.7c0-0.2-0.4-0.1-0.4-0.3c-2.3,0.3-5.4-0.4-7.8,0.6c-0.2,0.9,0.6,0.8,0.7,1.3
	c-0.9,0.1-0.6-1.1-1.7-0.9c0,0.2-0.2,0.3-0.1,0.6c-0.2,0-0.5,0-0.4,0.3C24.6,47.5,25.1,47.4,25.1,47.6z M28.1,50.3
	c0.1,0.1-0.1,0.2-0.1,0.2C27.9,50.4,28,50.3,28.1,50.3z"/>
<path id="XMLID_32528_" class="st0" d="M39.1,87.6c-0.2-0.3-0.4,0.1-0.7,0.1c-0.2-0.5-0.8-0.7-1.3-0.9c-0.3,0-0.7,0-1,0
	c-0.3-0.4-1.2-0.1-1.3-0.7c-0.4,0-0.8,0.1-0.8-0.3c0.4-0.7-0.4-2.6-1.7-1.9c-0.4-0.3-0.8-0.7-0.8-1.3c-0.7-0.2-1.3-0.7-2-0.9
	c-0.2,0.1-0.2,0.3-0.4,0.3c-0.2-0.5-0.9-0.6-1-1.2c-0.4-0.1-0.3,0.4-0.6,0.4c-0.3-0.1-0.4-0.5-0.7-0.6c-0.1,0.3-0.3,0.5-0.7,0.4
	c-0.2,0.6-0.8,0.9-1.1,1.3c0-0.5-0.2-0.7-0.6-0.7c-0.4,0.2-0.5,0.5-1,0.6c-0.3-0.7,0.1-1.4,0-2.4c-0.3-0.5-1.2-0.3-1.7-0.6
	c0.1-0.7,0.5-1,0.4-1.9c-0.7,0.1-0.7,0.1-1.4,0c-0.3,0.3-0.1,1-0.6,1.2c-1.9,0.1-0.7-2.6-1.1-3.7c0.5-0.1,0.8-0.4,1.3-0.6
	c0.8-0.1,0.9,0.5,1.7,0.4c0-0.2,0-0.4,0.1-0.4c0.7,0,1.6-0.2,1.7,0.4c-0.1,0.9,0.3,1.3,1,1.3c-0.2-0.8-0.1-1,0-1.5
	c-0.2-0.2-0.4-0.4-0.4-0.7c0.2-1,0.9-1.6,1.8-1.8c0.1-0.4,0.1-0.5,0-0.9c0.3,0,0.5,0,0.7-0.2c-0.3-0.8,0.5-0.6,0.3-1.6
	c0.5-0.2,0.9-0.4,1.4-0.6c0.1-0.5-0.4-0.3-0.3-0.9c0.5-0.5,1.3-0.6,2-0.9c0.1,0.4-0.3,0.3-0.3,0.6c0.6-0.2,1.2-0.5,1.5-0.9
	c-0.3-0.2-1-0.1-1-0.7c0.1-0.4,0.5-0.4,0.8-0.6c0.1-0.4-0.3-0.3-0.1-0.7c0.7,0.5,1.5-0.7,2-0.4c-0.3,0.8-1,1.2-1.3,2.1
	c0.5,0.1,0.6-0.3,1.1-0.1c0,0.2-0.1,0.6,0.1,0.6c0.1-0.4,0.5,0.2,1,0c-0.1-0.3-0.3-0.8,0-1c-0.5-0.1-0.6-0.5-0.8-0.9
	c0-0.9,0-1,0-1.9c-0.3-0.3-0.3,0-0.7,0c0-0.7-0.6-0.7-0.7-1.3c0.1-0.1,0.1-0.3,0.1-0.6c-0.5-0.3-0.3-1.4-1.1-1.5
	C31.1,59.5,31.3,60,31,60c-0.3-0.1-0.9,0.2-1-0.2c0-0.5,0-1,0-1.5c-0.7,0.4-0.6-0.3-1.3-0.4c-0.4,0.4-0.3-0.2-0.7-0.1
	c-0.3-0.1-0.3,0.3-0.7,0.1c0.2,1.5-0.4,2.3-0.1,3.4c-0.2,0-0.7-0.4-0.8,0c0.1,0.4,0.5,0.1,0.6,0.3c-0.5,0.3-0.5,1.2-0.7,1.8
	c-0.3-0.5-0.4-1.2-0.6-1.8c-0.3-0.3-0.3,0.1-0.6,0.1c-0.1-0.4-0.2-0.2-0.6-0.1c-0.4-0.4-0.9-0.8-1.5-1c0.2-0.7-0.5-0.5-0.4-1
	c0.3,0.1,0.3-0.2,0.3-0.4c0.5-0.3,0.7-0.8,1.1-1c0.3-0.5,0.5-1.1,1.3-1.2c0-0.3-0.2-0.3-0.1-0.6c0.9-0.2,1.5-0.3,2.1-0.6
	c0-0.6,0-1.1,0.1-1.5c-0.2-0.2-0.5-0.2-0.7-0.4c0.6,0,1,0,1.3,0.3c0.3-0.5,0.7,0.2,1.1,0c-0.2,0.8,0.6,0.4,0.6,1
	c-0.1,1.1-1.7,0.7-1.8,1.8c0.2,0.4,0.8,0.3,1.4,0.3c0.9,0.4,1.2,1.4,2.4,1.5c-0.3-0.8,0.2-0.8,0.1-1.6c-0.1-0.4-0.4-0.4-0.4-0.9
	c0.5,0,0.7,0.5,1.1,0.6c0-0.4-0.1-0.7,0.4-0.6c-0.1-0.5,0.1-0.5,0.1-0.9c-0.4,0.1-0.3-0.3-0.4-0.4c-0.5-0.1-0.8-0.3-1.3-0.4
	c0-0.3,0.4-0.3,0.4-0.6c-0.2-0.4-0.6-0.4-0.6-1c-0.4,0-0.8,0-1.3,0c0.1-0.5-0.4-0.4-0.4-0.7c-0.6-0.1-0.9,0.1-1.4,0.2
	c0.1-0.9-1.1-0.6-1.3-0.2c0.1-0.6-0.1-0.9-0.6-0.9c-0.7,0.5-1.6,2-0.7,2.8c0.2,0.1,0.7-0.2,0.7,0.1c-0.2,0.4-0.4,0.7-0.7,1
	c-0.4-0.4,0.3-0.3,0.1-0.9c-0.5-0.3-0.9-0.7-1.1-1.3c-0.5,0.1-0.4-0.5-1.1-0.3c0,0.4-0.3,0.3-0.1,0.7c0.5,0.2,0.3,1.4,0,1.6
	c-0.2-0.1-0.3-0.4-0.3-0.7c-0.7-0.1-0.7,0.6-1.3,0.6c-0.5-0.2-1.1-0.4-1.4-0.9c0.6-0.1,0.8,0.2,1.4,0.1c0.3-0.3-0.1-0.4,0-0.9
	c0.8-0.2,1.1-0.8,1.8-1c-0.3-0.5-0.2-0.8-0.3-1.2c-0.7,0-1.4,0-2.1,0c-0.3,0.4-1,0.4-1.1,1c-0.1-0.2-0.2-0.4-0.3-0.6
	c-0.4,0-0.9,0.1-0.7-0.4c1,0.2,2.3-0.5,3.2-0.9c0,0.7,1.2,0.5,1.4,0.2c-0.1-0.3-0.1-0.8-0.3-1c-0.8,0.1-1.2,0.7-2.1,0.8
	c0-0.3,0-0.6,0-0.9c-0.8-0.3-0.9,0.7-0.4,0.9c-0.8,0.1-1.3-0.2-2-0.2c0.2,0.8-0.6,0.4-0.7,0.9c0.3,0.2,0.4-0.1,0.6,0.1
	c-0.1,0.2-0.3,0.3-0.6,0.3c-0.2-0.9-1.3-0.8-2.4-0.7c-0.1,0.7-0.4,1.1-0.8,1.5c0,0.5,0.4,0.5,0.3,1c0.7,0,1-0.3,1.5-0.4
	c-0.3,0.8,0.8,0.2,0.8,0.6c0.1,0.4-0.7-0.1-0.6,0.3c0,0.8,1.5,0,1.3,1c0.5-0.3,0.7-0.2,1.3,0c0,0,0.1,0,0.1,0c0-0.2,0.4-0.5,0.4-0.1
	c0,0.2-0.2,0.2-0.4,0.1c0,0.4,0.6,0.8,0,1c-0.2,0-0.1-0.3-0.1-0.4c-1.2-0.1-1.9-0.9-3.3-0.7c-0.4-0.1-0.4-0.7-1-0.7
	c-0.1,0.4-0.4,0.5-0.8,0.6c0-0.3,0-0.6-0.1-0.7c-0.5,0-0.5,0.6-1.1,0.6c-0.5,0.1-0.7-0.2-1.1-0.1c-0.2,0-0.1,0.3-0.3,0.3
	c-0.1,0-0.1-0.2-0.1-0.3c-0.3,0-0.5,0.2-1,0.1c-1.1-0.7-3.3-0.4-4.5-1c-1,0.5-2.4,0.6-3.1,0.7c-0.3,0.6,0.3,0.6,0.4,1
	c0.5-0.1,0.9,0.1,1,0.4c-0.6-0.2-0.5,0.3-0.7,0.4c-0.3-0.1-0.4-0.4-0.7-0.4c-0.5,0.6-1.8,0.4-2.2,1c0.8,0,1,0.5,1.1,1.2
	c0.7-0.3,1.3,0,2-0.2c-0.7,1.3-3.6,0.3-3.4,2.5c0.5,0.4,0.6,0.4,0.4,1.2c0.3,0,0.3-0.2,0.6-0.1c0,0.2-0.1,0.6,0.1,0.6
	C2,60.9,1.9,62,2.2,61.8c0.2-0.6,0.8-0.7,1.3-0.3C2.9,62,2.7,62.9,2,63.3c-0.6,0.2-0.9,0.9-1.7,0.9c0.1,0.5-0.2,0.5-0.3,0.7
	c0.6,0.1,0.9-0.3,1.5-0.1c0.2-0.4,0.6-0.6,1.1-0.6c0.5-1,1.4-1.6,2.2-2.4c0.1,0,0.2,0,0.3,0c0.1-0.1,0-0.5,0.4-0.4
	c0-0.1,0-0.2,0.1-0.1c0,0.1,0,0.2-0.1,0.1C5.6,62,5.2,62.2,5,62.6c1.1,0.1,1.4-0.7,2.4-0.7c0.1-0.7-0.1-1.1-0.1-1.6
	c0.6,0.1,0.7-0.4,1.3-0.3c0.4,0.3,0.7,0.6,1,1c0.9,0.3,1.6,0.7,1.5,2.1c0.7-0.1,0-0.8,0.6-0.9c0,1.3,0,2.6,0.4,3.4
	c-0.4,0.4-0.1,0.6,0,1c0,0.3-0.4,0.2-0.3,0.6c-0.1,1.6-0.2,2.7,0,4.3c0.4,0.2,0.6,0.6,1,0.9c0.4,0.6,0.4,1.6,0.8,2.1
	c-0.2,0-0.1,0.3-0.1,0.4c0.6,0.2,0.7,0.9,1,1.5c0.4-0.1,0.4,0.3,0.8,0.1c0-0.6-0.3-0.5-0.3-1.3c-0.1,0-0.2-0.1,0-0.2
	c0,0.1,0,0.1,0,0.2c0.3-0.1,0.3,0.2,0.3,0.4c0.4,0.3,0.8,0.7,1.1,1.2c-0.1,1.1,0.3,1.6,0.6,2.2c1.2,0.3,1.8,1.1,3.2,0.7
	c0.2,0.4,0.3,0.7,0.6,1c0.5-0.1,0.7,0.2,1.1,0.1c0.1,0.4,0.4,0.6,0.7,0.7c0,0.2,0,0.3,0,0.4c0.8,0.1,1,0.9,1.7,1
	c0.1-0.2,0.1-0.6,0.4-0.6c0.1,0.5,0.3,0.9,0.4,1.3c0,0.3-0.4,0.2-0.3,0.6c0.1,0.8-0.4,0.9-0.6,1.5c-0.3,1,0.6,1.6,0,2.1
	c0.2,0.3,0.7,0.4,1,0.6C25,89,24.7,89,24.4,89.1c-0.1,1.2,0.5,1.6,1.3,1.9c0.1,0.4-0.3,0.3-0.1,0.7c0.5,0.4,0.7,1.2,1.5,1.3
	c0.3,0.7,0.7,1.1,0.7,2.1c-0.1,0.2-0.1,0.5-0.3,0.7c0.2,0.1,0.3,0.3,0.3,0.6c-0.4,0.7,0.2,1.5,0,2.4c-0.8,0.5-0.4,2.2-0.7,3.1
	c0.2,0.4,0.6-0.3,0.7,0.2c0.1,0.7-0.5,0.7-0.7,1c-0.2,0.5,0.4,0.1,0.3,0.6c-0.3,0.4,0.2,0.7-0.1,1.2c0.1,1,0.6,1.5,0.3,2.4
	c0.4,0.3,0.4,1.2,0.8,1.5c0,0.3,0.2,0.3,0.1,0.6c0.4,0.1,0.6,0.3,0.8,0.4c0.5-0.1,1.4,0.2,1.5-0.3c-0.4-0.1-0.6-0.3-0.8-0.6
	c0.1-0.5-0.6-0.2-0.4-0.7c0-0.7,0.4-0.8,0.4-1.3c0.4,0,0.5-0.2,0.6-0.6c0.1-0.5-0.5-0.4-0.4-0.9c0.4-0.5,0.9-1.9,0-2.1
	c0.9,0.3,0.9-0.5,1.1-1c0.8,0.1,1-0.4,1.5-0.6c0.1-0.7-0.2-1-0.3-1.5c0.4,0,0.7,0,1.1,0c0-0.2,0.2-0.1,0.3-0.2
	c0.1-0.4,0.1-0.8,0.6-0.7c-0.1-0.8,0.5-1,0.8-1.5c0-0.3,0-0.7,0-1c0.3-0.3,0.4-0.6,0.7-0.9c0.7-0.2,0.7-0.2,1.3-0.4
	c0.1-1,0.7-1.8,0.3-2.8c0.2-0.1,0.3-0.4,0.3-0.7c0.2,0,0.2-0.1,0.4-0.1c0.1-0.5,0.4-0.7,0.6-1c0.4-0.4,0-0.7,0.4-0.9
	c-0.1-0.5,0.1-0.5,0.1-0.9C39.4,88.4,39.2,88,39.1,87.6z M32.7,62.9c0.1,0.1-0.1,0.2-0.1,0.1C32.5,62.9,32.6,62.8,32.7,62.9z
	 M21.9,51.2c0.4,0.1-0.2,0.4-0.1,0.6C21.4,51.7,21.8,51.3,21.9,51.2z M21.4,52c0.4-0.1,0.5,0.3,1,0.2c0,0.6-0.5,0.6-1,0.7
	C21.4,52.6,21.4,52.3,21.4,52z M17,52.3c-0.1-0.1,0.1-0.2,0.1-0.2C17.2,52.2,17.1,52.3,17,52.3z M14.1,73.7c0-0.2,0.1-0.1,0.1,0
	C14.2,73.9,14.1,73.8,14.1,73.7z M14.2,74c0.3,0.1,0.3,0.5,0.6,0.6C14.6,75,14.1,74.5,14.2,74z"/>
<path id="XMLID_32527_" class="st0" d="M90.9,50.8c0.3-0.2,0.5-0.7,0.8-0.9c-0.5-0.1-0.6-0.7-1.1-0.6c-0.1,0-0.1,0.4-0.3,0.3
	c-0.3,0-0.6,0-0.8,0C89.3,50.7,90.5,50.3,90.9,50.8z"/>
<path id="XMLID_32526_" class="st0" d="M95.9,67.8c0.3,0,0.1,0.5,0.4,0.4c0.3-0.4,0.3-1.1,0.8-1.2c-0.7-0.1-1.2-0.5-2-0.6
	c0.1,0.7-0.2,1-0.1,1.6C95.5,68.5,95.4,67.7,95.9,67.8z"/>
<path id="XMLID_32525_" class="st0" d="M92.7,72.4c0,0.5,0.3,0.6,0.6,0.9c0.1-0.5,0.4-0.8,0.8-1c0.2,0,0.3,0.1,0.4,0.2
	c0.4-0.6,1.4-0.6,1.8-1.2c0-1.1-0.3-1.9-0.3-3c-0.2,0-0.4,0-0.6,0c0.2,0.7-0.1,1,0.1,1.8c-0.1,0-0.2,0.1-0.1,0.3
	c-0.5,0.2-0.7,0.4-1.3,0.9c-0.5,0.3-1.4,0.1-1.4,0.9c-0.1,0.4,0.8-0.1,0.7,0.3C93.3,72.4,93,72.4,92.7,72.4z"/>
<path id="XMLID_32524_" class="st0" d="M58.6,71.2c0,0.4,0.5,0.1,0.8,0.5c0.1-0.6-0.2-0.7-0.7-0.6C58.8,71.2,58.7,71.2,58.6,71.2z"
	/>
<path id="XMLID_32523_" class="st0" d="M89.8,76.3c0.2,0.2,0.4,0.5,0.4,0.9c0.6,0,0.5-0.7,0.6-1.3C90.4,75.5,89.9,75.9,89.8,76.3z"
	/>
<path id="XMLID_32522_" class="st0" d="M25.1,75.8c0,0.2,0,0.4,0,0.6c0.2,0,0.4,0,0.6,0C25.7,76.1,25.5,75.8,25.1,75.8z"/>
<path id="XMLID_32521_" class="st0" d="M26.7,76.6c0-0.3,0-0.6-0.1-0.7c-0.1,0-0.3,0-0.4,0C26.1,76.3,26.2,76.7,26.7,76.6z"/>
<path id="XMLID_32520_" class="st0" d="M26.8,76.4c0,0.2,0,0.5,0,0.7c0.3,0.1,0.4-0.1,0.6-0.2C27.4,76.6,27.2,76.4,26.8,76.4z"/>
<path id="XMLID_32519_" class="st0" d="M26.5,78.8c0.5-0.1,0.7,0.2,1,0.3c0-0.4,0.6-0.3,1-0.3c-0.2-1-1-0.9-1.8-0.9
	c0.1-0.4-0.3-0.3-0.3-0.6c-0.3-0.2-0.8-0.2-0.8-0.6c-0.7,0-1.4,0-2.1,0c-0.1,0.3-0.3,0.4-0.3,0.7c0.6,0.1,0.6-0.5,1.3-0.3
	c0.6,0.1,0.7,0.8,1.3,0.9c0.3,0.1,1-0.2,1.1,0.1C26.3,78.2,26.5,78.4,26.5,78.8z"/>
<path id="XMLID_32518_" class="st0" d="M27.9,77.2c0-0.2-0.3-0.1-0.6-0.2C27.1,77.6,28.1,77.7,27.9,77.2z"/>
<path id="XMLID_32517_" class="st0" d="M90.3,78.8c0.2,0.4,0.5,0.7,0.8,0.9c0.2-0.5,0.6-0.6,0.6-1.3C91.4,77.8,90.3,78.1,90.3,78.8z
	"/>
<path id="XMLID_32516_" class="st0" d="M87,79.3c0.4-0.1,0.4-0.6,0.6-0.9c-0.1-0.1-0.3-0.2-0.6-0.1C86.7,78.8,86.8,78.3,87,79.3z"/>
<path id="XMLID_32515_" class="st0" d="M25,78.5c0,0.2,0,0.4,0,0.6c0.5-0.2,0.5,0,1-0.1C26.1,78.4,25.4,78.5,25,78.5z"/>
<path id="XMLID_32514_" class="st0" d="M91.5,81.5c0.3,0.3,0.4-0.1,0.8,0c0,0.3-0.3,0.6,0.1,0.7c0.2-0.4,0.6-0.7,1.3-0.6
	c0.1-0.7-0.4-0.6-0.7-0.9c0-0.5-0.2-0.7-0.6-0.7c-0.2,0.2-0.1,0.6-0.1,1C91.8,80.8,91.7,81.1,91.5,81.5z"/>
<path id="XMLID_32513_" class="st0" d="M77.6,81.9c0.2,0.9-0.5,1.1,0,1.5c0.4,0.1,0.4-0.4,0.7-0.4C78.2,82.5,77.9,82.2,77.6,81.9z"
	/>
<path id="XMLID_30340_" class="st0" d="M86.9,86c0.1,0.6,0.7,0.7,0.7,1.5c0.9-0.2,0.8,0.7,1.7,0.4c0-0.3,0.4-0.2,0.4-0.4
	c-0.1,0-0.3,0-0.3-0.2c0.5-0.2,0.2-1.1,0.7-1.3c-0.3-0.5,0.1-1-0.1-1.3c0.2-0.1,0.5-0.3,0.4-0.7c-0.3-0.3-0.6-0.6-1.3-0.6
	C89,84.8,87.1,84.5,86.9,86z"/>
<path id="XMLID_30338_" class="st0" d="M84.2,84.9c-0.2-0.3-0.7-0.6-0.6-1c-0.4,0.1-0.3-0.3-0.6-0.3c0,0.7-0.3,0-0.7,0.1
	c0,1.7,2,1.4,1.7,3.4c0.7,0.1,0.9,1.1,1.5,0.7c0.3-0.6-0.3-1.2-0.3-1.9C84.9,85.7,84.4,85.2,84.2,84.9z"/>
<path id="XMLID_30337_" class="st0" d="M92,86.1c0-0.7-0.9-0.5-1.1-0.9c-0.7,0.6-1.2,2.3-0.1,2.8c0-0.4,0-0.8,0.3-0.9
	c0.3,0.3,0.3,0.8,0.8,0.5c-0.1-0.6-0.5-0.8-0.6-1.5C91.5,86.3,91.8,86.3,92,86.1z"/>
<path id="XMLID_30336_" class="st0" d="M95.1,85.5c-0.5-0.3-1.6-0.2-1.5,0.5C94,86.3,95.1,86.1,95.1,85.5z"/>
<path id="XMLID_30335_" class="st0" d="M96.6,86.1c-0.3,0-0.7,0-1,0c-0.1,0.2-0.2,0.5-0.6,0.4c-0.4,0.1-0.3-0.4-0.7-0.3
	c0,0.4-0.6,0.1-0.4,0.6c0,0.3,0.3-0.2,0.7,0c0.6,0.5,1.4,0.9,2,1.5c0,0.3,0,0.6,0,0.9c0.7-0.5,1,0.3,1.5,0.4c0.5,0,0.3-0.7,1-0.6
	c0.3,0.2,0.7,1.1,1.3,0.6c-0.3-0.1-0.4-0.4-0.4-0.9c-0.4-0.4-0.9-0.6-1.1-1c0-0.1,0-0.3,0-0.5C97.8,87.3,97.5,86.4,96.6,86.1z"/>
<path id="XMLID_30334_" class="st0" d="M89.2,89.5c0.1-0.5-0.5-0.4-0.4-0.9c-1.1,0-1.9-0.3-2.8-0.6c-0.1,0.3-0.4,0.4-0.3,0.9
	C87.1,89,87.7,89.7,89.2,89.5z"/>
<path id="XMLID_30333_" class="st0" d="M99.6,95.4c0.1-0.7-0.2-1-0.1-1.8c-0.3-0.1-0.3-0.4-0.6-0.6c0-1.1-1-1.3-0.8-2.7
	c-0.3,0-0.3-0.2-0.6-0.2c-0.4,0.6,0.2,2.2-0.4,2.5c-0.5,0.2-0.3-0.5-0.8-0.3c0-0.4-0.7-0.2-0.6-0.7c-0.1-0.5,0.7-0.1,0.6-0.6
	c-0.5-0.6-1.9-0.2-2.6-0.5c-0.2,0.1,0,0.7-0.3,0.7c-0.5,0.1-1,0.2-1.4,0.5c-0.2,0.5,0,1.2-0.6,1.3c-0.3-0.4-0.7,0-1.1,0
	c-0.3,0.1,0,0.8-0.3,0.9c-0.3-0.1-0.3-0.4-0.6-0.1c-0.3,0.4-0.2,1.3-0.7,1.5c-0.3,0.2-0.9,0.1-1.1,0.4c0.1,0.7,0.5,1.5,0.1,2.2
	c0.3,0.1,0.4,0.4,0.4,0.7c0.1,0.7-0.2,0.9-0.1,1.6c0.4,0,0.4,0.3,0.8,0.3c0.6-0.3,0.9-0.8,2-0.6c0.5-0.7,1.5-0.8,2.7-0.7
	c0.4,0.3,0.7,0.8,0.8,1.3c0.5-0.3,0.4,0.3,1,0c0,0.4,0.1,0.8-0.1,1c0.9,0.6,1.4,0.6,2.8,0.6c0.4-0.3,0.6-0.6,1.1-0.8
	c-0.1-0.8,0.7-0.7,0.6-1.5c0.5,0,0.4-0.7,0.8-0.7c-0.2-0.5,0.2-0.8,0.3-1.3c0.1-0.9-0.3-1.8-0.4-2.7C99.9,95.2,99.7,95.8,99.6,95.4z
	"/>
<path id="XMLID_30095_" class="st0" d="M107.2,100.7c0-0.4,0-0.8-0.4-0.7c0,0.4,0,0.8,0,1.2c-0.1,0.4-0.7,0.4-0.6,1.1
	c0.9-0.1,0.3,0.4,0.3,0.9c0.9,0,0.9-1,1.3-1.6c0.2-0.2,0.6-0.3,0.7-0.6C108.2,100.4,107.9,100.8,107.2,100.7z"/>
<path id="XMLID_30094_" class="st0" d="M105.7,102.5c-0.1,0.3-0.4,0.4-0.4,0.9c-0.2,0-0.4,0-0.6,0.1c-0.2,0.3-0.3,0.7-0.7,0.9
	c-0.6,0.2-0.7,0.9-1,1.5c0.5-0.2,0.8-0.1,1.3,0c0.1-0.4,0.6-0.4,0.4-1c0.2,0,0.4,0,0.6,0c0-0.8,1.1-0.6,1.1-1.5
	C106.4,102.9,106,102.8,105.7,102.5z"/>
<path id="XMLID_30093_" class="st0" d="M96.2,103c-0.2,0.2,0.5,0.9,0.6,1.3c0.7-0.1,1.1-0.4,1-1.3C97.1,103.1,96.5,102.8,96.2,103z"
	/>
<path id="XMLID_30092_" class="st0" d="M33,107.6c0.2,0,0.4,0,0.6,0C33.6,107,32.9,107.1,33,107.6z"/>
<path id="XMLID_30080_" class="st0" d="M104.2,54.7c0.3,0,0.3-0.5,0.7-0.4c0.7,0,0.6,0.9,1.5,0.7c0.2-0.3-0.1-0.7,0.1-1.2
	c-0.4-0.2-0.9-1-1.3-0.3c0-0.3,0-0.6-0.1-0.7c-0.8-0.3-1.2-1-2.4-0.7c-0.2-0.3-0.5-0.3-0.7-0.6c-0.9,0.1-1.1-0.5-2.1-0.3
	c-0.2,0.4,0.4,0.8,0,0.9c-0.4-0.1-0.3-0.6-0.7-0.7c-0.4,0.5-1.2,0-2,0.3c-0.5-0.3-0.5-1.3-1.5-1c-0.2,0,0,0.4-0.3,0.4
	c-0.6-0.3-1.2-0.6-1.7-0.9c-0.1,0.1-0.1,0.3-0.3,0.3c0.2-0.6-0.3-0.4-0.7-0.4c0.3-0.4-0.2-0.3-0.3-0.6c-0.7,0.3-0.6-0.1-1.3-0.1
	c0,0.2-0.4,0.1-0.6,0.1c-0.1,0.3,0.4,0.5,0,0.6c-1.2-0.2-2.7,0.3-3.8,0c-0.4-0.1-0.5-0.6-0.8-0.4c-0.6,0.2-1.1-0.2-1.5-0.3
	c-0.2-0.1-0.4,0-0.6,0c-0.4-0.1-0.6-0.5-1.4-0.3c0.1-0.4,0.4-0.4,0.4-0.9c-0.2-0.4-0.6-0.6-0.8-1c-0.4,0.2-1.1,0.2-1.7,0.2
	c-0.3-0.1-0.3-0.7-0.8-0.6c-0.3,0.1-0.4,0.5-0.4,1c-0.7-0.2-0.4,0.5-1,0.4c-0.3-0.1-0.1-0.6-0.6-0.4c-0.4,0.4-0.9,0.7-1.7,0.6
	c-0.2,0.2-0.4,0.5-0.8,0.5c-0.2,0.2-0.1,0.7-0.4,0.7c-0.3,0.1-1-0.2-0.8,0.3c0,0.5,0.8,0.2,0.7,0.9c-0.5-0.2-0.7-0.7-1.4-0.6
	c0,0.4,0.1,0.9-0.3,0.9c-0.2-0.2-0.2-0.5-0.1-0.9c-0.5-0.1-0.2,0.6-0.8,0.4c-0.2-0.3-0.2-0.8-0.8-0.6c-0.4,0.6-0.9,1.1-1.4,1.6
	c-0.9,0.1-0.8-0.3-1.8-0.3c-0.2,0.7,0.7,0.2,0.6,0.9c-0.6-0.1-1.2,0.1-2.1,0c-0.6,0.3-1,0.8-1.7,1c0-0.3,0-0.6,0-0.9
	c-0.3,0-0.7,0-0.8-0.1c0,0.8,0,1.6-0.8,1.5c0,0.6-0.5,0.4-0.8,0.6c-0.3,0.2,0.2,0.4-0.1,0.6c-0.8,0.2-0.9-1.1-0.8-1.3
	c0.6,0,1.4-0.1,1.8,0.1c0.4-0.9-0.8-1.4-1.7-1.5c-0.2-0.4-0.6-0.6-1.1-0.6c-0.2-0.3-0.4-0.7-0.7-0.9c-0.4,0-0.8,0-1.3,0
	c-0.4,0.3-0.7,0.6-1.1,0.9c-0.1-0.2-0.2,0.1-0.4,0c-0.5,0.6-1.1,1-1.7,1.5c-0.2,0.7-0.4,1.2-0.8,1.6c0-0.2-0.3-0.1-0.4-0.1
	c0,0.2,0,0.4,0,0.6c-0.9,0.1-1,0.9-1.3,1.6c0.3,0.4,0.3,1,0.3,1.6c0.1,0.4,0.9,0.2,1.1,0.5c-0.3,0.4-0.6,0.6-0.6,1
	c0.3-0.1,0.3,0.2,0.3,0.4c-0.5,0-0.8,0.2-1.3,0.3c-0.1,0.3-0.4,0.4-0.3,0.9c-0.8-0.3-0.3,0.9-1,0.7c0,0.2,0,0.3-0.1,0.3
	c-0.6-0.1-0.7,0.4-1.1,0.6c-0.3,0.1-0.7,0.1-0.7,0.6c0.2,0.2,0.6,0.1,1,0.2c-0.1,0.7,0.6,0.5,0.6,1.2c-0.1,0.2-0.1,0.6-0.4,0.6
	c-0.6-0.4-1.2,0.1-2.1,0c-0.1,0.5,0.3,1.6-0.3,1.6c0.1,0.4,0.4,0.6,0.3,1.3c0.6-0.1,0.8,0.2,1.3,0.3c0.5-0.3,0.6-0.3,1.1,0
	c0.3-0.6,0.8-1,0.7-2.1c0.6-0.2,0.5-1.1,1.3-1.2c0.6,0.4,0.8-0.1,1.4-0.1c-0.4,0.6-0.2,1.5,0,2.2c0.9-0.1,0.3-0.8,0.4-1.6
	c-0.1,0-0.2-0.3,0-0.3c0,0.1,0,0.2,0,0.3c0.3,0,0.3,0.4,0.4,0.6c0.7,0,1.1,0.3,1.3,0.9c0,0.3-0.3,0.3-0.7,0.3c0,0.5,0.5,0.5,0.7,0.7
	c-0.1-0.7,0.4-0.8,0.7-1c0.1-0.3-0.3-0.2-0.3-0.5c0.3-0.5,0.5,0.5,0.7,0c-0.4-0.8-2.1-0.9-1.7-2.1c0.4,0.7,1.2,1,1.7,1.6
	c0.1,0.1,0.2,0.5,0.3,0.6c0.1,0.2,0.3,0.4,0.3,0.6c0,0.3,0,0.6,0,0.9c0.2,0.2,0.6,0.1,1,0.2c0.2-0.5-0.3-1.2,0.1-1.8
	c0.1,0,0.3,0,0.4,0c-0.2,0.6,0,0.6-0.1,1.2c0.3-0.1,0.2,0.4,0.4,0.6c0.5,0.4,1.4,0.3,1.8,0c0.4,0.2-0.4,0.8,0.3,0.7
	c0.6,0.1,0-1,0.7-0.7c0,0.3,0,0.6,0,0.9c-0.4,0.3-0.1,1.3-0.7,1.3c-1-0.4-2.3-0.5-3.6-0.6c-0.4,0.1-0.3,0.7-0.7,0.9
	c-0.6-0.7-1.9-0.7-2.5-1.5c0.1-0.5-0.2-0.6-0.3-0.9c0.3,0,0.3-0.4,0.1-0.6c-0.8,0-1.5,0.2-2.1,0.4c-1.1-0.1-2.1,0-2.7,0.6
	c-0.1-0.3-0.4-0.5-0.8-0.5c-0.1,0.5-0.6,0.6-1,0.9c-0.4,0.7-0.2,1.6-0.6,2.2c-0.2,0.4-1,0.8-1.3,1.2c0,0.9-0.3,1.4-0.7,1.9
	c0,1.3,0,2.6,0,3.9c0.5,0.6,0.9,1.2,1.1,2.1c0.6,0.4,1.1,1,2,1.2c0.6-0.1,1.2-0.2,2-0.1c0.3-0.2,0.3-0.8,0.8-0.7
	c0.2,0,0.1,0.5,0.3,0.6c0.6-0.1,0.9,0.2,1.4,0.3c0.2-0.1,0.4-0.4,0.8-0.3c0.1,1.2-0.3,1.7-0.3,2.7c0.4,0.8,1.1,1.3,0.8,2.4
	c0.4,0.5,0.4,1.4,0.6,2.1c-0.3,0.7-0.3,1.8-0.6,2.5c0.6,0.6,1,1.4,1.3,2.4c0,0.4,0,0.9,0,1.3c0.6,0.8,0.6,2.2,1.3,3
	c1.3-0.1,2-0.9,3.2-1.2c0.2-0.8,0.6-1.4,1.3-1.8c-0.1-0.6,0.3-0.7,0.1-1.3c0.3-0.1,0.4-0.4,0.8-0.3c0-1.7,0.6-2.8,1.7-3.4
	c0.2-1.2,0.2-3,0-4.2c0.3-0.6,0.5-1.2,0.7-1.9c0.3-0.2,0.6-0.5,1-0.7c0.7-1,1.3-2.1,2-3.1c0.1-0.6,0.3-1.3-0.1-1.6
	c-0.6-0.1-0.6,0.5-1.1,0.4c-0.4,0-0.8,0-1.3,0c-0.1-1-0.8-1.4-1.3-1.9c0.1-1-0.8-0.8-0.6-1.9c-0.2-0.3-0.7-0.5-0.8-0.9
	c0.1-0.4-0.2-1.2,0-1.2c0.3,0.3,0.7,1,0.6,1.3c0.6,0.6,1,1.4,1.5,2.1c0.3,0.6,0.3,1.6,1,2.1c1-0.3,1.7-1,2.8-1.2
	c0.2-0.1,0-0.6,0.3-0.6c0.6-0.1,0.9-0.6,1.4-0.8c-0.1-0.7,0.4-0.7,0.4-1.2c-0.2-0.5-1-0.6-0.8-1.5c-0.5-0.1-0.9,0-1.1,0.3
	c-0.1-0.6-0.6-0.7-0.6-1.5c-0.5,0-0.4-0.5-0.7-0.6c0.2-0.1,0.4-0.2,0.6-0.3c0.8,0.5,0.5,2.1,2,1.9c0.1,0.3,0.4,0.3,0.3,0.7
	c0.7,0.1,0.8-0.5,1.4-0.4c0.1,0.1,0.1,0.3,0.4,0.3c1-0.2,1.2,0.5,1.8,0.7c-0.2-0.1-0.3,0.1-0.3,0.3c0.1,0.3,0.6,0.2,0.8,0.4
	c-0.1,0.5,0.2,0.5,0.1,1c0.4,0.5,0.6,1.2,0.8,1.9c0.3,0.3,0.6,0.6,0.7,1c0,0.3,0,0.6,0,0.9c0.2,0.2,0.6,0.1,1,0.1
	c0.2-1,0.7-1.6,0.6-2.8c0.2,0,0.4,0,0.6,0c0-0.2,0-0.4,0-0.6c0.5,0.2,0.3-0.4,0.7-0.3c0-0.7,0.5-0.8,0.7-1.2
	c0.3-0.3,0.7-0.5,1.3-0.6c0.3,0.4,0.3,1.2,0.8,1.3c0,0.4-0.3,0.3-0.1,0.7c0.2,0.5,1.1,0.1,1.4,0.4c-0.2,0.3,0.1,0.4-0.1,0.9
	c0.4,0.2,0.6,0.4,0.7,0.9c-0.1,0.3-0.4,0.3-0.3,0.7c0,0.5,0.4,0.5,0.3,1.2c0.7,0.6,1.3,1.3,2.1,1.8c0-1-0.7-1.2-0.7-2.1
	c-0.4-0.3-0.8-0.6-1-1c0.1-0.5-0.2-1.3,0.3-1.3c0.3,0.4,0.5,0.9,1.1,1c0.1,0.1,0.1,0.3,0.1,0.6c1.4-0.2,1.7-1.5,1.5-3.3
	c-0.2-0.2-0.5-0.1-0.7-0.3c0.2-0.7-0.7-0.6-0.3-1c0.4-0.4,0.4,0.5,1,0.3c0.1-0.6,0.8-0.6,1.5-0.6c0.4-0.7,1-1.3,1.3-2.2
	c0.2,0,0.2-0.1,0.4-0.1c0.2-0.6,0-1.7,0.4-2.1c-0.3-0.1-0.4-0.4-0.4-0.9c-0.2-0.2-0.5-0.3-0.6-0.7C89.7,69,90,69,89.8,68.6
	c0.3,0,0.4,0,0.4-0.3c0.4-0.2-0.6-0.9,0.3-0.9c0.2,0.5,0.6,0.6,0.8,1c-0.1,0.8,0.3,1,0.7,1.2c0.8-0.6,0-2.3,0.4-3.4
	c0.3-0.3,0.7-0.4,1.1-0.6c0.3-0.7,0.6-1.4,1.1-1.9c0.2-1.2-0.3-2.4,0-3.3c-0.2,0.9,0.3,1,0.4,1.5c0,0.9,0.1,1.8,0.7,2.1
	c0.3-0.3-0.1-0.4,0-0.9c0.4,0,0.3,0.2,0.6,0c0-0.5-0.4-0.5-0.3-1c-0.5-0.1-0.6-0.6-0.8-1c-0.1-0.5,0.1-1.2-0.4-1.3
	c-0.3,0,0,0.7-0.4,0.6c-0.2-1.1-1.2,0.7-1.5-0.4c0.1-0.3,0.4-0.5,0.6-0.7c0.2-0.5,0.1-1.2,0.6-1.3c0.3,0.4,0.3-0.2,0.7-0.1
	c0.7,0.1,1.3,0.4,2.1,0.3c0,0.3,0.1,0.3,0.3,0.3c0.2-0.2,0.6-0.1,1-0.2c0.1-0.5-0.2-0.5-0.1-1c0.3,0,0.3-0.4,0.6-0.4
	c0.3,0,0.3,0.4,0.6,0.4c-0.1-0.3,0.4-0.8,0.6-0.4c-0.4,1-1.1,1.7-1.3,3c0.1,0.4,0.4,0.6,0.6,0.9c0.1,0.6,0.2,1.1,0.6,1.3
	c0.3-0.4,0.6-0.9,1-1.2c-0.1-0.7,0.4-0.6,0.1-1.2c0-0.3,0.4-0.3,0.4-0.6c-0.2-0.2-0.6-0.1-0.6-0.6c0.1-1.3,1.1-1,2.1-0.9
	c0.2-0.2,0.2-0.7,0.4-0.9c0.8-0.1,1.4-0.5,1.9-0.5C104.9,55.3,104.2,55.3,104.2,54.7z M57.3,56.3c0.3,0.3,0.6,0.5,1.1,0.6
	c0,0.5,0,1,0,1.5c-0.3-0.1,0.1-0.9-0.6-0.6c-0.3,0.5-0.1,1.6-0.6,1.9c-0.5,0-0.8-0.1-1.1,0c-0.4,0.1-0.5,0.4-0.8,0.4
	c0-0.2-0.4-0.5-0.4-0.2c-0.3,0-0.3-0.4,0-0.4c-0.3-0.4-0.5-0.8-0.6-1.5c0.7,0.1,0.4,2.1,1.7,1.5c0.3-0.6,0.5-1.3,0.8-1.9
	c0-0.3-0.2-0.6-0.3-0.9c0.1-1.4,1.1-1.8,1.5-2.8c0.2,0,0.3,0,0.3,0.2C58.3,55.1,57.2,55.1,57.3,56.3z M58.9,57.4
	c0-0.5,0.5-0.4,0.8-0.4C59.7,57.4,59.3,57.4,58.9,57.4z M60,51.6c-0.1-0.1,0.1-0.2,0.1-0.2C60.2,51.5,60,51.6,60,51.6z M62.5,73
	c-0.1-0.1,0.1-0.2,0.1-0.2C62.7,73,62.5,73.1,62.5,73z M62.6,54.5c-0.1-0.1,0.1-0.2,0.1-0.1C62.8,54.5,62.7,54.6,62.6,54.5z
	 M73,52.2c-0.3-0.1-0.6,0-0.6-0.4c-0.4,0,0.1-0.6,0,0C72.5,52,73.1,51.7,73,52.2z M81.6,49.5c-0.1-0.1,0.1-0.2,0.1-0.2
	C81.8,49.4,81.6,49.5,81.6,49.5z M82,49.3c-0.1-0.1,0.1-0.2,0.1-0.1C82.2,49.3,82.1,49.4,82,49.3z M82.4,49
	c-0.1-0.1,0.1-0.2,0.1-0.2C82.7,49,82.5,49.1,82.4,49z M88.7,67.8c0.2-0.3,0.3-0.7,0.8-0.6c0,0.2-0.1,0.6,0.1,0.6
	C89.5,68.3,89.1,67.7,88.7,67.8z"/>
<path id="XMLID_30079_" class="st0" d="M91,48.6c0.3-0.2,0.5-0.7,0.8-0.9c-0.5-0.1-0.6-0.7-1.1-0.6c-0.1,0-0.1,0.4-0.3,0.3
	c-0.3,0-0.6,0-0.8,0C89.4,48.5,90.6,48.1,91,48.6z"/>
<path id="XMLID_30078_" class="st0" d="M96,65.6c0.3,0,0.1,0.5,0.4,0.4c0.3-0.4,0.3-1.1,0.8-1.2c-0.7-0.1-1.2-0.5-2-0.6
	c0.1,0.7-0.2,1-0.1,1.6C95.5,66.3,95.5,65.5,96,65.6z"/>
<path id="XMLID_30077_" class="st0" d="M92.8,70.2c0,0.5,0.3,0.6,0.6,0.9c0.1-0.5,0.4-0.8,0.8-1c0.2,0,0.3,0.1,0.4,0.2
	c0.4-0.6,1.4-0.6,1.8-1.2c0-1.1-0.3-1.9-0.3-3c-0.2,0-0.4,0-0.6,0c0.2,0.7-0.1,1,0.1,1.8c-0.1,0-0.2,0.1-0.1,0.3
	c-0.5,0.2-0.7,0.4-1.3,0.9c-0.5,0.3-1.4,0.1-1.4,0.9c-0.1,0.4,0.8-0.1,0.7,0.3C93.3,70.2,93.1,70.2,92.8,70.2z"/>
<path id="XMLID_30076_" class="st0" d="M89.8,74.1c0.2,0.2,0.4,0.5,0.4,0.9c0.6,0,0.5-0.7,0.6-1.3C90.5,73.3,90,73.7,89.8,74.1z"/>
<path id="XMLID_30075_" class="st0" d="M25.2,73.6c0,0.2,0,0.4,0,0.6c0.2,0,0.4,0,0.6,0C25.7,73.9,25.6,73.7,25.2,73.6z"/>
<path id="XMLID_30074_" class="st0" d="M26.7,74.4c0-0.3,0-0.6-0.1-0.7c-0.1,0-0.3,0-0.4,0C26.1,74.1,26.2,74.5,26.7,74.4z"/>
<path id="XMLID_30073_" class="st0" d="M26.9,74.2c0,0.2,0,0.5,0,0.7c0.3,0.1,0.4-0.1,0.6-0.2C27.4,74.5,27.2,74.2,26.9,74.2z"/>
<path id="XMLID_30072_" class="st0" d="M28,75c0-0.2-0.3-0.1-0.6-0.2C27.1,75.4,28.1,75.5,28,75z"/>
<path id="XMLID_30071_" class="st0" d="M90.4,76.6c0.2,0.4,0.5,0.7,0.8,0.9c0.2-0.5,0.6-0.6,0.6-1.3C91.4,75.6,90.4,75.9,90.4,76.6z
	"/>
<path id="XMLID_30070_" class="st0" d="M87.1,77.1c0.4-0.1,0.4-0.6,0.6-0.9c-0.1-0.1-0.3-0.2-0.6-0.1C86.8,76.6,86.9,76.1,87.1,77.1
	z"/>
<path id="XMLID_30069_" class="st0" d="M25.1,76.3c0,0.2,0,0.4,0,0.6c0.5-0.2,0.5,0,1-0.1C26.1,76.2,25.5,76.3,25.1,76.3z"/>
<path id="XMLID_30068_" class="st0" d="M91.5,79.3c0.3,0.3,0.4-0.1,0.8,0c0,0.3-0.3,0.6,0.1,0.7c0.2-0.4,0.6-0.7,1.3-0.6
	c0.1-0.7-0.4-0.6-0.7-0.9c0-0.5-0.2-0.7-0.6-0.7c-0.2,0.2-0.1,0.6-0.1,1C91.9,78.6,91.8,78.9,91.5,79.3z"/>
<path id="XMLID_30067_" class="st0" d="M77.7,79.8c0.2,0.9-0.5,1.1,0,1.5c0.4,0.1,0.4-0.4,0.7-0.4C78.3,80.3,78,80,77.7,79.8z"/>
<path id="XMLID_30066_" class="st0" d="M84.3,82.7c-0.2-0.3-0.7-0.6-0.6-1c-0.4,0.1-0.3-0.3-0.6-0.3c0,0.7-0.3,0-0.7,0.1
	c0,1.7,2,1.4,1.7,3.4c0.7,0.1,0.9,1.1,1.5,0.7c0.3-0.6-0.3-1.2-0.3-1.9C85,83.5,84.5,83,84.3,82.7z"/>
<path id="XMLID_30065_" class="st0" d="M92.1,83.9c0-0.7-0.9-0.5-1.1-0.9c-0.7,0.6-1.2,2.3-0.1,2.8c0-0.4,0-0.8,0.3-0.9
	c0.3,0.3,0.3,0.8,0.8,0.5c-0.1-0.6-0.5-0.8-0.6-1.5C91.6,84.1,91.9,84.1,92.1,83.9z"/>
<path id="XMLID_30064_" class="st0" d="M95.2,83.3c-0.5-0.3-1.6-0.2-1.5,0.5C94.1,84.1,95.1,84,95.2,83.3z"/>
<path id="XMLID_30063_" class="st0" d="M96.7,83.9c-0.3,0-0.7,0-1,0c-0.1,0.2-0.2,0.5-0.6,0.4c-0.4,0.1-0.3-0.4-0.7-0.3
	c0,0.4-0.6,0.1-0.4,0.6c0,0.3,0.3-0.2,0.7,0c0.6,0.5,1.4,0.9,2,1.5c0,0.3,0,0.6,0,0.9c0.7-0.5,1,0.3,1.5,0.4c0.5,0,0.3-0.7,1-0.6
	c0.3,0.2,0.7,1.1,1.3,0.6c-0.3-0.1-0.4-0.4-0.4-0.9c-0.4-0.4-0.9-0.6-1.1-1c0-0.1,0-0.3,0-0.5C97.9,85.1,97.6,84.2,96.7,83.9z"/>
<path id="XMLID_30062_" class="st0" d="M89.3,87.4c0.1-0.5-0.5-0.4-0.4-0.9c-1.1,0-1.9-0.3-2.8-0.6c-0.1,0.3-0.4,0.4-0.3,0.9
	C87.1,86.8,87.8,87.5,89.3,87.4z"/>
<path id="XMLID_30061_" class="st0" d="M67.1,88.4c-0.2,0.4-0.5,0.9-0.6,1.5c-0.6,0.1-0.9,0.6-1.3,1c-0.1,0.5,0.2,0.6,0.1,1
	c-0.1,0.3-0.2,0.7-0.4,0.9c0.3,0.7-0.1,1.3,0.4,1.8c0.5,0,0.6-0.3,1.1-0.2c0.3-0.7,0.2-1,0.6-1.6c0-0.3,0-0.5,0-0.7
	c0-0.2,0.2-0.2,0.3-0.3c-0.3-0.7,0.3-1.3,0.3-2.4C67.1,89.5,67.7,88.3,67.1,88.4z"/>
<path id="XMLID_30060_" class="st0" d="M107.3,98.5c0-0.4,0-0.8-0.4-0.7c0,0.4,0,0.8,0,1.2c-0.1,0.4-0.7,0.4-0.6,1.1
	c0.9-0.1,0.3,0.4,0.3,0.9c0.9,0,0.9-1,1.3-1.6c0.2-0.2,0.6-0.3,0.7-0.6C108.2,98.2,108,98.6,107.3,98.5z"/>
<path id="XMLID_30059_" class="st0" d="M105.8,100.3c-0.1,0.3-0.4,0.4-0.4,0.9c-0.2,0-0.4,0-0.6,0.1c-0.2,0.3-0.3,0.7-0.7,0.9
	c-0.6,0.2-0.7,0.9-1,1.5c0.5-0.2,0.8-0.1,1.3,0c0.1-0.4,0.6-0.4,0.4-1c0.2,0,0.4,0,0.6,0c0-0.8,1.1-0.6,1.1-1.5
	C106.4,100.7,106.1,100.6,105.8,100.3z"/>
<path id="XMLID_30058_" class="st0" d="M33,105.4c0.2,0,0.4,0,0.6,0C33.7,104.8,33,104.9,33,105.4z"/>
<path id="XMLID_30055_" class="st1" d="M60.7,0c-10.5,0-19,8.5-19,19c0,3.1,0.7,6,2,8.6l1.1,1.9l15.8,27.1l15.9-27.2l1-1.7
	c0,0,0,0,0,0c0,0,0,0,0-0.1c1.3-2.6,2-5.5,2-8.6C79.6,8.5,71.1,0,60.7,0z M60.7,11.9c3.9,0,7.1,3.2,7.1,7.1c0,3.9-3.2,7.1-7.1,7.1
	c-3.9,0-7.1-3.2-7.1-7.1C53.6,15,56.7,11.9,60.7,11.9z"/>
<path id="XMLID_30052_" class="st2" d="M60.7,7.1c-6.6,0-11.9,5.3-11.9,11.9c0,6.6,5.3,11.9,11.9,11.9c6.6,0,11.9-5.3,11.9-11.9
	C72.6,12.4,67.2,7.1,60.7,7.1z M60.7,26.1c-3.9,0-7.1-3.2-7.1-7.1c0-3.9,3.2-7.1,7.1-7.1c3.9,0,7.1,3.2,7.1,7.1
	C67.8,22.9,64.6,26.1,60.7,26.1z"/>
<path id="XMLID_30048_" class="st1" d="M77.4,34.4c-2.5,0-4.5,2-4.5,4.5c0,0.7,0.2,1.4,0.5,2l0.3,0.5l3.7,6.4l3.8-6.4l0.2-0.4
	c0,0,0,0,0,0c0,0,0,0,0,0c0.3-0.6,0.5-1.3,0.5-2C81.8,36.4,79.8,34.4,77.4,34.4z M77.4,37.2c0.9,0,1.7,0.8,1.7,1.7
	c0,0.9-0.8,1.7-1.7,1.7c-0.9,0-1.7-0.8-1.7-1.7C75.7,38,76.4,37.2,77.4,37.2z"/>
<path id="XMLID_30045_" class="st2" d="M77.4,36.1c-1.6,0-2.8,1.3-2.8,2.8c0,1.6,1.3,2.8,2.8,2.8c1.6,0,2.8-1.3,2.8-2.8
	C80.2,37.3,78.9,36.1,77.4,36.1z M77.4,40.6c-0.9,0-1.7-0.8-1.7-1.7c0-0.9,0.8-1.7,1.7-1.7c0.9,0,1.7,0.8,1.7,1.7
	C79,39.8,78.3,40.6,77.4,40.6z"/>
<path id="XMLID_30041_" class="st1" d="M46.6,42c-4.4,0-8,3.6-8,8c0,1.3,0.3,2.5,0.9,3.6l0.5,0.8l6.6,11.4l6.7-11.4l0.4-0.7
	c0,0,0,0,0,0c0,0,0,0,0,0c0.5-1.1,0.9-2.3,0.9-3.6C54.6,45.6,51,42,46.6,42z M46.6,47c1.6,0,3,1.3,3,3c0,1.6-1.3,3-3,3
	c-1.6,0-3-1.3-3-3C43.6,48.4,45,47,46.6,47z"/>
<path id="XMLID_30038_" class="st2" d="M46.6,45c-2.8,0-5,2.2-5,5c0,2.8,2.2,5,5,5c2.8,0,5-2.2,5-5C51.6,47.2,49.4,45,46.6,45z
	 M46.6,53c-1.6,0-3-1.3-3-3c0-1.6,1.3-3,3-3c1.6,0,3,1.3,3,3C49.6,51.6,48.3,53,46.6,53z"/>
</svg>
