<?xml version="1.0" encoding="utf-8"?>
<!-- Generator: Adobe Illustrator 21.0.2, SVG Export Plug-In . SVG Version: 6.00 Build 0)  -->
<svg version="1.1" id="Layer_1" xmlns="http://www.w3.org/2000/svg" xmlns:xlink="http://www.w3.org/1999/xlink" x="0px" y="0px"
	 viewBox="0 0 122.9 92" style="enable-background:new 0 0 122.9 92;" xml:space="preserve">
<style type="text/css">
	.st0{fill:#606060;}
	.st1{fill:#377BF1;}
</style>
<path class="st0" d="M40.1,27.5 M44.1,19.6c-4.4,0-7.9,3.6-7.9,7.9s3.6,7.9,7.9,7.9s7.9-3.6,7.9-7.9S48.5,19.6,44.1,19.6L44.1,19.6z
	"/>
<path class="st0" d="M122.7,7.7c-0.1-0.7-0.5-3.4-2.9-5.6c-1.9-1.7-4-2-4.8-2.1C79.2,0,43.4,0,7.7,0C3.4,0,0,3.4,0,7.7v76.7
	C0,88.6,3.4,92,7.7,92c18.3,0,36.7,0,55,0c-0.6-2.3-0.9-4.7-0.9-7.2c0-0.2,0-0.3,0-0.5c-0.2,0-0.5,0-0.7,0c-18.2,0-36.3,0-54.5,0
	c0-5,0-10,0-15l3.1-2.9l-3.1-2.9v0l3.1,2.9l5.4-4.9l0.9-0.8c1.3-1.2,2.6-2.4,3.9-3.6L17,54.5c0.5,0.4,0.9,0.8,1.4,1.3l1.5,1.4
	c2.7-2.5,5.4-5,8.1-7.5c0.8,0.7,1.7,1.4,2.5,2c1.1,0.9,2.3,1.9,3.4,2.8c0.1,0,0.1,0.1,0.2,0.1l16.3,13.5l4.2,3.5l4.2-3.6l-4.2-3.5
	l-20.5-17c-2-1.7-4.1-3.3-6.1-5c-4,3.7-8,7.4-11.9,11.1l-0.9,0.8l-8.5,7.8c0-18.2,0-36.4,0-54.6H114c0,15.4,0,30.8,0,46.1l-6.3-5.4
	l-8.1-7l-8.8-7.6l-0.3-0.3L72.9,48.7L54.6,64.5l4.2,3.5l8.5-7.4l5.5-4.8l17.5-15.2l0.3,0.3l3.3,2.8l2,1.7l1.8,1.6l1.7,1.5l8.1,7
	l6.3,5.4l0,0c0,0,0,0,0,0c1.5,1.3,3.2,2.9,4.8,4.9c1.5,1.7,2.7,3.4,3.7,5c0-2.2,0.1-4.3,0.1-6.5C123,45.2,123,26.3,122.7,7.7z"/>
<g>
	<path class="st1" d="M122,86.2h-6.9c-0.1,2-0.5,4-1.2,5.8h1.1h6.2c0.5-1.9,0.8-3.8,0.9-5.8H122z"/>
	<path class="st1" d="M91.1,80.9c-1.2,0.7-2.1,2-2.3,3.4c0,0.2,0,0.4,0,0.5c0,2.5,2.1,4.6,4.6,4.6c1.8,0,3.3-1,4.1-2.5l0,0l1.5-2.6
		l6.9-12.5L91.1,80.9L91.1,80.9z"/>
	<path class="st1" d="M94.1,55.9v7c5.8,0.4,9.2,2.2,12.6,5.1l5.1-4.9C107.1,58.9,101,56.3,94.1,55.9z"/>
	<path class="st1" d="M90.6,62.9v-7C75.8,56.8,64,69.2,63.7,84.3c0,0,0,0,0,0c0,0.2,0,0.4,0,0.5c0,2.4,0.3,4.8,0.9,7.1c0,0,0,0,0,0
		h7.3c-0.8-2.2-1.2-4.6-1.2-7.1c0-0.2,0-0.3,0-0.5C70.9,73,80.4,63.8,90.6,62.9z"/>
	<path class="st1" d="M122.1,82.7c-0.5-6.9-3.2-12.6-7.4-17.3l-1.1,1.1l-3.8,3.8c1.6,1.8,2.9,3.9,3.8,6.2c0.8,2,1.4,4.1,1.6,6.2
		H122.1z"/>
</g>
</svg>
