<?xml version="1.0" encoding="utf-8"?>
<!-- Generator: Adobe Illustrator 21.0.2, SVG Export Plug-In . SVG Version: 6.00 Build 0)  -->
<svg version="1.1" id="Layer_1" xmlns="http://www.w3.org/2000/svg" xmlns:xlink="http://www.w3.org/1999/xlink" x="0px" y="0px"
	 width="109.8px" height="110px" viewBox="0 0 109.8 110" style="enable-background:new 0 0 109.8 110;" xml:space="preserve">
<style type="text/css">
	.st0{fill:#EA395D;}
</style>
<g>
	<g>
		<g>
			<g id="XMLID_77_">
				<g>
					<path id="XMLID_78_" class="st0" d="M76.3,110H33.4C15,110,0,95,0,76.6V33.4C0,15,15,0,33.4,0h42.9c18.4,0,33.4,15,33.4,33.4
						v43.1C109.8,95,94.8,110,76.3,110z M33.4,10.6c-12.6,0-22.8,10.2-22.8,22.8v43.1c0,12.6,10.2,22.8,22.8,22.8h42.9
						c12.6,0,22.8-10.2,22.8-22.8V33.4c0-12.6-10.2-22.8-22.8-22.8H33.4z"/>
				</g>
			</g>
			<g id="XMLID_73_">
				<g>
					<path id="XMLID_74_" class="st0" d="M55,82.9c-15.4,0-27.9-12.5-27.9-27.9S39.6,27.2,55,27.2S82.8,39.7,82.8,55
						S70.3,82.9,55,82.9z M55,36.8c-10,0-18.2,8.2-18.2,18.2S44.9,73.2,55,73.2S73.1,65.1,73.1,55S65,36.8,55,36.8z"/>
				</g>
			</g>
			<g id="XMLID_72_">
				<circle class="st0" cx="84.3" cy="25.9" r="6.5"/>
			</g>
		</g>
	</g>
</g>
</svg>
