<?xml version="1.0" encoding="utf-8"?>
<!-- Generator: Adobe Illustrator 21.0.2, SVG Export Plug-In . SVG Version: 6.00 Build 0)  -->
<svg version="1.1" id="Layer_1" xmlns="http://www.w3.org/2000/svg" xmlns:xlink="http://www.w3.org/1999/xlink" x="0px" y="0px"
	 width="154px" height="110px" viewBox="0 0 154 110" style="enable-background:new 0 0 154 110;" xml:space="preserve">
<style type="text/css">
	.st0{fill:#F7F9F9;}
	.st1{fill:#684D47;}
	.st2{fill:#F3DAB9;}
	.st3{fill:#132131;}
	.st4{fill:#E9BD8C;}
	.st5{fill:#46B7E1;}
	.st6{fill:#0787BE;}
	.st7{fill:#FDFDFC;}
	.st8{fill:#F2D9B8;}
	.st9{fill:#9A7255;}
	.st10{fill:#F6F6F7;}
	.st11{fill:#FACD4F;}
	.st12{fill:#EAC192;}
	.st13{fill:#162433;}
	.st14{fill:#9E7659;}
</style>
<path id="XMLID_7506_" class="st0" d="M144.6,0L9.3,0.1C4.1,0.1,0,4.3,0,9.4l0.1,91.3c0,5.1,4.2,9.3,9.3,9.3l135.3-0.1
	c5.1,0,9.3-4.2,9.3-9.3l-0.1-91.3C153.9,4.1,149.7,0,144.6,0z"/>
<g id="XMLID_7455_">
	<path id="XMLID_7501_" class="st1" d="M65.4,49.4c-0.3-0.1-0.4-0.2-0.5-0.5c0-0.1,0-0.1,0-0.2c-0.4-0.9-0.5-1.6,0.1-2.5
		c0.8-1.3-0.1-2.9-1.6-3.5c-0.3-0.1-0.6-0.3-0.9-0.5c-1-0.9-2.2-1.5-3.4-2c-0.5-0.2-0.7-0.5-0.8-1.1c-0.1-1.5-0.2-2.9-0.5-4.4
		c-0.3-1.2-0.8-2.3-1.7-3.2c-0.4-0.4-0.5-1-0.9-1.3c-0.8-0.8-0.6-1.4-0.1-2.2c1.1-1.8,1.9-3.9,2.1-6c0.3-3-1.5-5.2-4.5-5.5
		c-1.4-0.2-2.6,0.1-3,0.2c-2.1,0.4-4,1.3-5.8,2.3c-0.3,0.2-0.5,0.2-0.8-0.1c-0.3-0.3-0.7-0.5-0.9-0.8c-1.7-1.6-3.6-1.8-5.7-1.1
		c-2.1,0.6-3.9,1.7-5.6,3c-5.8,4.5-10.3,10-13.3,16.7c-0.5,1.2-1,2.5-1.2,3.8c-0.3,1.8-0.1,3-0.1,3.1c0.3,1.8,1.5,2.9,2.9,3.7
		c0.7,0.4,0.9,0.9,0.7,1.7C19,53,21.8,57,25.9,57.8c0.3,0.1,0.6,0.1,1,0.1c0.4,0,0.6,0.2,0.9,0.5c3.5,5.3,8.1,9,14.4,10.5
		c5.9,1.3,11.5,0.6,16.5-3.2c3.8-2.8,6.2-6.7,7.6-11.1c0.2-0.7,0.7-1.3,0.8-2C67.4,51.1,66.8,50,65.4,49.4z M30.8,54.5
		c-1.5,1.6-3.4,2.1-5.5,1.4c-2.2-0.8-3.4-2.5-3.6-4.7c-0.3-2.9,1.3-5.3,3.9-6.1c1.1-0.3,2.2-0.3,3.3,0.2c0.6,0.2,0.9,0.7,1.1,1.2
		c0.3,0.6,0.4,1.3,0.6,2c0.3-0.4,0.3-0.8,0.5-1.2c0.4,1.1,0.5,2.2,0.5,3.4c0.3-0.3,0.4-0.7,0.7-1C32.5,51.5,32.1,53.1,30.8,54.5z
		 M34.6,34.9c-0.1,0.1-0.2,0.3-0.5,0.3c0,0.1,0,0.2-0.1,0.2l0,0c0,0-0.1,0.1-0.1,0.1c0,0.1-0.1,0.2-0.2,0.2
		c-1.6,2.4-3.1,4.8-4.1,7.5c-0.1,0.2-0.2,0.4-0.5,0.3c-1.9-0.7-3.8-0.5-5.7,0.3c-0.9,0.6-1.7,1.3-2.4,2.2c-0.1,0.1-0.1,0.2-0.3,0.1
		c-1-0.8-2.2-1.3-2.5-2.7c-0.2-1-0.2-2,0.1-3.1c0.7-2.9,2-5.6,3.6-8.1c1-1.7,2.2-3.2,3.4-4.7c2.4-2.8,5.1-5.4,8.4-7.4
		c1.4-0.9,2-1.6,3.7-1.8c0.4,0,0.4,0,0.4,0.1l0,0c2.3-0.5,2.2-0.3,2.9,0.4c0.6,0.6,1.7,1.1,2.4,1.7c1.7-0.9,3.6-1.9,5.5-2.4
		c0.2,0,0.5-0.1,0.7-0.1c0.4,0,0.7-0.1,1.1-0.2c1.3-0.3,2.5-0.2,3.6,0.5c1.4,0.8,1.6,2.1,1.4,3.5c-0.2,2-1.1,3.9-2.1,5.6
		c-0.1,0.2-0.2,0.3-0.4,0.3c-1.3-0.6-2.6-0.7-4-0.6c-1.9,0.2-3.7,0.6-5.4,1.4c-2.8,1.2-5.4,2.8-7.6,4.9
		C35.5,33.9,35.1,34.5,34.6,34.9z M65.4,52.5c-0.1,0.4-0.3,0.8-0.6,1.1c-0.4,1.7-1.2,3.2-2.2,4.5c-1.4,1.8-3.1,3.3-5.1,4.3
		c-3,1.5-6,2-9.3,1.3c-2.3-0.5-3.8-1.7-4.8-3.8c-0.1-0.2-0.2-0.4-0.2-0.5c0,0,0,0-0.1,0c-0.1,0.4-0.1,0.7-0.2,1.2
		c-0.7-1.2-0.9-2.4-1-3.8c-0.3,0.6-0.5,1-0.7,1.4c-0.4-0.7-0.6-2.1-0.5-3.6c-0.3,0.1-0.3,0.4-0.6,0.5c-0.1-1.6,0-3.1,0.7-4.6
		c0.5-1,1.1-1.9,1.9-2.7c0.1-0.1,0.2-0.2,0.3-0.3c-0.9-0.2-1.6-0.8-2.4-1.3c0.3,0,0.5,0,0.8-0.1c-1.2-1.1-2.2-2.3-2.5-4
		c0.4,0.1,0.5,0.5,0.9,0.6c-0.1-0.7-0.2-1.4-0.1-2.1c0-2.9,1.7-5.1,4.4-5.5c1-0.2,2.1,0,3.1,0c1.7,0.1,3.2-0.3,4.4-1.5
		c0.5-0.5,1-1,1.8-1.1c0.7-0.1,1.4,0,1.9,0.6c0.8,0.8,1,1.8,1.1,2.8c0.2,1.5,0.2,3,0.5,4.4c0.1,0.4,0.3,0.8,0.6,1.1
		c1.5,0.7,3,1.3,4.2,2.4c0.2,0.2,0.3,0.3,0.5,0.5c0.3,0.1,0.5,0.1,0.8,0.2c0.7,0.3,0.8,1,0.3,1.5c-2.6,3.1-5.9,5-9.8,5.9
		c-1.6,0.4-3.1,0.5-4.7,0.5c-1.2,0-1.9,0.5-2.3,1.6c0,0.1-0.1,0.2-0.1,0.3c-0.3,2.5,1.2,3.8,3.6,4.1c3,0.4,5.8-0.4,8.5-1.7
		c1.9-0.9,3.7-2,5.1-3.6c0.3-0.3,0.5-0.6,0.7-1c0,0,0,0,0-0.1c-0.1,0.1-0.3,0.2-0.4,0.3c-1.2,1.2-2.7,2.1-4.1,2.9
		c-2.8,1.5-5.7,2.4-8.8,2.2c-0.7,0-1.4-0.1-2.1-0.4c-0.6-0.3-1.1-0.7-1.2-1.4c-0.2-0.3-0.1-0.6-0.1-0.9c0-1,0.5-1.4,1.6-1.5
		c2.5,0,5-0.4,7.3-1.3c2.4-0.9,4.5-2,6.3-3.8c0.3-0.3,0.4-0.1,0.5,0.1c0.4,0.9,0.6,1.8,0.6,2.8c0.4,0.1,0.7-0.1,1.1,0
		C65.2,51.2,65.6,51.7,65.4,52.5z"/>
	<path id="XMLID_7498_" class="st2" d="M63.4,51.1c0.3,0.1,0.7-0.1,1.1,0c0.7,0.1,1.1,0.7,0.9,1.4c-0.1,0.4-0.3,0.8-0.6,1.1
		c-0.1,0.1-0.2,0.2-0.3,0.3c-1.2,1.5-2.6,2.7-4.2,3.8c-1.6,1.1-3.3,1.9-5.1,2.4c-0.4,0.1-0.4,0.2-0.1,0.5c0.6,0.6,1.2,1.2,2,1.5
		c0.1,0.1,0.3,0.1,0.3,0.3c-3,1.5-6,2-9.3,1.3c-2.3-0.5-3.8-1.7-4.8-3.8c-0.1-0.2-0.2-0.4-0.2-0.5c0,0,0,0-0.1,0
		c-0.1,0.4-0.1,0.7-0.2,1.2c-0.7-1.2-0.9-2.4-1-3.8c-0.3,0.6-0.5,1-0.7,1.4c-0.4-0.7-0.6-2.1-0.5-3.6c-0.3,0.1-0.3,0.4-0.6,0.5
		c-0.1-1.6,0-3.1,0.7-4.6c0.5-1,1.1-1.9,1.9-2.7c0.1-0.1,0.2-0.2,0.3-0.3c0.2,0,0.4-0.2,0.6-0.3c0.9-0.7,1.9-1.1,3-1.4
		c0.5-0.1,1-0.1,1.4-0.3c0.7-0.4,1.3-0.8,2-1.1c0.3-0.1,0.4-0.3,0.4-0.6c0-0.8,0.3-1.5,0.9-2.1c0.6-0.8,1.5-1.1,2.4-1.3
		c0.6,0,1.2,0.1,1.8,0.3c0.1,0.1,0.2,0.2,0.3,0.3c0.5,0.7,1,0.8,1.8,0.5c1.5,0.7,3,1.3,4.2,2.4c0.2,0.2,0.3,0.3,0.5,0.5
		c-0.2,0.4-0.3,0.9-0.6,1.3c-0.9,1.5-2.2,2.4-3.7,3.2c-2.8,1.6-5.9,2.4-9,2.8c-1.6,0.2-3,0.9-2.6,2.8c-0.3,2.5,1.2,3.8,3.6,4.1
		c3,0.4,5.8-0.4,8.5-1.7c1.9-0.9,3.7-2,5.1-3.6c0.3-0.3,0.5-0.6,0.7-1c0,0,0.1-0.1,0-0.1c0,0,0,0-0.1,0.1c-0.1,0.1-0.3,0.2-0.4,0.3
		C63.4,51.9,63.4,51.5,63.4,51.1z M53.5,43.4c0.4,0,0.7-0.4,1.1-0.3c0.2,0.2,0.4,0.4,0.7,0.2c0.4-0.3,0.4-0.7,0.3-1.1
		c-0.1-0.4-0.4-0.4-0.7-0.3c-0.6-0.7-2.5-0.1-2.5,0.9c-0.4,0-0.7,0.2-0.6,0.6c0,0.4,0.5,0.8,1,0.8C53.4,44.2,53.5,43.9,53.5,43.4z"
		/>
	<path id="XMLID_7495_" class="st3" d="M33.8,35.8c-1.6,2.4-3.1,4.8-4.1,7.5c-0.1,0.2-0.2,0.4-0.5,0.3c-1.9-0.7-3.8-0.5-5.7,0.3
		c0.1-0.3,0.1-0.6,0.2-0.8c1.1-3.4,2.9-6.5,5-9.4c2.4-3.3,5.2-6.2,8.6-8.6c0.1-0.1,0.3-0.3,0.5-0.2c-0.3,0.3-0.6,0.6-0.8,0.9
		c-2.2,2.2-4.1,4.5-5.9,7c-0.6,0.9-1.2,1.7-1.7,2.7c0.3,0.1,0.3-0.1,0.5-0.2c0.8-0.9,1.6-1.9,2.4-2.8c3-3.6,6.1-7.1,9.9-9.9
		c2.3-1.6,4.5-3.3,7.2-4.2c0.1,0,0.1,0,0.1-0.1c0.4,0,0.7-0.1,1-0.2c1.3-0.3,2.5-0.2,3.6,0.5c1.4,0.8,1.6,2.1,1.4,3.5
		c-0.2,2-1.1,3.9-2.1,5.6c-0.1,0.2-0.2,0.3-0.4,0.3c-0.5-1-1.3-1.6-2.4-2c-0.1,0-0.2-0.1-0.1,0c0.1,0.6-0.3,0.1-0.4,0.1
		c-0.6-0.2-1.2-0.6-1.8-0.6c-0.1-0.1-0.1-0.1-0.3-0.1c0.1,0,0.1,0.1,0.2,0.1c0.1,0.2,0.2,0.4,0.4,0.7c-1.2-0.5-2.3-0.5-3.5-0.4
		c0.4,0.3,0.8,0.3,1.2,0.7c-1.7-0.2-3.3-0.1-4.8,0.6c0.5,0.3,1.1,0,1.6,0.4c-1.2,0.4-2.5,0.6-3.6,1.5c0.4,0.1,0.7,0,1.1,0.1
		c-0.1,0.1-0.1,0.1-0.1,0.1c-1.8,1-3.3,2.4-4.7,3.9c-0.6,0.7-1.3,1.4-1.7,2.2l0,0c-0.1,0-0.1,0.1-0.1,0.2l0,0c0,0-0.1,0.1-0.1,0.1
		l0,0C33.9,35.6,33.8,35.7,33.8,35.8z M29.4,35.8C29.4,35.8,29.3,35.8,29.4,35.8c-0.1-0.1,0-0.1,0-0.1
		C29.4,35.7,29.4,35.7,29.4,35.8C29.4,35.8,29.4,35.8,29.4,35.8z"/>
	<path id="XMLID_7491_" class="st4" d="M57.3,41.3c-0.7,0.3-1.3,0.2-1.8-0.5c-0.1-0.1-0.2-0.2-0.3-0.3c-0.1-0.9-0.3-1.7-0.8-2.4
		c-0.2-0.2-0.4-0.5-0.7-0.4c-0.4,0.1-0.4,0.4-0.4,0.7c-0.1,0.6,0.1,1.2,0.2,1.8c-0.9,0.2-1.8,0.5-2.4,1.3c-0.5,0.6-0.9,1.3-0.9,2.1
		c0,0.3-0.1,0.5-0.4,0.6c-0.7,0.4-1.3,0.7-2,1.1c-0.4,0.3-0.9,0.2-1.4,0.3c-1.1,0.3-2.1,0.7-3,1.4c-0.2,0.1-0.3,0.3-0.6,0.3
		c-0.9-0.2-1.6-0.8-2.4-1.3c0.3,0,0.5,0,0.8-0.1c-1.2-1.1-2.2-2.3-2.5-4c0.4,0.1,0.5,0.5,0.9,0.6c-0.1-0.7-0.2-1.4-0.1-2.1
		c0.1-0.4,0.2-0.7,0.4-1.1c0.8-1.7,2.1-2.6,4-2.7c1.4-0.1,2.8,0.3,4.2,0.1c2.2-0.3,4-1.2,5.3-3c0.4-0.6,0.9-0.9,1.7-0.9
		c0.8,0.8,1,1.8,1.1,2.8c0.2,1.5,0.2,3,0.5,4.4C56.8,40.6,57,41,57.3,41.3z M45.9,41c-0.9,0.1-1.8,0.3-2.5,1
		c-0.2,0.2-0.5,0.4-0.3,0.6c0.2,0.3,0.5,0,0.7-0.1c1.4-0.6,2.9-0.7,4.3,0c0.1,0.1,0.4,0.2,0.5,0c0.1-0.2-0.1-0.4-0.2-0.5
		C47.7,41.4,46.9,41.1,45.9,41z M47.5,43.9c0.2,0,0.4,0,0.5,0c0.1,0,0.3,0.1,0.4-0.1c0-0.1-0.1-0.2-0.2-0.3
		c-0.7-0.6-2.4-0.3-2.9,0.5c-0.1,0.1-0.2,0.2-0.1,0.4c0.1,0.1,0.2,0,0.3,0C46.2,44,46.8,43.8,47.5,43.9z"/>
	<path id="XMLID_7490_" class="st5" d="M22,32.3c1-1.7,2.2-3.2,3.4-4.7c2.4-2.8,5.1-5.4,8.4-7.4c1.4-0.9,2.9-1.6,4.6-1.8
		c0.4,0,0.8,0,1.2,0.1c-0.2,0.6-0.4,1.2-0.2,1.8c-0.5-0.1-1-0.2-1.4-0.4c-0.8-0.4-1.5-0.2-2.1,0.3c-0.1,0.6,0,1.1,0.3,1.6
		c0,0.7,0.1,1.3,0.3,2c0.1,0.6-0.1,0.9-0.5,1.3c-2.6,1.9-4.8,4.1-6.9,6.6c-0.9,1.1-1.8,2.3-2.6,3.5c-0.2,0.3-0.4,0.4-0.7,0.1
		c-0.1-0.1-0.2-0.1-0.2-0.2C24.3,34.1,23.2,33.2,22,32.3z"/>
	<path id="XMLID_7489_" class="st6" d="M22,32.3c1.1,0.9,2.3,1.8,3.4,2.8c0.1,0.1,0.2,0.1,0.2,0.2c0.3,0.3,0.5,0.3,0.7-0.1
		c0.8-1.2,1.6-2.4,2.6-3.5c2-2.5,4.3-4.7,6.9-6.6c0.5-0.3,0.7-0.7,0.5-1.3c-0.1-0.7-0.3-1.3-0.3-2c0.9,0.8,1.8,1.5,2.7,2.3
		c-0.2,0.2-0.5,0.4-0.7,0.6c-0.1,0-0.1,0-0.1,0.1l0,0c-0.1,0-0.1,0-0.1,0.1l0,0c-0.2-0.1-0.4,0.1-0.5,0.2c-3.4,2.3-6.2,5.3-8.6,8.6
		c-2.1,2.9-3.9,6-5,9.4c-0.1,0.3-0.2,0.5-0.2,0.8c-0.9,0.6-1.7,1.3-2.4,2.2c-0.1,0.1-0.1,0.2-0.3,0.1c-1-0.8-2.2-1.3-2.5-2.7
		c-0.2-1-0.2-2,0.1-3.1C19.1,37.4,20.5,34.8,22,32.3z"/>
	<path id="XMLID_7488_" class="st7" d="M63.4,51.1c0,0.4,0,0.8,0,1.2c-1.2,1.2-2.7,2.1-4.1,2.9c-2.8,1.5-5.7,2.4-8.8,2.2
		c-0.7,0-1.4-0.1-2.1-0.4c-0.6-0.3-1.1-0.7-1.2-1.4c3.8,0.8,9.6-0.9,10.8-2.3c-1.8,0.6-3.5,1.1-5.3,1.4c-1.8,0.3-3.7,0.4-5.5,0
		c0-1,0.5-1.4,1.5-1.5c2.5,0,5-0.4,7.3-1.3c2.4-0.9,4.5-2.1,6.3-3.8c0.3-0.3,0.4-0.1,0.5,0.1C63.2,49.2,63.4,50.1,63.4,51.1z"/>
	<path id="XMLID_7485_" class="st8" d="M31.6,50.5c0.3-0.3,0.4-0.7,0.7-1c0.2,1.9-0.2,3.6-1.5,4.9c-1.5,1.6-3.4,2.1-5.5,1.4
		c-2.2-0.8-3.4-2.5-3.6-4.7c-0.3-2.9,1.3-5.3,3.9-6.1c1.1-0.3,2.2-0.3,3.3,0.2c0.6,0.2,0.9,0.7,1.1,1.2c0.3,0.6,0.4,1.3,0.6,2
		c0.3-0.4,0.3-0.8,0.5-1.2C31.5,48.3,31.6,49.3,31.6,50.5z M28.9,49c0,0,0.1,0.1,0.1,0.1c0,0.1,0.1,0.3,0.3,0.3
		c0.2,0,0.2-0.2,0.3-0.3c0.1-0.6-0.1-1.1-0.5-1.5c-0.9-0.9-1.9-1.1-3-0.8c-1.2,0.3-2.1,1.1-2.4,2.3c-0.3,1-0.2,2,0.5,2.9
		c0.1,0.2,0.3,0.4,0.5,0.2c0.2-0.1,0-0.3,0-0.5c-0.3-1.1-0.3-2.2,0.5-3.1c0.1,0.3-0.1,0.7-0.1,1c0.4,1.9,1.7,3.1,3.7,3.3
		c-0.3,0.4-0.7,0.4-1.2,0.4c-0.1,0-0.4-0.1-0.4,0.1c0,0.2,0.2,0.3,0.3,0.3c0.7,0.4,1.8,0.1,2.3-0.7c0.7-1.1,0.4-2.3-1-3
		c-0.8-0.4-0.9-0.7-0.3-1.2C28.7,48.9,28.8,49,28.9,49L28.9,49z"/>
	<path id="XMLID_7484_" class="st8" d="M55.1,33c-0.7-0.1-1.3,0.3-1.7,0.9c-1.3,1.8-3.1,2.7-5.3,3c-1.4,0.2-2.8-0.2-4.2-0.1
		c-1.9,0.1-3.2,1-4,2.7c-0.2,0.3-0.3,0.7-0.4,1.1c0-2.9,1.7-5.1,4.4-5.5c1-0.2,2.1,0,3.1,0c1.7,0.1,3.2-0.3,4.4-1.5
		c0.5-0.5,1-1,1.8-1.1C54,32.3,54.6,32.4,55.1,33z"/>
	<path id="XMLID_7483_" class="st9" d="M34.1,35.2c0.4-0.9,1.1-1.5,1.7-2.2c1.4-1.5,2.9-2.9,4.7-3.9c0,0,0.1-0.1,0.1-0.1
		c-0.3-0.1-0.7,0-1.1-0.1c1.1-0.9,2.3-1.1,3.6-1.5c-0.5-0.3-1-0.1-1.6-0.4c1.6-0.6,3.1-0.8,4.8-0.6C46,26,45.6,26,45.1,25.7
		c1.2-0.1,2.3-0.1,3.5,0.4c-0.2-0.3-0.3-0.5-0.4-0.7c0,0,0,0,0-0.1c0.7,0,1.2,0.4,1.8,0.6c0.1,0,0.4,0.5,0.4-0.1
		c0-0.1,0.1-0.1,0.1,0c1,0.4,1.9,0.9,2.4,2c-1.3-0.6-2.6-0.7-4-0.6c-1.9,0.2-3.7,0.6-5.4,1.4c-2.8,1.2-5.4,2.8-7.6,4.9
		c-0.5,0.5-0.9,1-1.4,1.4C34.5,35.1,34.4,35.2,34.1,35.2z"/>
	<path id="XMLID_7482_" class="st4" d="M46,54.3c-0.4-1.9,1-2.6,2.6-2.8c3.2-0.4,6.2-1.2,9-2.8c1.5-0.8,2.8-1.7,3.7-3.2
		c0.2-0.4,0.4-0.9,0.6-1.3c0.3,0.1,0.5,0.1,0.8,0.2c0.7,0.3,0.8,1,0.3,1.5c-2.6,3.1-5.9,5-9.8,5.9c-1.6,0.4-3.1,0.5-4.7,0.5
		c-1.2,0-1.9,0.5-2.3,1.6C46.1,54,46.1,54.1,46,54.3z"/>
	<path id="XMLID_7481_" class="st4" d="M57.4,62.4c0-0.2-0.2-0.2-0.3-0.3c-0.8-0.4-1.4-0.9-2-1.5c-0.3-0.3-0.3-0.4,0.1-0.5
		c1.8-0.6,3.5-1.4,5.1-2.4c1.6-1,3-2.3,4.2-3.8c0.1-0.1,0.2-0.2,0.3-0.3c-0.4,1.7-1.2,3.2-2.2,4.5C61.2,59.9,59.5,61.4,57.4,62.4z"
		/>
	<path id="XMLID_7480_" class="st10" d="M38.1,24.7c0.2-0.2,0.5-0.4,0.7-0.6c0.3-0.3,0.6-0.5,0.9-0.8c0.3-0.2,0.6-0.5,0.9-0.7
		c0.3-0.2,0.5-0.4,0.8-0.6c0.2-0.1,0.4-0.2,0.5-0.4c0.3-0.2,0.5-0.3,0.8-0.5c0.3-0.2,0.6-0.4,0.9-0.6c1.7-0.9,3.4-1.9,5.3-2.4
		c0.2,0,0.4-0.1,0.6-0.1c0,0.1-0.1,0.1-0.1,0.1c-2.7,0.9-4.9,2.6-7.2,4.2c-3.8,2.8-6.9,6.3-9.9,9.9c-0.8,0.9-1.6,1.9-2.4,2.8
		c-0.1,0.1-0.2,0.3-0.5,0.2c0.5-0.9,1.1-1.8,1.7-2.7c1.8-2.5,3.7-4.8,5.9-7c0.3-0.3,0.6-0.6,0.8-0.9l0,0c0.1,0,0.1,0,0.1-0.1l0,0
		C38.1,24.8,38.1,24.7,38.1,24.7z"/>
	<path id="XMLID_7479_" class="st11" d="M43.6,20.6c-0.3,0.2-0.6,0.4-0.9,0.6c-0.3-0.3-0.7-0.6-1-0.9c0,0-0.1,0-0.1,0.1
		c0.1,0.4,0.2,0.9,0.4,1.3c-0.2,0.1-0.4,0.2-0.5,0.4c-0.7-0.3-1.4-0.5-2.3-0.7c0.6,0.5,1.1,0.9,1.6,1.3c-0.3,0.3-0.6,0.5-0.9,0.7
		c-1.3-1-2.5-2.1-3.8-3.1c0.7-0.5,1.3-0.7,2.1-0.3c0.4,0.2,0.9,0.3,1.4,0.4c0.2,0.2,0.5,0.2,0.8,0.3c-0.2-0.7-0.4-1.4-0.6-2.1
		c0.8-0.5,1.4-0.3,2,0.4C42.3,19.5,43,20,43.6,20.6z"/>
	<path id="XMLID_7478_" class="st12" d="M47.1,54.7c1.8,0.4,3.7,0.4,5.5,0c1.8-0.3,3.5-0.8,5.3-1.4c-1.1,1.4-7,3.1-10.8,2.3
		C47,55.3,47.1,55,47.1,54.7z"/>
	<path id="XMLID_7477_" class="st13" d="M39.6,18.5c0.2,0.7,0.4,1.4,0.6,2.1c-0.3-0.1-0.6-0.1-0.8-0.3
		C39.2,19.7,39.4,19.1,39.6,18.5L39.6,18.5z"/>
	<path id="XMLID_7476_" class="st9" d="M33.8,35.8c0.1-0.1,0.1-0.1,0.2-0.2C33.9,35.7,33.9,35.7,33.8,35.8z"/>
	<path id="XMLID_7475_" class="st9" d="M34,35.4c0-0.1,0-0.2,0.1-0.2C34.1,35.3,34.1,35.4,34,35.4z"/>
	<path id="XMLID_7474_" class="st9" d="M33.9,35.6c0,0,0.1-0.1,0.1-0.1C34,35.5,34,35.5,33.9,35.6z"/>
	<path id="XMLID_7473_" class="st1" d="M53.5,40.2c-0.1-0.6-0.3-1.2-0.2-1.8c0-0.3,0.1-0.6,0.4-0.7c0.4-0.1,0.6,0.2,0.7,0.4
		c0.5,0.7,0.7,1.6,0.8,2.4C54.7,40.4,54.1,40.2,53.5,40.2z"/>
	<path id="XMLID_7472_" class="st4" d="M54.7,43.1c-0.4-0.1-0.7,0.3-1.1,0.3c-0.2-0.4-0.6-0.6-1-0.7c0-1,1.9-1.6,2.5-0.9
		C54.6,42.2,54.5,42.6,54.7,43.1z"/>
	<path id="XMLID_7471_" class="st14" d="M52.5,42.8c0.4,0.1,0.8,0.3,1,0.7c0,0.4-0.1,0.7-0.6,0.7c-0.5,0-1-0.4-1-0.8
		C51.8,42.9,52.1,42.8,52.5,42.8z"/>
	<path id="XMLID_7470_" class="st14" d="M54.7,43.1c-0.2-0.5-0.1-0.9,0.3-1.3c0.3-0.1,0.6,0,0.7,0.3c0.1,0.4,0.1,0.8-0.3,1.1
		C55.1,43.5,54.9,43.3,54.7,43.1z"/>
	<path id="XMLID_7469_" class="st1" d="M63.8,52.1C63.8,52,63.9,52,63.8,52.1C63.9,52,63.9,52.1,63.8,52.1
		C63.9,52.1,63.8,52.1,63.8,52.1z"/>
	<path id="XMLID_7468_" class="st10" d="M29.4,35.8C29.4,35.8,29.4,35.8,29.4,35.8c0-0.1,0-0.1,0-0.1C29.4,35.7,29.3,35.7,29.4,35.8
		C29.3,35.8,29.4,35.8,29.4,35.8z"/>
	<path id="XMLID_7467_" class="st9" d="M48.3,25.5c-0.1,0-0.1-0.1-0.2-0.1C48.2,25.3,48.3,25.3,48.3,25.5
		C48.3,25.4,48.3,25.4,48.3,25.5z"/>
	<path id="XMLID_7466_" class="st14" d="M45.9,41c1,0.1,1.8,0.4,2.5,1c0.1,0.1,0.3,0.3,0.2,0.5c-0.1,0.2-0.3,0.1-0.5,0
		c-1.4-0.7-2.9-0.6-4.3,0c-0.2,0.1-0.5,0.3-0.7,0.1c-0.1-0.2,0.2-0.4,0.3-0.6C44.2,41.3,45,41.1,45.9,41z"/>
	<path id="XMLID_7465_" class="st14" d="M47.5,43.9c-0.7-0.1-1.3,0.1-2,0.4c-0.1,0-0.2,0.1-0.3,0c-0.1-0.1,0-0.3,0.1-0.4
		c0.5-0.8,2.2-1,2.9-0.5c0.1,0.1,0.2,0.2,0.2,0.3c0,0.2-0.2,0.1-0.4,0.1C47.9,43.9,47.7,43.9,47.5,43.9z"/>
	<path id="XMLID_7464_" class="st13" d="M35.9,20.2c1.3,1,2.5,2.1,3.8,3.1c-0.3,0.3-0.6,0.5-0.9,0.8c-0.9-0.8-1.8-1.5-2.7-2.3
		C35.9,21.3,35.8,20.7,35.9,20.2z"/>
	<path id="XMLID_7463_" class="st3" d="M38,24.8c0,0.1,0,0.1-0.1,0.1C37.8,24.8,37.9,24.8,38,24.8z"/>
	<path id="XMLID_7462_" class="st3" d="M38.1,24.7c0,0.1-0.1,0.1-0.1,0.1C38,24.7,38.1,24.7,38.1,24.7z"/>
	<path id="XMLID_7461_" class="st4" d="M28.9,49c-0.1,0-0.3-0.1-0.4-0.1c-0.2-0.2-0.5-0.2-0.7,0c-0.5,0.3-0.5,1-0.1,1.5
		c0.2,0.3,0.5,0.4,0.8,0.6c0.7,0.5,0.8,1.3,0.1,2c-2-0.1-3.3-1.4-3.7-3.3c-0.1-0.3,0.1-0.7,0.1-1c0.7-0.8,1.6-1,2.6-0.8
		C28.2,48,28.8,48.3,28.9,49z"/>
	<path id="XMLID_7460_" class="st14" d="M28.9,49c-0.2-0.7-0.7-1-1.3-1.1c-1-0.2-1.9,0-2.6,0.8c-0.8,0.9-0.8,2-0.5,3.1
		c0,0.2,0.2,0.3,0,0.5c-0.2,0.2-0.4-0.1-0.5-0.2c-0.7-0.9-0.8-1.9-0.5-2.9c0.3-1.2,1.2-2,2.4-2.3c1.1-0.3,2.2-0.1,3,0.8
		c0.4,0.4,0.6,0.9,0.5,1.5c0,0.1-0.1,0.3-0.3,0.3c-0.2,0-0.2-0.1-0.3-0.3C29,49.1,29,49,28.9,49L28.9,49z"/>
	<path id="XMLID_7459_" class="st14" d="M28.7,53c0.6-0.6,0.6-1.5-0.1-2c-0.3-0.2-0.6-0.4-0.8-0.6c-0.4-0.5-0.4-1.2,0.1-1.5
		c0.2-0.1,0.5-0.2,0.7,0c-0.6,0.6-0.6,0.8,0.3,1.2c1.3,0.7,1.7,1.9,1,3c-0.5,0.8-1.6,1.1-2.3,0.7c-0.1-0.1-0.3-0.2-0.3-0.3
		c0.1-0.2,0.3-0.1,0.4-0.1C28,53.4,28.4,53.4,28.7,53z"/>
	<path id="XMLID_7458_" class="st4" d="M28.9,49c0,0,0.1,0.1,0.1,0.1C29,49.1,29,49,28.9,49z"/>
	<path id="XMLID_7457_" class="st13" d="M40.6,22.6c-0.5-0.4-1-0.8-1.6-1.3c0.9,0.2,1.6,0.4,2.3,0.7C41.2,22.2,40.9,22.4,40.6,22.6z
		"/>
	<path id="XMLID_7456_" class="st13" d="M41.9,21.6c-0.1-0.4-0.2-0.9-0.4-1.3c0,0,0.1,0,0.1-0.1c0.3,0.3,0.7,0.6,1,0.9
		C42.4,21.3,42.2,21.5,41.9,21.6z"/>
</g>
<rect id="XMLID_7453_" x="79.3" y="63.9" transform="matrix(1 -1.030276e-03 1.030276e-03 1 -6.948045e-02 0.1145)" class="st5" width="63.7" height="7.2"/>
<rect id="XMLID_7452_" x="79.3" y="51.4" transform="matrix(1 -1.030276e-03 1.030276e-03 1 -5.664484e-02 0.1145)" class="st5" width="63.7" height="7.2"/>
<g>
	
		<rect id="XMLID_7451_" x="79.2" y="20.2" transform="matrix(1 -1.030276e-03 1.030276e-03 1 -3.412345e-02 9.690446e-02)" class="st5" width="29.6" height="25.9"/>
	
		<rect id="XMLID_7450_" x="113.4" y="20.2" transform="matrix(1 -1.030276e-03 1.030276e-03 1 -3.406907e-02 0.1321)" class="st5" width="29.6" height="25.9"/>
</g>
<rect id="XMLID_7449_" x="12.4" y="76.4" transform="matrix(1 -1.030276e-03 1.030276e-03 1 -8.868323e-02 8.008360e-02)" class="st5" width="130.6" height="19.4"/>
</svg>
