<?xml version="1.0" encoding="utf-8"?>
<!-- Generator: Adobe Illustrator 21.0.2, SVG Export Plug-In . SVG Version: 6.00 Build 0)  -->
<svg version="1.1" id="Layer_1" xmlns="http://www.w3.org/2000/svg" xmlns:xlink="http://www.w3.org/1999/xlink" x="0px" y="0px"
	 width="130.6px" height="110px" viewBox="0 0 130.6 110" style="enable-background:new 0 0 130.6 110;" xml:space="preserve">
<style type="text/css">
	.st0{fill:#004274;}
	.st1{fill:#006E9E;}
</style>
<path id="XMLID_238_" class="st0" d="M126.9,32c-21-27.7-59.7-26.8-80-7C27.5,43.8,23.1,77.2,48,103l-5.6-0.2c-10.5,0-20.4,0-30.9,0
	C4,102.8,0,98.6,0,91.1c0-17.9,0-35.9,0-53.8c0-10,6-17.3,15.8-19.1c1.9-0.4,3.6-0.4,3.5-3.1c-0.1-1.9,1.5-1.7,2.8-1.7
	c4.3,0,8.5,0,12.8,0c2.3,0,4.8-0.7,4.9,3.3c0.1,1.9,5.9,1.9,7.6-0.3c2.4-3.1,4.7-6.4,6.7-9.9C56.7,2.1,60.3,0,65.6,0
	c12.1,0.1,25.1,0.1,37.5,0c5.1,0,9.1,1.7,11.1,6.3C117.6,14.5,127.6,32.7,126.9,32z"/>
<path id="XMLID_222_" class="st1" d="M130.4,63.2V64c0,21.7-16.4,45.9-46.4,46c-31.2,0.1-47.3-25.6-46.7-46.9
	c0-26.1,20.9-46.2,46.9-46.2c18,0,33.6,10.2,41.4,26H96.3c-3.6-3.2-7.7-4.1-12-4.1c-13.8,0-25.2,11-25,24.7
	C59.5,77.3,70.6,88,84.4,87.9c8.1,0,15.3-2.8,19.8-10.2H84.1v-20h46.3l0,0h0.2c0.1,0-0.1,0.9,0,1.8C130.7,61,130.4,61.7,130.4,63.2z
	"/>
</svg>
