<?xml version="1.0" encoding="utf-8"?>
<!-- Generator: Adobe Illustrator 21.0.2, SVG Export Plug-In . SVG Version: 6.00 Build 0)  -->
<svg version="1.1" id="Layer_1" xmlns="http://www.w3.org/2000/svg" xmlns:xlink="http://www.w3.org/1999/xlink" x="0px" y="0px"
	 viewBox="0 0 141.6 69.7" style="enable-background:new 0 0 141.6 69.7;" xml:space="preserve">
<style type="text/css">
	.st0{fill:#3AABEF;}
	.st1{fill:#323A45;}
</style>
<g>
	<g>
		<path class="st0" d="M50.8,28.2c2,1.2,5,2.2,8.2,2.2c4,0,6.2-1.9,6.2-4.6c0-2.6-1.7-4.1-6.1-5.7c-5.6-2-9.2-5-9.2-9.9
			c0-5.5,4.6-9.8,12-9.8c3.7,0,6.4,0.8,8.2,1.7l-1.5,5c-1.2-0.7-3.6-1.6-6.8-1.6c-3.9,0-5.7,2.1-5.7,4.1c0,2.6,2,3.8,6.5,5.6
			c5.9,2.2,8.8,5.2,8.8,10.1c0,5.4-4.1,10.2-12.9,10.2c-3.6,0-7.3-1-9.2-2.1L50.8,28.2z"/>
		<path class="st0" d="M96.1,19.9H83.3v10h14.3V35H77.1V1h19.8v5.1H83.3v8.8h12.8V19.9z"/>
	</g>
	<path class="st0" d="M125.8,0.5c-9.4-0.9-17.8,6-18.8,15.4c-0.4,4.5,0.9,8.8,3.5,12.1c1.3,1.7,2.9,3.1,4.7,4.2
		c2.1,1.3,4.6,2.2,7.2,2.4c9.4,0.9,17.8-6,18.8-15.4S135.2,1.5,125.8,0.5z"/>
	<path class="st1" d="M45.5,41.9C45,36.3,40.7,31.8,35,31.2c-6.4-0.6-12.1,4-12.7,10.4c0,0.2,0,0.3,0,0.5c-0.1,1.2,0,2.3,0.3,3.5
		c0.3,1.1,0.7,2.1,1.2,3c0.6,1,1.3,1.9,2.2,2.7c1.8,1.7,4.1,2.8,6.8,3.1c3.4,0.3,6.5-0.8,8.9-2.9c1-0.9,1.8-1.9,2.4-3
		c0.5-0.8,0.9-1.7,1.1-2.7c0.2-0.6,0.3-1.2,0.4-1.9C45.5,43.2,45.5,42.5,45.5,41.9z"/>
	<g>
		<path class="st1" d="M22.3,42.1l-22,14.7L3.7,62l20.1-13.4c-0.5-0.9-1-1.9-1.2-3C22.3,44.5,22.2,43.3,22.3,42.1z"/>
		<path class="st1" d="M110.5,28.1L73.2,61.7L45.5,41.9c0.1,0.7,0.1,1.4,0,2.1c-0.1,0.7-0.2,1.3-0.4,1.9c-0.3,0.9-0.6,1.8-1.1,2.7
			L68.5,66l5.2,3.7l4.7-4.3l36.8-33.2C113.4,31.2,111.8,29.7,110.5,28.1z"/>
	</g>
	<path class="st1" d="M125.3,5.3c-6.8-0.7-12.8,4.3-13.5,11.1c-0.3,3.3,0.7,6.3,2.5,8.7c0.9,1.2,2.1,2.2,3.4,3
		c1.5,0.9,3.3,1.6,5.2,1.7c6.8,0.7,12.8-4.3,13.5-11.1S132.1,6,125.3,5.3z"/>
</g>
</svg>
