<?xml version="1.0" encoding="utf-8"?>
<!-- Generator: Adobe Illustrator 21.0.2, SVG Export Plug-In . SVG Version: 6.00 Build 0)  -->
<svg version="1.1" id="Layer_1" xmlns="http://www.w3.org/2000/svg" xmlns:xlink="http://www.w3.org/1999/xlink" x="0px" y="0px"
	 width="92.2px" height="110px" viewBox="0 0 92.2 110" style="enable-background:new 0 0 92.2 110;" xml:space="preserve">
<style type="text/css">
	.st0{fill:#103856;}
	.st1{fill:#EAEAEA;}
	.st2{fill-rule:evenodd;clip-rule:evenodd;fill:#103856;}
	.st3{fill-rule:evenodd;clip-rule:evenodd;fill:#991032;}
	.st4{fill-rule:evenodd;clip-rule:evenodd;fill:#F48900;}
	.st5{opacity:0.5;fill-rule:evenodd;clip-rule:evenodd;fill:#6A6A69;}
</style>
<path id="XMLID_31717_" class="st0" d="M9.1,110c-3.2,0-6,0-9.1,0C0,73.4,0,36.8,0,0c2.9,0,5.8,0,9.1,0C9.1,36.6,9.1,73.2,9.1,110z"
	/>
<rect id="XMLID_31696_" x="12.2" class="st1" width="80" height="109.7"/>
<rect id="XMLID_138_" x="22.7" y="21.9" class="st2" width="19.2" height="15.8"/>
<rect id="XMLID_137_" x="22.7" y="48.1" class="st3" width="19.2" height="15.8"/>
<rect id="XMLID_136_" x="22.7" y="73.2" class="st4" width="19.2" height="15.8"/>
<path id="XMLID_135_" class="st5" d="M66.2,24.5H48.8c-0.6,0-1.2-0.5-1.2-1.2V23c0-0.6,0.5-1.2,1.2-1.2h17.4c0.6,0,1.2,0.5,1.2,1.2
	v0.3C67.4,24,66.8,24.5,66.2,24.5z"/>
<path id="XMLID_134_" class="st5" d="M80.8,31.1l-32,0c-0.6,0-1.2-0.5-1.2-1.2v-0.3c0-0.6,0.5-1.2,1.2-1.2h32c0.6,0,1.2,0.5,1.2,1.2
	v0.3C82,30.6,81.5,31.1,80.8,31.1z"/>
<path id="XMLID_133_" class="st5" d="M80.8,37.7l-32,0c-0.6,0-1.2-0.5-1.2-1.2v-0.3c0-0.6,0.5-1.2,1.2-1.2h32c0.6,0,1.2,0.5,1.2,1.2
	v0.3C82,37.2,81.5,37.7,80.8,37.7z"/>
<path id="XMLID_132_" class="st5" d="M66.2,50.7H48.8c-0.6,0-1.2-0.5-1.2-1.2v-0.3c0-0.6,0.5-1.2,1.2-1.2h17.4
	c0.6,0,1.2,0.5,1.2,1.2v0.3C67.4,50.2,66.8,50.7,66.2,50.7z"/>
<path id="XMLID_131_" class="st5" d="M80.8,57.3h-32c-0.6,0-1.2-0.5-1.2-1.2v-0.3c0-0.6,0.5-1.2,1.2-1.2h32c0.6,0,1.2,0.5,1.2,1.2
	v0.3C82,56.7,81.5,57.3,80.8,57.3z"/>
<path id="XMLID_130_" class="st5" d="M80.8,63.8h-32c-0.6,0-1.2-0.5-1.2-1.2v-0.3c0-0.6,0.5-1.2,1.2-1.2h32c0.6,0,1.2,0.5,1.2,1.2
	v0.3C82,63.3,81.5,63.8,80.8,63.8z"/>
<path id="XMLID_129_" class="st5" d="M66.2,75.8H48.8c-0.6,0-1.2-0.5-1.2-1.2v-0.3c0-0.6,0.5-1.2,1.2-1.2h17.4
	c0.6,0,1.2,0.5,1.2,1.2v0.3C67.4,75.3,66.8,75.8,66.2,75.8z"/>
<path id="XMLID_128_" class="st5" d="M80.8,82.4h-32c-0.6,0-1.2-0.5-1.2-1.2v-0.3c0-0.6,0.5-1.2,1.2-1.2h32c0.6,0,1.2,0.5,1.2,1.2
	v0.3C82,81.8,81.5,82.4,80.8,82.4z"/>
<path id="XMLID_127_" class="st5" d="M80.8,88.9h-32c-0.6,0-1.2-0.5-1.2-1.2v-0.3c0-0.6,0.5-1.2,1.2-1.2h32c0.6,0,1.2,0.5,1.2,1.2
	v0.3C82,88.4,81.5,88.9,80.8,88.9z"/>
</svg>
