<?xml version="1.0" encoding="utf-8"?>
<!-- Generator: Adobe Illustrator 21.0.2, SVG Export Plug-In . SVG Version: 6.00 Build 0)  -->
<svg version="1.1" id="Layer_1" xmlns="http://www.w3.org/2000/svg" xmlns:xlink="http://www.w3.org/1999/xlink" x="0px" y="0px"
	 width="105.8px" height="100px" viewBox="0 0 105.8 100" style="enable-background:new 0 0 105.8 100;" xml:space="preserve">
<style type="text/css">
	.st0{fill:#092E49;}
	.st1{fill:#B2B2B2;}
	.st2{fill:url(#XMLID_2_);}
	.st3{fill:url(#XMLID_3_);}
	.st4{fill:url(#XMLID_4_);}
	.st5{fill:url(#XMLID_5_);}
	.st6{fill:url(#XMLID_6_);}
	.st7{fill:url(#XMLID_7_);}
	.st8{fill:url(#XMLID_8_);}
	.st9{fill:url(#XMLID_9_);}
	.st10{fill:url(#XMLID_10_);}
	.st11{fill:#923A44;}
	.st12{fill:#853039;}
	.st13{fill:#D5BD58;}
	.st14{fill:#C8B14D;}
	.st15{fill:#103856;}
	.st16{fill:#1C425F;}
	.st17{opacity:0.29;}
</style>
<g>
	<path id="XMLID_40844_" class="st0" d="M60.3,78.7H45.5c-0.7,0-1.3-0.6-1.3-1.3V62.3c0-0.7,0.6-1.3,1.3-1.3h14.7
		c0.7,0,1.3,0.6,1.3,1.3v15.2C61.5,78.2,61,78.7,60.3,78.7z M46.1,76.9h13.6v-14H46.1V76.9z"/>
	<path id="XMLID_40731_" class="st1" d="M21,23.3L21,23.3c2.1,0,3.9-1.8,3.9-3.9V3.9C24.9,1.8,23.2,0,21,0h0c-2.1,0-3.9,1.8-3.9,3.9
		v15.5C17.1,21.6,18.9,23.3,21,23.3z"/>
	<path id="XMLID_40730_" class="st1" d="M52.7,23.3L52.7,23.3c2.1,0,3.9-1.8,3.9-3.9V3.9c0-2.1-1.8-3.9-3.9-3.9h0
		c-2.1,0-3.9,1.8-3.9,3.9v15.5C48.9,21.6,50.6,23.3,52.7,23.3z"/>
	<path id="XMLID_40729_" class="st1" d="M84.5,23.3L84.5,23.3c2.1,0,3.9-1.8,3.9-3.9V3.9c0-2.1-1.8-3.9-3.9-3.9h0
		c-2.1,0-3.9,1.8-3.9,3.9v15.5C80.6,21.6,82.3,23.3,84.5,23.3z"/>
	<linearGradient id="XMLID_2_" gradientUnits="userSpaceOnUse" x1="0" y1="49.0123" x2="17.1907" y2="49.0123">
		<stop  offset="0" style="stop-color:#263545"/>
		<stop  offset="1" style="stop-color:#3B4E5D"/>
	</linearGradient>
	<path id="XMLID_40728_" class="st2" d="M16.8,57.9H0.4c-0.2,0-0.4-0.2-0.4-0.4v-17c0-0.2,0.2-0.4,0.4-0.4h16.5
		c0.2,0,0.4,0.2,0.4,0.4v17C17.2,57.7,17,57.9,16.8,57.9z"/>
	<linearGradient id="XMLID_3_" gradientUnits="userSpaceOnUse" x1="44.3274" y1="91.1484" x2="61.5181" y2="91.1484">
		<stop  offset="0" style="stop-color:#263545"/>
		<stop  offset="1" style="stop-color:#3B4E5D"/>
	</linearGradient>
	<path id="XMLID_40727_" class="st3" d="M61.2,100H44.7c-0.2,0-0.4-0.2-0.4-0.4v-17c0-0.2,0.2-0.4,0.4-0.4h16.5
		c0.2,0,0.4,0.2,0.4,0.4v17C61.5,99.8,61.4,100,61.2,100z"/>
	<linearGradient id="XMLID_4_" gradientUnits="userSpaceOnUse" x1="0" y1="91.1484" x2="17.1907" y2="91.1484">
		<stop  offset="0" style="stop-color:#263545"/>
		<stop  offset="1" style="stop-color:#3B4E5D"/>
	</linearGradient>
	<path id="XMLID_40726_" class="st4" d="M16.8,100H0.4C0.2,100,0,99.8,0,99.6v-17c0-0.2,0.2-0.4,0.4-0.4h16.5c0.2,0,0.4,0.2,0.4,0.4
		v17C17.2,99.8,17,100,16.8,100z"/>
	<linearGradient id="XMLID_5_" gradientUnits="userSpaceOnUse" x1="22.1637" y1="91.1484" x2="39.3544" y2="91.1484">
		<stop  offset="0" style="stop-color:#263545"/>
		<stop  offset="1" style="stop-color:#3B4E5D"/>
	</linearGradient>
	<path id="XMLID_40725_" class="st5" d="M39,100H22.5c-0.2,0-0.4-0.2-0.4-0.4v-17c0-0.2,0.2-0.4,0.4-0.4H39c0.2,0,0.4,0.2,0.4,0.4
		v17C39.4,99.8,39.2,100,39,100z"/>
	<linearGradient id="XMLID_6_" gradientUnits="userSpaceOnUse" x1="22.1637" y1="69.8874" x2="39.3544" y2="69.8874">
		<stop  offset="0" style="stop-color:#263545"/>
		<stop  offset="1" style="stop-color:#3B4E5D"/>
	</linearGradient>
	<path id="XMLID_40724_" class="st6" d="M39,78.7H22.5c-0.2,0-0.4-0.2-0.4-0.4v-17c0-0.2,0.2-0.4,0.4-0.4H39c0.2,0,0.4,0.2,0.4,0.4
		v17C39.4,78.6,39.2,78.7,39,78.7z"/>
	<linearGradient id="XMLID_7_" gradientUnits="userSpaceOnUse" x1="0" y1="69.8874" x2="17.1907" y2="69.8874">
		<stop  offset="0" style="stop-color:#263545"/>
		<stop  offset="1" style="stop-color:#3B4E5D"/>
	</linearGradient>
	<path id="XMLID_40723_" class="st7" d="M16.8,78.7H0.4c-0.2,0-0.4-0.2-0.4-0.4v-17C0,61.2,0.2,61,0.4,61h16.5
		c0.2,0,0.4,0.2,0.4,0.4v17C17.2,78.6,17,78.7,16.8,78.7z"/>
	<linearGradient id="XMLID_8_" gradientUnits="userSpaceOnUse" x1="44.3274" y1="49.0123" x2="61.5181" y2="49.0123">
		<stop  offset="0" style="stop-color:#263545"/>
		<stop  offset="1" style="stop-color:#3B4E5D"/>
	</linearGradient>
	<path id="XMLID_40722_" class="st8" d="M61.2,57.9H44.7c-0.2,0-0.4-0.2-0.4-0.4v-17c0-0.2,0.2-0.4,0.4-0.4h16.5
		c0.2,0,0.4,0.2,0.4,0.4v17C61.5,57.7,61.4,57.9,61.2,57.9z"/>
	<linearGradient id="XMLID_9_" gradientUnits="userSpaceOnUse" x1="22.0348" y1="49.0123" x2="39.2256" y2="49.0123">
		<stop  offset="0" style="stop-color:#263545"/>
		<stop  offset="1" style="stop-color:#3B4E5D"/>
	</linearGradient>
	<path id="XMLID_40721_" class="st9" d="M38.9,57.9H22.4c-0.2,0-0.4-0.2-0.4-0.4v-17c0-0.2,0.2-0.4,0.4-0.4h16.5
		c0.2,0,0.4,0.2,0.4,0.4v17C39.2,57.7,39.1,57.9,38.9,57.9z"/>
	<linearGradient id="XMLID_10_" gradientUnits="userSpaceOnUse" x1="0" y1="49.0123" x2="17.1907" y2="49.0123">
		<stop  offset="0" style="stop-color:#1C2A3A"/>
		<stop  offset="1" style="stop-color:#233444"/>
	</linearGradient>
	<path id="XMLID_40720_" class="st10" d="M17,57.9H0.2c-0.1,0-0.2-0.1-0.2-0.2l17-17.5c0.1,0,0.2,0.1,0.2,0.2v17.3
		C17.2,57.8,17.1,57.9,17,57.9z"/>
	<path id="XMLID_40719_" class="st11" d="M105.4,57.9H89c-0.2,0-0.4-0.2-0.4-0.4v-17c0-0.2,0.2-0.4,0.4-0.4h16.5
		c0.2,0,0.4,0.2,0.4,0.4v17C105.8,57.7,105.6,57.9,105.4,57.9z"/>
	<path id="XMLID_40718_" class="st12" d="M105.6,57.9H88.8c-0.1,0-0.2-0.1-0.2-0.2l17-17.5c0.1,0,0.2,0.1,0.2,0.2v17.3
		C105.8,57.8,105.7,57.9,105.6,57.9z"/>
	<path id="XMLID_40717_" class="st13" d="M83.3,57.9H66.8c-0.2,0-0.4-0.2-0.4-0.4v-17c0-0.2,0.2-0.4,0.4-0.4h16.5
		c0.2,0,0.4,0.2,0.4,0.4v17C83.6,57.7,83.5,57.9,83.3,57.9z"/>
	<path id="XMLID_40716_" class="st14" d="M83.4,57.9H66.7c-0.1,0-0.2-0.1-0.2-0.2l17-17.5c0.1,0,0.2,0.1,0.2,0.2v17.3
		C83.6,57.8,83.5,57.9,83.4,57.9z"/>
	<path id="XMLID_40715_" class="st11" d="M105.4,78.7H89c-0.2,0-0.4-0.2-0.4-0.4v-17c0-0.2,0.2-0.4,0.4-0.4h16.5
		c0.2,0,0.4,0.2,0.4,0.4v17C105.8,78.6,105.6,78.7,105.4,78.7z"/>
	<path id="XMLID_40714_" class="st12" d="M105.6,78.7H88.8c-0.1,0-0.2-0.1-0.2-0.2l17-17.5c0.1,0,0.2,0.1,0.2,0.2v17.3
		C105.8,78.6,105.7,78.7,105.6,78.7z"/>
	<path id="XMLID_40713_" class="st13" d="M83.3,78.7H66.8c-0.2,0-0.4-0.2-0.4-0.4v-17c0-0.2,0.2-0.4,0.4-0.4h16.5
		c0.2,0,0.4,0.2,0.4,0.4v17C83.6,78.6,83.5,78.7,83.3,78.7z"/>
	<path id="XMLID_40712_" class="st14" d="M83.4,78.7H66.7c-0.1,0-0.2-0.1-0.2-0.2l17-17.5c0.1,0,0.2,0.1,0.2,0.2v17.3
		C83.6,78.6,83.5,78.7,83.4,78.7z"/>
	<path id="XMLID_40711_" class="st11" d="M105.4,100H89c-0.2,0-0.4-0.2-0.4-0.4v-17c0-0.2,0.2-0.4,0.4-0.4h16.5
		c0.2,0,0.4,0.2,0.4,0.4v17C105.8,99.8,105.6,100,105.4,100z"/>
	<path id="XMLID_40710_" class="st12" d="M105.6,100H88.8c-0.1,0-0.2-0.1-0.2-0.2l17-17.5c0.1,0,0.2,0.1,0.2,0.2v17.3
		C105.8,99.9,105.7,100,105.6,100z"/>
	<path id="XMLID_40709_" class="st13" d="M83.3,100H66.8c-0.2,0-0.4-0.2-0.4-0.4v-17c0-0.2,0.2-0.4,0.4-0.4h16.5
		c0.2,0,0.4,0.2,0.4,0.4v17C83.6,99.8,83.5,100,83.3,100z"/>
	<path id="XMLID_40708_" class="st14" d="M83.4,100H66.7c-0.1,0-0.2-0.1-0.2-0.2l17-17.5c0.1,0,0.2,0.1,0.2,0.2v17.3
		C83.6,99.9,83.5,100,83.4,100z"/>
	<path id="XMLID_40707_" class="st15" d="M105.8,12.5v23.4c0,0.1-0.1,0.2-0.2,0.2H0.2C0.1,36,0,36,0,35.9V12.3
		c0-0.9,0.7-1.5,1.5-1.5H11c0.4,0,0.7,0.3,0.7,0.7l0,8c0,4.6,3.3,8.7,7.9,9.3c5.5,0.8,10.4-3.6,10.4-8.9v-8.3c0-0.4,0.3-0.7,0.7-0.7
		h12c0.4,0,0.7,0.3,0.7,0.7l0,8c0,4.6,3.3,8.7,7.9,9.3c5.5,0.8,10.4-3.6,10.4-8.9v-8.3c0-0.4,0.3-0.7,0.7-0.7h12
		c0.4,0,0.7,0.3,0.7,0.7v8.3c0,4.8,3.8,9,8.6,9.1c5.1,0.1,9-4,9-9v-8.3c0-0.4,0.3-0.7,0.7-0.7h10.5C105,10.8,105.8,11.5,105.8,12.5z
		"/>
	<path id="XMLID_40706_" class="st16" d="M61.2,57.9H44.7c-0.2,0-0.4-0.2-0.4-0.4v-17c0-0.2,0.2-0.4,0.4-0.4h16.5
		c0.2,0,0.4,0.2,0.4,0.4v17C61.5,57.7,61.4,57.9,61.2,57.9z"/>
	<path id="XMLID_40705_" class="st0" d="M61.3,57.9H44.5c-0.1,0-0.2-0.1-0.2-0.2l17-17.5c0.1,0,0.2,0.1,0.2,0.2v17.3
		C61.5,57.8,61.4,57.9,61.3,57.9z"/>
	<path id="XMLID_40703_" class="st16" d="M39,57.9H22.5c-0.2,0-0.4-0.2-0.4-0.4v-17c0-0.2,0.2-0.4,0.4-0.4H39c0.2,0,0.4,0.2,0.4,0.4
		v17C39.3,57.7,39.2,57.9,39,57.9z"/>
	<path id="XMLID_40702_" class="st0" d="M39.1,57.9H22.4c-0.1,0-0.2-0.1-0.2-0.2l17-17.5c0.1,0,0.2,0.1,0.2,0.2v17.3
		C39.3,57.8,39.2,57.9,39.1,57.9z"/>
	<path id="XMLID_40700_" class="st16" d="M16.8,78.7H0.4c-0.2,0-0.4-0.2-0.4-0.4v-17C0,61.2,0.2,61,0.4,61h16.5
		c0.2,0,0.4,0.2,0.4,0.4v17C17.2,78.6,17,78.7,16.8,78.7z"/>
	<path id="XMLID_40699_" class="st0" d="M17,78.7H0.2c-0.1,0-0.2-0.1-0.2-0.2L17,61c0.1,0,0.2,0.1,0.2,0.2v17.3
		C17.2,78.6,17.1,78.7,17,78.7z"/>
	<g id="XMLID_40695_" class="st17">
		<path id="XMLID_40697_" class="st16" d="M16.8,100H0.4C0.2,100,0,99.8,0,99.6v-17c0-0.2,0.2-0.4,0.4-0.4h16.5
			c0.2,0,0.4,0.2,0.4,0.4v17C17.2,99.8,17,100,16.8,100z"/>
		<path id="XMLID_40696_" class="st0" d="M17,100H0.2C0.1,100,0,99.9,0,99.8l17-17.5c0.1,0,0.2,0.1,0.2,0.2v17.3
			C17.2,99.9,17.1,100,17,100z"/>
	</g>
	<path id="XMLID_40694_" class="st16" d="M39,78.7H22.5c-0.2,0-0.4-0.2-0.4-0.4v-17c0-0.2,0.2-0.4,0.4-0.4H39c0.2,0,0.4,0.2,0.4,0.4
		v17C39.3,78.6,39.2,78.7,39,78.7z"/>
	<path id="XMLID_40693_" class="st0" d="M39.1,78.7H22.4c-0.1,0-0.2-0.1-0.2-0.2l17-17.5c0.1,0,0.2,0.1,0.2,0.2v17.3
		C39.3,78.6,39.2,78.7,39.1,78.7z"/>
	<g id="XMLID_40689_">
		<path id="XMLID_40691_" class="st16" d="M16.9,100H0.4C0.2,100,0,99.8,0,99.6v-17c0-0.2,0.2-0.4,0.4-0.4h16.5
			c0.2,0,0.4,0.2,0.4,0.4v17C17.2,99.8,17.1,100,16.9,100z"/>
		<path id="XMLID_40690_" class="st0" d="M17,100H0.2C0.1,100,0,99.9,0,99.8l17-17.5c0.1,0,0.2,0.1,0.2,0.2v17.3
			C17.2,99.9,17.1,100,17,100z"/>
	</g>
	<g id="XMLID_40686_">
		<path id="XMLID_40688_" class="st16" d="M39,100H22.5c-0.2,0-0.4-0.2-0.4-0.4v-17c0-0.2,0.2-0.4,0.4-0.4H39c0.2,0,0.4,0.2,0.4,0.4
			v17C39.4,99.8,39.2,100,39,100z"/>
		<path id="XMLID_40687_" class="st0" d="M39.2,100H22.4c-0.1,0-0.2-0.1-0.2-0.2l17-17.5c0.1,0,0.2,0.1,0.2,0.2v17.3
			C39.4,99.9,39.3,100,39.2,100z"/>
	</g>
	<g id="XMLID_40683_">
		<path id="XMLID_40685_" class="st16" d="M61.2,100H44.7c-0.2,0-0.4-0.2-0.4-0.4v-17c0-0.2,0.2-0.4,0.4-0.4h16.5
			c0.2,0,0.4,0.2,0.4,0.4v17C61.5,99.8,61.4,100,61.2,100z"/>
		<path id="XMLID_40684_" class="st0" d="M61.3,100H44.5c-0.1,0-0.2-0.1-0.2-0.2l17-17.5c0.1,0,0.2,0.1,0.2,0.2v17.3
			C61.5,99.9,61.4,100,61.3,100z"/>
	</g>
	<path id="XMLID_40681_" class="st16" d="M16.8,57.9H0.4c-0.2,0-0.4-0.2-0.4-0.4v-17c0-0.2,0.2-0.4,0.4-0.4h16.5
		c0.2,0,0.4,0.2,0.4,0.4v17C17.2,57.7,17,57.9,16.8,57.9z"/>
	<path id="XMLID_40680_" class="st0" d="M17,57.9H0.2c-0.1,0-0.2-0.1-0.2-0.2l17-17.5c0.1,0,0.2,0.1,0.2,0.2v17.3
		C17.2,57.8,17.1,57.9,17,57.9z"/>
</g>
</svg>
