<?xml version="1.0" encoding="utf-8"?>
<!-- Generator: Adobe Illustrator 21.0.2, SVG Export Plug-In . SVG Version: 6.00 Build 0)  -->
<svg version="1.1" id="Layer_1" xmlns="http://www.w3.org/2000/svg" xmlns:xlink="http://www.w3.org/1999/xlink" x="0px" y="0px"
	 width="113.5px" height="110px" viewBox="0 0 113.5 110" style="enable-background:new 0 0 113.5 110;" xml:space="preserve">
<style type="text/css">
	.st0{fill:#177575;}
	.st1{fill:#009999;}
</style>
<path class="st0" d="M95.3,94.1c11.1-9.9,18.2-24.3,18.2-40.3C113.5,24.1,89.4,0,59.7,0c-7.7,0-15,1.6-21.6,4.5V4.5H0v1.4h1.8
	c1.2,0,2.4,0.3,3.5,0.9C5.7,7,6.1,7.3,6.4,7.6C6.6,7.8,6.8,8.2,7,8.7c0.1,0.5,0.2,1.1,0.3,1.9c0.1,0.8,0.1,1.7,0.1,2.9v33.1
	c0,3.1-0.3,5-0.9,5.8c-0.9,1.2-2.5,1.8-4.6,1.8H0v1.4h5.9c1,28.9,24.6,52,53.8,52c5.7,0,11.3-0.9,16.4-2.6
	c17.6,7.4,37.4,4.3,37.4,4.3C103.8,106,95.3,94.1,95.3,94.1z M59.4,88.2c-21.2,0-38.9-13.9-43.6-32.6H22v-1.4h-1.8
	c-1.2,0-2.4-0.3-3.5-0.9c-0.5-0.3-0.8-0.5-1.1-0.8c-0.3-0.3-0.5-0.7-0.6-1.2c-0.1-0.5-0.2-1.1-0.3-1.8c-0.1-0.8-0.1-1.7-0.1-2.9
	V30.5h9.3c1.3,0,2.3,0.1,3.2,0.4c0.8,0.3,1.5,0.7,2,1.3c0.5,0.6,0.9,1.3,1.1,2.2c0.2,0.9,0.4,2,0.4,3.3H32V20.3h-1.4
	c-0.2,1.4-0.4,2.6-0.7,3.5c-0.3,0.9-0.7,1.6-1.2,2.2c-0.5,0.5-1.2,0.9-1.9,1.1c-0.8,0.2-1.7,0.3-2.8,0.3h-9.3V7.3h11.3
	c1.7,0,3.1,0.1,4.3,0.3c1.2,0.2,2.3,0.6,3.2,1.2c0.9,0.6,1.6,1.5,2.3,2.6c0.6,1.1,1.2,2.6,1.7,4.4h0.8V8.8
	c6.3-3.2,13.6-5.1,21.3-5.1c24.7,0,44.8,18.9,44.8,42.3C104.1,69.3,84.1,88.2,59.4,88.2z"/>
<path id="XMLID_213_" class="st1" d="M67.8,52.4H46.7l-3.7,6.7c-0.9,1.6-1.4,2.9-1.4,3.7c0,0.3,0.1,0.6,0.2,0.9
	c0.1,0.3,0.4,0.5,0.9,0.8c0.5,0.2,1.1,0.4,1.9,0.6c0.8,0.2,1.9,0.3,3.3,0.4v1.2H30.7v-1.2c2.3-0.3,3.7-0.7,4.4-1.2
	c0.7-0.5,1.4-1.3,2.2-2.3c0.7-1,1.5-2.3,2.4-3.8l19.2-34.9h1.4l19,35.3c0.8,1.5,1.5,2.6,2.2,3.5c0.7,0.9,1.3,1.6,2,2.1
	c0.7,0.5,1.5,0.8,2.3,1c0.8,0.2,1.8,0.3,2.9,0.3v1.2H67.2v-1.2c1.1,0,2-0.1,2.7-0.3c0.7-0.1,1.3-0.3,1.7-0.6
	c0.4-0.2,0.7-0.5,0.9-0.8c0.2-0.3,0.3-0.6,0.3-1c0-0.5-0.1-1-0.4-1.8c-0.3-0.7-0.7-1.6-1.2-2.6L67.8,52.4z M66.7,50.1L57.4,33
	l-9.5,17.1H66.7z"/>
</svg>
