<?xml version="1.0" encoding="utf-8"?>
<!-- Generator: Adobe Illustrator 21.0.2, SVG Export Plug-In . SVG Version: 6.00 Build 0)  -->
<svg version="1.1" id="Layer_1" xmlns="http://www.w3.org/2000/svg" xmlns:xlink="http://www.w3.org/1999/xlink" x="0px" y="0px"
	 width="100px" height="100px" viewBox="0 0 100 100" style="enable-background:new 0 0 100 100;" xml:space="preserve">
<style type="text/css">
	.st0{fill:#3B5998;}
</style>
<path class="st0" d="M95.9,0H4.1C1.8,0,0,1.8,0,4.1v91.9c0,2.2,1.8,4.1,4.1,4.1h46.4c0-4.5-0.1-25.7,0-36.2c0-1.3-0.3-1.6-1.6-1.6
	c-3.5,0.1-6.9,0-10.4,0.1c-0.9,0-1.2-0.2-1.2-1.2c0.1-4.2,0.1-8.5,0-12.7c0-1,0.3-1.2,1.2-1.2c3.5,0,7,0,10.6,0
	c1.1,0,1.4-0.2,1.4-1.4c0-4.5-0.3-9,0.2-13.4c1.2-9.5,7.7-15.5,17.3-16c4-0.2,8,0.1,12.1,0.3c1,0.1,1.3,0.4,1.3,1.5
	c-0.1,3.7-0.1,7.3,0,11c0,1-0.3,1.3-1.3,1.2c-2.5-0.1-5.1-0.1-7.6,0c-4.6,0.1-6.6,2.2-6.7,6.7c0,3,0,5.9,0,8.9
	c0,1.1,0.4,1.2,1.3,1.2c4.1,0,8.3,0,12.4,0c1,0,1.3,0.2,1.1,1.3c-0.6,4.1-1.1,8.3-1.6,12.4c-0.1,1-0.4,1.4-1.5,1.3
	c-3.5-0.1-7,0-10.6,0c-0.9,0-1.2,0.2-1.2,1.2c0,10.8,0,32.1,0,36.6h30.2c2.2,0,4.1-1.8,4.1-4.1V4.1C100,1.8,98.2,0,95.9,0z"/>
</svg>
