<?xml version="1.0" encoding="utf-8"?>
<!-- Generator: Adobe Illustrator 21.0.2, SVG Export Plug-In . SVG Version: 6.00 Build 0)  -->
<svg version="1.1" id="Layer_1" xmlns="http://www.w3.org/2000/svg" xmlns:xlink="http://www.w3.org/1999/xlink" x="0px" y="0px"
	 width="92.4px" height="110px" viewBox="0 0 92.4 110" style="enable-background:new 0 0 92.4 110;" xml:space="preserve">
<style type="text/css">
	.st0{fill:#F7F9F9;}
	.st1{opacity:0.3;}
	.st2{fill-rule:evenodd;clip-rule:evenodd;fill:#7B8D8E;}
	.st3{fill:#BF004E;}
	.st4{fill:#D7004E;}
	.st5{fill:#7B8D8E;}
	.st6{fill:#BAC2C6;}
</style>
<polygon id="XMLID_55631_" class="st0" points="79.5,0.2 0,0.2 0,110 92.4,110 92.4,12.7 "/>
<g id="XMLID_55353_" class="st1">
	<g>
		<polygon id="XMLID_9_" class="st2" points="79.4,0 79.4,12.5 92.4,12.5 		"/>
	</g>
</g>
<path id="XMLID_55615_" class="st2" d="M75.7,79.1H33.9c-0.8,0-1.5-0.7-1.5-1.5v-0.4c0-0.8,0.7-1.5,1.5-1.5h41.8
	c0.8,0,1.5,0.7,1.5,1.5v0.4C77.2,78.5,76.5,79.1,75.7,79.1z"/>
<path id="XMLID_55614_" class="st2" d="M75.7,86.2H17.6c-0.8,0-1.5-0.7-1.5-1.5v-0.4c0-0.8,0.7-1.5,1.5-1.5h58.1
	c0.8,0,1.5,0.7,1.5,1.5v0.4C77.2,85.6,76.5,86.2,75.7,86.2z"/>
<path id="XMLID_55613_" class="st2" d="M75.7,93.3H17.6c-0.8,0-1.5-0.7-1.5-1.5v-0.4c0-0.8,0.7-1.5,1.5-1.5h58.1
	c0.8,0,1.5,0.7,1.5,1.5v0.4C77.2,92.7,76.5,93.3,75.7,93.3z"/>
<path id="XMLID_55529_" class="st3" d="M64.5,30.7c0.1,0,0.1,0.1,0.2,0.1c3.7,3.7,7.5,7.5,11.2,11.2c0.1,0.1,0.1,0.1,0.2,0.2
	c-0.8,0.2-1.5,0.5-2.3,0.7c-1.7,0.4-3.5,0.7-5.3,0.7c-0.2,0-0.3,0.1-0.4,0.2c-5.5,5.5-11,11-16.5,16.5c-0.2,0.2-0.2,0.4-0.1,0.6
	c0.2,1.2,0.3,2.3,0.2,3.5c0,2.4-0.4,4.7-1.1,7c-0.2,0-0.2-0.2-0.3-0.3C46.6,67.6,43,64,39.4,60.4c-0.1-0.1-0.2-0.2-0.3-0.3
	c0-0.1-0.1-0.2-0.2-0.3c-0.6-0.6-1.2-1.2-1.8-1.8c0-0.1,0.1-0.2,0.2-0.3c8.9-8.9,17.9-17.9,26.8-26.8C64.3,30.8,64.3,30.7,64.5,30.7
	z"/>
<path id="XMLID_55526_" class="st4" d="M64.5,30.7c-0.1,0-0.2,0.1-0.3,0.2c-8.9,8.9-17.9,17.9-26.8,26.8c-0.1,0.1-0.2,0.2-0.2,0.3
	c0,0,0,0-0.1,0c-0.7-0.7-1.4-1.4-2.1-2.1c-0.1-0.1-0.2-0.2-0.3-0.3c-3.6-3.6-7.2-7.2-10.8-10.8c-0.1-0.1-0.2-0.2-0.3-0.3
	c0.9-0.3,1.9-0.5,2.8-0.7c1.7-0.3,3.3-0.5,5-0.4c0.9,0,1.8,0.1,2.7,0.2c0.2,0,0.4,0,0.6-0.2c5.5-5.5,10.9-10.9,16.4-16.4
	c0.2-0.2,0.2-0.3,0.2-0.6c0-2.5,0.6-5,1.3-7.4c0,0,0-0.1,0-0.1c0.1,0,0.2,0.1,0.3,0.2c2.5,2.5,5,5,7.5,7.5c1.2,1.2,2.4,2.4,3.6,3.6
	C64.3,30.5,64.4,30.6,64.5,30.7z"/>
<path id="XMLID_55524_" class="st5" d="M37.1,58C37.1,58,37.1,58,37.1,58c0.7,0.6,1.3,1.2,1.9,1.8c0.1,0.1,0.2,0.2,0.2,0.3
	c-0.1,0.1-0.2,0.2-0.3,0.3C33.5,65.9,28,71.3,22.6,76.7c-0.2,0.2-0.3,0.3-0.6,0.4c-1.8,0.6-3.7,1.2-5.5,1.8c-0.1,0-0.3,0.1-0.4,0.1
	c0,0,0,0,0,0c0,0,0,0,0,0c0.1,0,0.2-0.2,0.3-0.3c6.8-6.8,13.6-13.6,20.3-20.3C36.9,58.2,37,58.1,37.1,58z"/>
<path id="XMLID_55523_" class="st6" d="M37.1,58c-0.1,0.1-0.2,0.2-0.3,0.3C30,65.1,23.2,71.9,16.4,78.7c-0.1,0.1-0.2,0.2-0.3,0.3
	c0-0.1,0.1-0.3,0.1-0.4c0.6-1.8,1.2-3.6,1.8-5.4c0.1-0.2,0.2-0.4,0.3-0.5c5.5-5.5,10.9-10.9,16.4-16.4c0.1-0.1,0.2-0.2,0.3-0.2
	C35.7,56.7,36.4,57.3,37.1,58z"/>
</svg>
