<?xml version="1.0" encoding="utf-8"?>
<!-- Generator: Adobe Illustrator 21.0.2, SVG Export Plug-In . SVG Version: 6.00 Build 0)  -->
<svg version="1.1" id="Layer_1" xmlns="http://www.w3.org/2000/svg" xmlns:xlink="http://www.w3.org/1999/xlink" x="0px" y="0px"
	 width="111.8px" height="110px" viewBox="0 0 111.8 110" style="enable-background:new 0 0 111.8 110;" xml:space="preserve">
<style type="text/css">
	.st0{fill:#C8D3D6;}
	.st1{fill:#1D8BBC;}
</style>
<path id="XMLID_14802_" class="st0" d="M38.9,45.4c-0.3,0.2-0.6,0.4-0.9,0.5c1,1.3,2.3,1.1,3.5,1c0.9-0.1,1.8-0.4,2.7-0.5
	c0.3,0,0.8,0.2,1,0.4c1.2,1.6,2.1,3.3,1.8,5.4c-0.1,0.4,0.2,0.9,0.4,1.2c0.7,1,1.4,1.9,2.1,2.9c0.4,0.6,0.8,0.7,1.2-0.3
	c0.2,1.7,1.4,2,2.7,2.2c1,0.1,1.7,0.5,2.4,1.2c0.5,0.5,1.1,0.8,1.9,1.2c-1.8,1.8-0.9,3.4,0.1,5.3c0.9,1.6,1.2,3.4,0.5,5.3
	c-0.4,1.2-0.3,2.6-0.5,3.9c-8.5,1.4-18.5-4-21.6-14C34.1,54.7,36.5,46.3,38.9,45.4"/>
<path id="XMLID_14801_" class="st0" d="M69.8,63.4c-0.7-0.4-1.3-0.7-1.8-1.1c-1-0.7-1.9-1.6-2.9-2.3c-0.5-0.4-1-0.7-1.6-0.9
	c-1.2-0.3-2.3-0.5-3.5-0.8c-0.1,0-0.3-0.1-0.4-0.1C58,59,57,58,55.9,57.3c-0.2-0.5-0.2-1.3-0.5-1.4c-0.4-0.2-1,0.2-1.6,0.3
	c-0.1-0.2-0.2-0.6-0.3-1c0.8-0.7,1.7-0.9,2.7-0.3c0.7,0.4,1.2,0.4,1.6-0.7c0.4-1.2,1.4-2.2,2.3-3.1c1.2-1.3,3.6-1.9,5.3-1.7
	c0.5-0.7,0.1-1.2-0.3-1.7c-0.9-1-1.6-2-2.4-3c-0.1-0.2-0.2-0.4-0.4-0.5c-1.3-0.3-2.5-0.5-3.9-0.8c-0.2,0.7-0.3,1.3-0.4,1.9
	c-1.6,0.2-2,0-2.2-1.3c1.7,0,1.9-1.3,2.1-2.7c0.7,0.3,1.5,0.2,1.6,1.3c0.1,0.9,2.2,1.1,3.1,0.3c-0.5-0.5-1-1-1.5-1.6
	c-0.5-0.5-0.9-1-1.5-1.7c1.9-0.2,3.6,0.7,3.9,2.2c0.4,1.8,1.8,2.7,3,3.8c0.5,0.5,1.1,0.6,1.4-0.2c0.3-0.6,0.7-0.8,1.4-0.9
	c0.8,0,1.6-0.2,2.4-0.2c0.3,0,0.7,0.2,0.8,0.5c1.6,2.7,2.6,5.5,2.9,8.6c0.4,5.4-1.1,10.1-4.3,14.4c-2.3,3-7.3,6.2-11,6.7
	c0.4-0.6,0.6-1,0.9-1.3c0.4-0.4,0.9-0.7,1.4-0.9c1.2-0.6,2-1.5,2.3-2.8c0.1-0.4,0.7-0.9,1.1-1.1c1.1-0.4,1.9-1.2,2.3-2.2
	C68.8,65.3,69.3,64.4,69.8,63.4"/>
<path id="XMLID_14797_" class="st0" d="M40.3,42.4c5.2-6.4,15.3-8.9,23.2-5.2c0,0-0.1,0.1-0.1,0.1c-1.7-0.6-2.9,0.1-4,1.4
	c-0.2,0.2-0.4,0.5-0.7,0.5c-1.3,0.1-2.7,0.2-4,0.2c-0.6,0-1,0-1.3,0.6c-0.3,0.7-0.8,1-1.6,0.9c-1.1-0.1-2.3-0.2-3.4-0.3
	c-0.2,0-0.5-0.1-0.6,0c-1.4,1-3,0.9-4.5,1.2C42.4,41.9,41.4,42.1,40.3,42.4 M59.9,36.8c-0.7-0.2-1.3-0.6-1.8-0.4c-1,0.4-2,1-3,1.6
	C56.5,39.1,57.8,38.8,59.9,36.8 M49,38.6c1.3,1.4,2.6,0.3,4.2,0c-0.4-0.5-0.7-1.1-0.9-1.1C51.2,37.9,49.8,37.1,49,38.6"/>
<path id="XMLID_14796_" class="st1" d="M34.9,21.4c0,0,15-1.6,25.6,4.6c13.8,8.1,18.3,24.3,18.3,24.3S81,43.6,77,32.1
	c-3-8.5-7-12.5-7-12.5s5-1.1,7.8-4.8c3.1-4.2,0.6-9.3,0.6-9.3s-3.1-8.1-12-4.7c-6.1,2.4-6.6,8.5-6.6,8.5S55.8,6.1,49,4.2
	c-9-2.5-13.3-1.1-13.3-1.1L34.9,21.4z"/>
<path id="XMLID_14795_" class="st1" d="M80.2,26c0,0,6.1,13.7,3.4,25.8C80.1,67.4,66,76.7,66,76.7s7.2,0,16.8-7.3
	c7.1-5.5,9.8-10.5,9.8-10.5s2.6,4.4,6.9,5.9c5,1.7,9-2.3,9-2.3s6.8-5.5,0.8-12.9c-4.1-5.1-10.1-3.7-10.1-3.7s1.8-4.7,1.6-11.8
	c-0.3-9.3-3-13-3-13L80.2,26z"/>
<path id="XMLID_14794_" class="st1" d="M52.4,94.8c0,0-13.1-7.5-18-18.8c-6.4-14.7-0.5-30.4-0.5-30.4s-5.8,4.2-9.2,15.8
	c-2.5,8.6-1.7,14.2-1.7,14.2s-4.7-2.1-9.1-0.7c-5,1.6-5.9,7.2-5.9,7.2S5.7,90.6,15,93c6.3,1.7,10.3-3,10.3-3s1.3,4.9,5.7,10.5
	c5.8,7.3,10.2,8.7,10.2,8.7L52.4,94.8z"/>
<path id="XMLID_14793_" class="st1" d="M91.8,70.3c0,0-11.1,10.1-23.5,11.3c-15.9,1.6-29.1-8.9-29.1-8.9s2.2,6.8,12.2,13.6
	c7.4,5.1,13,6,13,6s-3.4,3.8-3.5,8.5c-0.1,5.2,5,7.9,5,7.9s7.3,4.8,12.5-3.3c3.5-5.5,0.3-10.7,0.3-10.7s5,0.3,11.7-2.2
	c8.8-3.2,11.4-7,11.4-7L91.8,70.3z"/>
<path id="XMLID_14792_" class="st1" d="M17.1,65c0,0,3.2-14.7,12.5-22.9c12-10.6,28.9-9.7,28.9-9.7s-5.8-4.2-17.9-4
	c-9,0.2-14.1,2.7-14.1,2.7s0.6-5.1-2.1-8.9c-3-4.3-8.7-3.5-8.7-3.5s-8.7,0.4-8.3,9.9c0.3,6.5,6,8.9,6,8.9s-4.3,2.7-8.2,8.6
	C0,53.9,0,58.6,0,58.6L17.1,65z"/>
</svg>
