<?xml version="1.0" encoding="utf-8"?>
<!-- Generator: Adobe Illustrator 21.0.2, SVG Export Plug-In . SVG Version: 6.00 Build 0)  -->
<svg version="1.1" id="Layer_1" xmlns="http://www.w3.org/2000/svg" xmlns:xlink="http://www.w3.org/1999/xlink" x="0px" y="0px"
	 viewBox="0 0 121.5 96.2" style="enable-background:new 0 0 121.5 96.2;" xml:space="preserve">
<style type="text/css">
	.st0{fill:#565656;}
	.st1{fill:#2D3142;}
</style>
<g>
	<g>
		<path class="st0" d="M26.8,69.5c-4.6-4.6-9.1-9.1-13.7-13.7c-0.4-0.4-0.4-0.6,0-0.9c0.4-0.3,0.7-0.7,1-1c0.8-0.7,1.9-0.7,2.7,0
			c0.1,0.1,0.2,0.2,0.4,0.4c8.3,8.3,16.6,16.6,24.9,24.9c1.2,1.2,1.2,2.2,0,3.4c-0.4,0.4-0.7,1-1.1,1c-0.5,0-0.8-0.6-1.2-1
			C35.4,78.1,31.1,73.8,26.8,69.5z"/>
		<path class="st1" d="M44.8,79.7c-0.3-1.3-1.2-2-2-2.8c-0.3-0.3-0.4-0.5,0-0.9c1.8-1.8,3.6-3.7,5.1-5.8c0.6-0.8,1.1-1.6,1.3-2.5
			c0.4-1.4-0.4-2.4-1.8-2.4c-1.2,0-2.1,0.6-3,1.2c-0.4,0.3-0.8,0.6-1.3,0.9c-0.1,0.1-0.3,0.3-0.5,0.1c-0.1-0.2,0-0.3,0.1-0.4
			c0.5-0.8,1-1.6,1.2-2.5c0.3-0.9,0.3-1.8-0.2-2.7c-0.4-0.6-0.9-1-1.6-0.9c-1.4,0-2.6,0.6-3.8,1.2c-0.9,0.5-1.7,1-2.5,1.6
			c-0.2,0.1-0.4,0.4-0.6,0.1c-0.2-0.2,0-0.4,0.2-0.6c0.7-0.9,1.3-1.9,1.7-2.9c1.2-2.9-0.6-5.2-3.7-4.8c-0.2,0-0.4,0.1-0.6,0.1
			c-0.2,0-0.4,0.2-0.5-0.1c-0.1-0.2,0.1-0.4,0.2-0.5c0.4-0.5,0.8-1,1-1.6c0.4-0.9,0.3-1.8-0.3-2.5c-0.6-0.8-1.2-1-2.2-0.8
			c-1.3,0.3-2.4,1.1-3.5,1.9c-0.1,0.1-0.2,0.2-0.3,0.2c-0.2,0.1-0.3,0.3-0.5,0.1c-0.1-0.2,0-0.3,0.1-0.5c0.2-0.4,0.5-0.7,0.7-1.1
			c0.3-0.5,0.4-1,0-1.5c-0.4-0.5-0.9-0.5-1.5-0.3c-1.1,0.4-2,1.1-2.8,1.8c-1,0.8-2,1.7-3,2.6c-0.3,0.3-0.5,0.2-0.7,0
			c-0.8-0.8-1.6-1.8-2.9-2.1c0.2-0.2,0.4-0.4,0.5-0.5c3.7-3.7,7.3-7.3,11-11c1.1-1.1,2.2-1.1,3.3,0c8.3,8.3,16.7,16.7,25,25
			c1.1,1.1,1.1,2.2,0,3.3c-3.7,3.7-7.3,7.3-11,11C45.1,79.4,45,79.5,44.8,79.7z"/>
		<path class="st0" d="M9.7,58.2c-1.5,1.6-1.5,4,0,5.6c0.7,0.7,1.3,1.4,1.9,2.1c1,1.2,1.9,2.5,2.3,4.1c0.6,2,0.1,3.7-1.3,5.1
			c-1.4,1.5-3,2.7-4.9,3.5c-2.4,1.2-4.5,2.8-6.2,4.9c-1.8,2.3-2.1,5.2-0.6,7.8c0.8,1.3,1.8,2.4,3,3.4c2.6,1.9,5.6,2.1,8.2,0.3
			c2.2-1.5,3.8-3.5,5-5.9c0.8-1.5,1.6-3,2.7-4.3c2.6-3.2,5.2-3.6,8.7-1.5c1.4,0.9,2.6,2,3.8,3.1c1.3,1.3,3.4,1.5,4.9,0.5
			c0.6-0.4,1.1-1,1.7-1.5c0.4-0.3,0.4-0.5,0-0.9c-4.6-4.5-9.1-9.1-13.7-13.6c-4.3-4.3-8.5-8.5-12.8-12.8c-0.5-0.5-0.9-1.3-1.4-1.3
			C10.7,56.9,10.2,57.7,9.7,58.2z M11.2,85c1.6,1.6,1.6,4.1,0,5.7c-1.5,1.5-4.1,1.5-5.6,0C4,89.1,4,86.6,5.5,85
			C7.1,83.5,9.6,83.4,11.2,85z"/>
	</g>
	<g>
		<path class="st0" d="M6.4,76.4c0-4.4,0-8.9,0-13.3c-0.5-1.4-0.5-2.9,0-4.3c0-4.2,0-8.4,0-12.7l0-7.5l0-4.7c0-4.8,0-9.7,0-14.5
			c0-0.6,0.1-1.4,0.6-1.9C7.5,17.1,8.3,17,9,17c12.7,0,25.4,0,38.1,0h21.2h35.5c2.3,0,2.7,0.5,2.7,2.7l0,15c0,14.8,0,29.7,0,44.5
			c0,0.5-0.1,1.3-0.6,1.8c-0.5,0.5-1.2,0.5-1.8,0.6c-19.7,0-39.3,0-59,0c-0.3,0-0.5,0-0.8,0c-0.1,0.4-0.3,0.8-0.5,1.2
			c-0.2,0.3-0.4,0.6-0.7,0.8c-0.1,0.1-0.1,0.2-0.2,0.2c-0.3,0.3-0.6,0.7-1.1,1c0,0.1,0,0.3,0,0.4c0,0.9-0.5,1.6-1.2,2.3
			c-0.2,0.1-0.3,0.3-0.4,0.4c0,0-0.1,0.1-0.1,0.1l66.7,0c4.1,0,6.2-2.1,6.2-6.2l0-76.2c0-3.2-2.4-5.6-5.6-5.6c-12,0-24.1,0-36.1,0
			L56.6,0L46.4,0L5.6,0C2.3,0,0,2.3,0,5.6l0,75.8C1.7,79.4,3.9,77.7,6.4,76.4z M102.7,5.1c2.1,0,3.8,1.6,3.8,3.6c0,1-0.4,2-1.1,2.7
			c-0.7,0.7-1.7,1.1-2.6,1.1c0,0,0,0-0.1,0c-2,0-3.6-1.7-3.6-3.7C99.1,6.7,100.5,5.2,102.7,5.1z M88.5,6.1c0.7-0.7,1.6-1,2.6-1
			c2.1,0,3.8,1.6,3.9,3.6c0,1-0.4,2-1.1,2.7c-0.7,0.7-1.7,1.2-2.7,1.2c0,0,0,0,0,0c-2,0-3.6-1.7-3.6-3.8C87.5,7.7,87.9,6.8,88.5,6.1
			z M18.8,6.5c0.6-0.6,1.4-0.8,2.5-0.8l57.4,0c1.2,0,2.1,0.3,2.7,0.9c0.5,0.6,0.8,1.4,0.8,2.3c0,1.3-0.6,2.9-3.2,2.9
			c-4,0-8.1,0-12.1,0l-16.7,0c-5.8,0-11.7,0-17.5,0c-3.8,0-7.6,0-11.3,0c-2.2,0-3.3-1-3.4-3.1C18,7.8,18.2,7,18.8,6.5z M7.5,6.2
			c0.7-0.7,1.7-1.1,2.7-1.1c1,0,2,0.4,2.7,1C13.6,6.8,14,7.8,14,8.8c0,1-0.4,2-1.2,2.7c-0.7,0.7-1.6,1.1-2.5,1.1c0,0,0,0-0.1,0
			c-2,0-3.7-1.8-3.8-3.7C6.5,7.8,6.8,6.9,7.5,6.2z"/>
		<path class="st0" d="M121.5,13.7c0-2.6-1.5-4.6-4-5.4c0,0,0,0,0,0c0,1.2,0,2.4,0,3.5l0,1.6l0,17.8c0,17.2,0,34.5,0,51.7
			c0,5.3-4.2,9.4-9.5,9.5l-7.1,0l-69.3,0c-4.4,0-8.8,0-13.2,0c-1,1.5-2.1,2.7-3.4,3.8c12.4,0,24.8,0,37.1,0H66v0h12.5l37.3,0h0
			c1.6,0,3-0.6,4.1-1.6c1.1-1,1.6-2.4,1.6-3.9L121.5,13.7z"/>
	</g>
</g>
</svg>
