<?xml version="1.0" encoding="utf-8"?>
<!-- Generator: Adobe Illustrator 21.0.2, SVG Export Plug-In . SVG Version: 6.00 Build 0)  -->
<svg version="1.1" id="Layer_1" xmlns="http://www.w3.org/2000/svg" xmlns:xlink="http://www.w3.org/1999/xlink" x="0px" y="0px"
	 width="110px" height="110px" viewBox="0 0 110 110" style="enable-background:new 0 0 110 110;" xml:space="preserve">
<style type="text/css">
	.st0{fill:#0084B4;}
</style>
<path id="XMLID_48671_" class="st0" d="M110,6.1c0-3.4-2.7-6.1-6.1-6.1H6.1C2.7,0,0,2.7,0,6.1v97.9c0,3.4,2.7,6.1,6.1,6.1h97.9
	c3.4,0,6.1-2.7,6.1-6.1V6.1z M95.9,29.5c-2.1,3.1-4.7,5.8-7.8,8.1c-0.2,0.2-0.3,0.3-0.3,0.6c0.1,2,0,3.9-0.1,5.9
	c-0.3,3.2-0.9,6.3-1.8,9.3c-2.1,7-5.5,13.4-10.3,18.9c-5.6,6.3-12.4,10.8-20.4,13.3c-2.9,0.9-5.9,1.5-9,1.9
	c-2.8,0.3-5.7,0.4-8.5,0.3c-8.3-0.4-16-2.9-23-7.3c-0.1,0-0.2-0.1-0.2-0.2c9.1,0.9,17.3-1.4,24.7-6.9c-7.7-0.6-12.9-4.5-15.6-11.7
	c1.3,0.2,2.5,0.3,3.8,0.2c1.3,0,2.5-0.2,3.8-0.6c-4.9-1.1-8.7-3.8-11.2-8.2c-1.8-3.1-2.3-6.4-2.2-8.5c2.3,1.3,4.8,2,7.5,2.1
	c-4.5-3.2-7-7.5-7.4-12.9c-0.3-4.1,1-7.6,2.3-9.5c0.7,0.8,1.3,1.6,2.1,2.3c4.1,4.4,8.8,7.9,14.2,10.5c3.8,1.8,7.8,3.2,12,3.9
	c2,0.4,4,0.6,6.1,0.7c0.2,0,0.3,0,0.3-0.3c-1-5.2,0.1-10,3.4-14.1c2.7-3.4,6.3-5.4,10.6-6c5.6-0.7,10.4,0.9,14.5,4.9
	c0.1,0.1,0.3,0.2,0.5,0.1c3.5-0.7,6.9-2,10-3.8c0.1,0,0.2-0.1,0.3-0.1c-0.1,0.5-0.3,0.9-0.5,1.3c-1.4,3.2-3.5,5.7-6.4,7.6
	c-0.1,0.1-0.2,0.1-0.2,0.2c0.8,0,1.6-0.2,2.4-0.4c2.3-0.5,4.5-1.1,6.7-2.1c0.1,0,0.1,0,0.2-0.1C96,29.3,95.9,29.4,95.9,29.5z"/>
</svg>
