<?xml version="1.0" encoding="utf-8"?>
<!-- Generator: Adobe Illustrator 21.0.2, SVG Export Plug-In . SVG Version: 6.00 Build 0)  -->
<svg version="1.1" id="Layer_1" xmlns="http://www.w3.org/2000/svg" xmlns:xlink="http://www.w3.org/1999/xlink" x="0px" y="0px"
	 width="115.2px" height="110px" viewBox="0 0 115.2 110" style="enable-background:new 0 0 115.2 110;" xml:space="preserve">
<g id="XMLID_590_">
	<g>
		<defs>
			<path id="XMLID_17_" d="M115.2,47c0,29.4-23.9,53.3-53.3,53.3c-12.6,0-24.2-4.4-33.4-11.8L8.6,108.5c-2,2-5.2,2-7.1,0
				c-2-2-2-5.2,0-7.1l19.9-19.9C13.4,72.2,8.6,60.2,8.6,47c0-14.7,5.8-28.3,16.4-38.5c2-1.9,5.2-1.9,7.1,0.1c1.9,2,1.9,5.2-0.1,7.1
				C23.4,24.1,18.7,35.2,18.7,47c0,23.8,19.4,43.2,43.2,43.2c23.8,0,43.2-19.4,43.2-43.2c0-12.7-5.6-24.7-15.3-33
				c-2.1-1.8-2.4-5-0.6-7.1c1.8-2.1,5-2.4,7.1-0.6C108.4,16.6,115.2,31.4,115.2,47z"/>
		</defs>
		<use xlink:href="#XMLID_17_"  style="overflow:visible;fill:#0082B1;"/>
		<clipPath id="XMLID_2_">
			<use xlink:href="#XMLID_17_"  style="overflow:visible;"/>
		</clipPath>
	</g>
</g>
<g id="XMLID_587_">
	<g>
		<defs>
			<path id="XMLID_14_" d="M44.3,46.7c0,2.3,1.9,3.8,4.2,3.8h9.2v8.2c0,2.3,1.5,4.2,3.8,4.2c2.3,0,3.8-1.9,3.8-4.2v-8.2h8.2
				c2.3,0,4.2-1.5,4.2-3.8c0-2.3-1.9-3.8-4.2-3.8h-8.2v-9.2c0-2.3-1.5-4.2-3.8-4.2c-2.3,0-3.8,1.9-3.8,4.2v9.2h-9.2
				C46.2,42.9,44.3,44.4,44.3,46.7z"/>
		</defs>
		<use xlink:href="#XMLID_14_"  style="overflow:visible;fill:#0093BA;"/>
		<clipPath id="XMLID_3_">
			<use xlink:href="#XMLID_14_"  style="overflow:visible;"/>
		</clipPath>
	</g>
</g>
<g id="XMLID_584_">
	<g>
		<defs>
			<path id="XMLID_11_" d="M20.9,25.3C32.6,2.5,60.7-6.6,83.6,5.1C95,11,103.3,20.9,106.9,33.2c0.7,2.3-0.6,4.8-3,5.5
				c-2.3,0.7-4.8-0.6-5.5-3c-3-9.9-9.7-18-18.9-22.8C61,3.5,38.2,10.8,28.7,29.3s-2.2,41.3,16.4,50.8c9.9,5.1,21.4,5.5,31.7,1.3
				c2.2-0.9,4.8,0.1,5.7,2.4c0.9,2.2-0.1,4.8-2.4,5.7c-12.7,5.2-26.9,4.7-39.1-1.6C18.2,76.3,9.2,48.2,20.9,25.3z"/>
		</defs>
		<use xlink:href="#XMLID_11_"  style="overflow:visible;fill:#0093BA;"/>
		<clipPath id="XMLID_4_">
			<use xlink:href="#XMLID_11_"  style="overflow:visible;"/>
		</clipPath>
	</g>
</g>
</svg>
