<?xml version="1.0" encoding="utf-8"?>
<!-- Generator: Adobe Illustrator 21.0.2, SVG Export Plug-In . SVG Version: 6.00 Build 0)  -->
<svg version="1.1" id="Layer_1" xmlns="http://www.w3.org/2000/svg" xmlns:xlink="http://www.w3.org/1999/xlink" x="0px" y="0px"
	 width="143.3px" height="110px" viewBox="0 0 143.3 110" style="enable-background:new 0 0 143.3 110;" xml:space="preserve">
<style type="text/css">
	.st0{fill:#B80000;}
	.st1{fill:#FFFFFF;}
</style>
<g>
	<g>
		<path id="XMLID_116_" class="st0" d="M140.6,60l-76.5,49.1c-3.9,2.5-9.1-0.3-9.1-5V5.9c0-4.7,5.2-7.5,9.1-5L140.6,50
			C144.2,52.4,144.2,57.6,140.6,60z"/>
		<g id="XMLID_22_">
			<path id="XMLID_44_" class="st1" d="M103.3,43.6c-1.6,0-3.1,0.9-4.5,2.7V35.5h-4.5v32.9h4.5V66c1.5,1.8,3,2.7,4.5,2.7
				c1.8,0,3-0.9,3.5-2.8c0.3-0.9,0.5-2.6,0.5-4.9v-9.8c0-2.4-0.2-4-0.5-4.9C106.3,44.5,105.1,43.6,103.3,43.6z M102.9,61.4
				c0,2.2-0.6,3.3-1.9,3.3c-0.8,0-1.5-0.4-2.2-1.1v-15c0.7-0.7,1.4-1.1,2.2-1.1c1.3,0,1.9,1.1,1.9,3.3V61.4z"/>
			<path id="XMLID_215_" class="st1" d="M117.5,43.6c-2.3,0-4.1,0.8-5.3,2.5c-0.9,1.2-1.3,3.1-1.3,5.7v8.6c0,2.6,0.5,4.5,1.4,5.7
				c1.3,1.7,3.1,2.5,5.4,2.5c2.4,0,4.1-0.9,5.3-2.7c0.5-0.8,0.9-1.7,1-2.7c0.1-0.6,0.1-1.6,0.1-2.9v-0.6h-4.5c0,0.5,0,1,0,1.4
				s0,0.8,0,1.1c0,0.3,0,0.4,0,0.5c-0.3,1.2-0.9,1.7-2,1.7c-1.5,0-2.3-1.1-2.3-3.4v-4.3h8.9v-5.1c0-2.6-0.5-4.5-1.4-5.7
				C121.5,44.4,119.7,43.6,117.5,43.6z M119.6,53.3h-4.4V51c0-2.3,0.7-3.4,2.2-3.4c1.5,0,2.2,1.1,2.2,3.4L119.6,53.3L119.6,53.3z"/>
			<path id="XMLID_39_" class="st1" d="M86,62.6c-1,1.4-1.9,2.1-2.8,2.1c-0.6,0-1-0.3-1-1c0-0.1-0.1-0.7-0.1-1.7v-18h-4.4v19.4
				c0,1.7,0.1,2.9,0.4,3.6c0.4,1.3,1.3,1.9,2.8,1.9c1.6,0,3.3-1,5.1-3v2.7h4.5V43.9H86L86,62.6L86,62.6L86,62.6z"/>
			<polygon id="XMLID_23_" class="st1" points="61.5,40.2 66.8,40.2 66.8,68.4 71.7,68.4 71.7,40.2 77,40.2 77,35.5 61.5,35.5 			
				"/>
		</g>
		<g id="XMLID_1_">
			<path id="XMLID_2_" d="M16.9,35.7H12L8.7,48.3L5.5,35.7H0c1.1,3.3,2.2,6,3.3,9.3C4.9,49.4,6,53.2,6,55.4v13.1h4.9V55.4L16.9,35.7
				z M30,60.3v-8.2c0-2.7-0.5-4.4-1.6-6s-2.7-2.2-4.9-2.2s-3.8,1.1-4.9,2.7c-1.1,1.1-1.6,2.7-1.6,5.5v8.7c0,2.7,0.5,4.4,1.6,5.5
				c1.1,1.6,2.7,2.2,4.9,2.2s3.8-1.1,4.9-2.7C29.5,65.2,30,63,30,60.3z M25.6,61.4c0,2.2-0.5,3.3-2.2,3.3s-2.2-1.1-2.2-3.3V51
				c0-2.2,0.5-3.3,2.2-3.3c1.6,0,2.2,1.1,2.2,3.3V61.4z M46.4,68.5V43.9H42v18.6c-1.1,1.6-1.6,2.2-2.7,2.2c-0.5,0-1.1-0.5-1.1-1.1
				c0,0,0-0.5,0-1.6v-18h-4.4V63c0,1.6,0,2.7,0.5,3.8c0,1.1,1.1,1.6,2.7,1.6s3.3-1.1,4.9-2.7v2.7H46.4z"/>
		</g>
	</g>
</g>
</svg>
