<svg xmlns="http://www.w3.org/2000/svg" viewBox="0 0 14.325 30.771">
  <defs>
    <style>
      .cls-1 {
        fill: #2160b5;
      }
    </style>
  </defs>
  <path id="Path_11042" data-name="Path 11042" class="cls-1" d="M10.918,3.79H8.866V-.7a14.663,14.663,0,0,1-3.929-.5,11.072,11.072,0,0,1-2.33-.921l.661-1.947q.452.243,1.008.487a10.26,10.26,0,0,0,1.286.452A11.443,11.443,0,0,0,7.25-2.8a18.015,18.015,0,0,0,2.243.122A8.362,8.362,0,0,0,11.8-2.955,4.683,4.683,0,0,0,13.369-3.7a2.639,2.639,0,0,0,.869-1.13A3.754,3.754,0,0,0,14.5-6.224a3.826,3.826,0,0,0-.435-1.912,4.286,4.286,0,0,0-1.217-1.339,8.3,8.3,0,0,0-1.895-1.008Q9.84-10.918,8.519-11.4q-.939-.348-1.912-.782A7.673,7.673,0,0,1,4.85-13.265a5.064,5.064,0,0,1-1.269-1.565,4.669,4.669,0,0,1-.487-2.208A5.384,5.384,0,0,1,4.5-21.018a7.505,7.505,0,0,1,4.364-1.825v-4.138h2.051v4.033a13.66,13.66,0,0,1,2.869.33,13.848,13.848,0,0,1,2.069.643l-.591,1.912a17.848,17.848,0,0,0-1.739-.574,11.6,11.6,0,0,0-3.095-.33q-4.937,0-4.937,3.581a3.373,3.373,0,0,0,.348,1.617,3.436,3.436,0,0,0,1.008,1.13,7.388,7.388,0,0,0,1.6.869q.939.382,2.086.8,1.252.487,2.417.991A8.539,8.539,0,0,1,15-10.744a5.4,5.4,0,0,1,1.408,1.773,5.63,5.63,0,0,1,.522,2.538,5.127,5.127,0,0,1-1.6,3.929A7.009,7.009,0,0,1,10.918-.8Z" transform="translate(-2.608 26.982)"/>
</svg>
