<svg id="Layer_1" data-name="Layer 1" xmlns="http://www.w3.org/2000/svg" xmlns:xlink="http://www.w3.org/1999/xlink" width="232" height="1350" viewBox="0 0 232 1350"><defs><style>.cls-1,.cls-2{fill:none;}.cls-2{clip-path:url(#clip-path);}.cls-3{fill:#fff;}.cls-4{fill:#323a45;}.cls-5{fill:#989aa0;fill-opacity:0.8;}.cls-6{fill:#377bf1;}.cls-7{clip-path:url(#clip-path-2);}.cls-8{clip-path:url(#clip-path-3);}</style><clipPath id="clip-path"><rect class="cls-1" x="-44.6" y="224.8" width="145.9" height="109.4"/></clipPath><clipPath id="clip-path-2" transform="translate(44.6)"><path class="cls-1" d="M34.5,273.7a6.2,6.2,0,1,0,6.2,6.2,6.23,6.23,0,0,0-6.2-6.2Z"/></clipPath><clipPath id="clip-path-3" transform="translate(44.6)"><rect class="cls-2" x="-44.6" y="224.8" width="145.9" height="109.4"/></clipPath></defs><title>icons</title><path class="cls-3" d="M18.9,11a1.52,1.52,0,0,0-2,0l-1.1,1.1a1.52,1.52,0,0,0,0,2l4,4L16,21.9a1.52,1.52,0,0,0,0,2L17.1,25a1.52,1.52,0,0,0,2,0L26,18.1h0Z" transform="translate(44.6)"/><path class="cls-3" d="M12.1,15.8,11,16.9a1.52,1.52,0,0,0,0,2L12.1,20a1.52,1.52,0,0,0,2,0l2.1-2.1-2.1-2.1A1.34,1.34,0,0,0,12.1,15.8Z" transform="translate(44.6)"/><path class="cls-3" d="M17.9,0h0L5,12.9,7.1,15a1.52,1.52,0,0,0,2,0l8.8-8.8L32,20.3a1.52,1.52,0,0,0,2,0l2.1-2.1Z" transform="translate(44.6)"/><path class="cls-3" d="M26.9,21l-8.8,8.8-14-14a1.52,1.52,0,0,0-2,0L0,17.9,18.1,36h0L31,23.1,28.9,21A1.52,1.52,0,0,0,26.9,21Z" transform="translate(44.6)"/><polygon class="cls-3" points="91.9 10 92.9 12.4 96.5 11.3 96.5 27.7 99.4 27.7 99.4 8.2 97.4 8.2 91.9 10"/><path class="cls-3" d="M67.5,8c-5.2,0-9.2,4.3-9.2,10v.1c0,5.8,3.8,9.9,9.1,9.9s9.2-4.3,9.2-10v-.1C76.6,12.2,72.7,8,67.5,8Zm6,10.1c0,3.5-2.1,7.3-6.1,7.3-3.8,0-6.1-3.7-6.1-7.3V18c0-3.5,2.1-7.3,6.1-7.3s6.1,3.8,6.1,7.4Z" transform="translate(44.6)"/><polygon class="cls-3" points="144.9 22.9 139.5 8.3 139.4 8.3 137.2 8.3 131.8 22.9 126 8.4 126 8.3 122.7 8.3 130.6 27.8 130.6 27.8 132.9 27.8 138.3 13.6 143.7 27.8 143.7 27.8 145.9 27.8 153.9 8.3 150.7 8.3 144.9 22.9"/><polygon class="cls-3" points="159.5 19.3 171.1 19.3 171.1 16.6 159.5 16.6 159.5 11 172.4 11 172.4 8.3 156.5 8.3 156.5 27.7 172.6 27.7 172.6 25 159.5 25 159.5 19.3"/><path class="cls-3" d="M145.6,17.6a4.68,4.68,0,0,0,2.2-4.1v-.1a4.25,4.25,0,0,0-1.6-3.4,8.92,8.92,0,0,0-5.8-1.8h-9.1V27.6h9.6c4.9,0,8-2.2,8-5.6h0C148.9,20.6,148.3,18.7,145.6,17.6ZM134.3,11h6.1c2.7,0,4.3,1,4.3,2.6v.1c0,2.2-2.3,2.9-4.5,2.9h-5.9V11Zm11.6,11.1c0,1.8-1.9,2.9-4.9,2.9h-6.6V19.3h6.1c2,0,5.4.3,5.4,2.8Z" transform="translate(44.6)"/><path class="cls-4" d="M16,67.9a1.52,1.52,0,0,0,0,2L17.1,71a1.52,1.52,0,0,0,2,0L26,64.1h0L18.9,57a1.52,1.52,0,0,0-2,0l-1.1,1.1a1.52,1.52,0,0,0,0,2l4,4Z" transform="translate(44.6)"/><path class="cls-4" d="M12.1,61.8,11,62.9a1.52,1.52,0,0,0,0,2L12.1,66a1.52,1.52,0,0,0,2,0l2.1-2.1-2.1-2.1A1.34,1.34,0,0,0,12.1,61.8Z" transform="translate(44.6)"/><path class="cls-4" d="M17.9,46,5,58.9,7.1,61a1.52,1.52,0,0,0,2,0l8.8-8.8L32,66.3a1.52,1.52,0,0,0,2,0l2.1-2.1L17.9,46Z" transform="translate(44.6)"/><path class="cls-4" d="M26.9,67l-8.8,8.8-14-14a1.52,1.52,0,0,0-2,0L0,63.9,18.1,82h0L31,69.1,28.9,67A1.52,1.52,0,0,0,26.9,67Z" transform="translate(44.6)"/><polygon class="cls-4" points="91.9 56 92.9 58.4 96.5 57.3 96.5 73.7 99.4 73.7 99.4 54.2 97.4 54.2 91.9 56"/><path class="cls-4" d="M67.5,54c-5.2,0-9.2,4.3-9.2,10h0c0,5.8,3.8,9.9,9.1,9.9s9.2-4.3,9.2-10v-.1C76.6,58.2,72.7,54,67.5,54Zm6,10c0,3.5-2.1,7.3-6.1,7.3-3.8,0-6.1-3.7-6.1-7.3v-.1c0-3.5,2.1-7.3,6.1-7.3s6.1,3.9,6.1,7.4Z" transform="translate(44.6)"/><polygon class="cls-4" points="144.9 68.9 139.5 54.3 139.4 54.3 137.2 54.3 131.8 68.9 126 54.4 126 54.3 122.7 54.3 130.6 73.8 130.6 73.8 132.9 73.8 138.3 59.6 143.7 73.8 143.7 73.8 145.9 73.8 153.9 54.3 150.7 54.3 144.9 68.9"/><polygon class="cls-4" points="159.5 65.3 171.1 65.3 171.1 62.6 159.5 62.6 159.5 57 172.4 57 172.4 54.3 156.5 54.3 156.5 73.7 172.6 73.7 172.6 71 159.5 71 159.5 65.3"/><path class="cls-4" d="M145.6,63.6a4.68,4.68,0,0,0,2.2-4.1v-.1a4.25,4.25,0,0,0-1.6-3.4,8.92,8.92,0,0,0-5.8-1.8h-9.1V73.6h9.6c4.9,0,8-2.2,8-5.6h0C148.9,66.6,148.3,64.7,145.6,63.6ZM134.3,57h6.1c2.7,0,4.3,1,4.3,2.6v.1c0,2.2-2.3,2.9-4.5,2.9h-5.9V57Zm11.6,11.1c0,1.8-1.9,2.9-4.9,2.9h-6.6V65.3h6.1c2,0,5.4.3,5.4,2.8Z" transform="translate(44.6)"/><path class="cls-5" d="M33.3,158.4a33.2,33.2,0,1,1,33.3-33.2A33.27,33.27,0,0,1,33.3,158.4Zm0-64.9A31.6,31.6,0,1,0,65,125.2,31.77,31.77,0,0,0,33.3,93.5Z" transform="translate(44.6)"/><path class="cls-5" d="M24.5,119.8a1.64,1.64,0,0,1,1.2.7l7.2,7.2c.6.6.9.6,1.4,0,2.3-2.4,4.6-4.7,7-7l.6-.6a.86.86,0,0,1,1.3-.1.84.84,0,0,1-.1,1.4l-8.8,8.8c-.6.6-1.1.4-1.6-.1L24,121.4a1,1,0,0,1-.3-1.1A1,1,0,0,1,24.5,119.8Z" transform="translate(44.6)"/><path class="cls-4" d="M89.4,245.1H83.2V192.7H68.7V245H62.9V210.8H45.5V245H39.8V218H25.4v27h-6v-7.8H6.1v7.9H0v3.3H89.3v-3.1Zm-71.8,0H8.1v-4.6c0-.9,1.1-1.3,1.6-1.4h6.1a1.35,1.35,0,0,1,1.2.5,1.59,1.59,0,0,1,.4,1.2v2.3Zm42.4-9v7.6l-.1,1.1H48.6v-31l1.2-.1c.2,0,.4-.1.6-.1H58a1.64,1.64,0,0,1,1.4.5,2,2,0,0,1,.5,1.4C60,222.4,60,229.3,60,236.1Z" transform="translate(44.6)"/><path class="cls-6" d="M75.8,168.4a5.8,5.8,0,0,0-5.8,5.8,6.11,6.11,0,0,0,.8,3L57.7,188.6a5.58,5.58,0,0,0-3.6-1.2,5.8,5.8,0,0,0-5.8,5.8v.7l-10.8,3.3a5.71,5.71,0,0,0-5.1-3.1,5.8,5.8,0,0,0-5.8,5.8,5.94,5.94,0,0,0,1.3,3.7L13.7,220.7a5.3,5.3,0,0,0-2.8-.7,5.8,5.8,0,1,0,5.8,5.8,5.94,5.94,0,0,0-1.3-3.7L29.6,205a5.3,5.3,0,0,0,2.8.7,5.8,5.8,0,0,0,5.8-5.8v-.7L49,195.9a5.71,5.71,0,0,0,5.1,3.1,5.8,5.8,0,0,0,5.8-5.8,6.11,6.11,0,0,0-.8-3l13.1-11.4a5.58,5.58,0,0,0,3.6,1.2,5.8,5.8,0,0,0,5.8-5.8A5.94,5.94,0,0,0,75.8,168.4Z" transform="translate(44.6)"/><path class="cls-4" d="M80.4,345.8a5.12,5.12,0,0,0-5.3-5.4H5.4a5.54,5.54,0,0,0-1.8.2c-2.3.6-3.6,2.6-3.6,5.2v62.5a5.58,5.58,0,0,0,1.6,4,5.28,5.28,0,0,0,3.9,1.5H38.2l1-.1V409H5a1.45,1.45,0,0,1-.1-.6V362.5H75.5v12.6l.1,1.1h4.8v-9.5C80.4,359.7,80.4,352.7,80.4,345.8Zm-75.5-.4a1.45,1.45,0,0,1,.6-.1H75.4a1.45,1.45,0,0,1,.1.6v11.5H4.9V345.8C4.9,345.5,5,345.4,4.9,345.4Z" transform="translate(44.6)"/><path class="cls-6" d="M86.1,401.6c-.6-.7-1.1-1.4-1.7-2.1s-1-1.2-1.5-1.9a3.82,3.82,0,0,1,0-3.3L84,393c.7-.9,1.4-1.7,2.1-2.6a3.48,3.48,0,0,0,.4-4.2c-.9-1.6-1.8-3.3-2.8-4.9a3.29,3.29,0,0,0-3.7-1.7l-.5.1c-1,.2-2,.3-3.1.6-1.4.3-2.5.4-3.6-.6-.4-.3-.7-.5-.8-.9-.5-1.6-1.1-3.2-1.6-4.6a3.75,3.75,0,0,0-3.6-2.6H61.7a3.55,3.55,0,0,0-3.6,2.6c-.1.3-.2.5-.3.8a15.55,15.55,0,0,0-.8,2.3,3.79,3.79,0,0,1-2.4,3c-.3.1-.7.3-1,.2-.9-.1-1.8-.3-2.6-.4s-1.6-.3-2.4-.4a3.51,3.51,0,0,0-4,2c-.9,1.5-1.8,3-2.6,4.6a3.48,3.48,0,0,0,.4,4.4c.7.9,1.4,1.7,2.1,2.6l1,1.2a3.82,3.82,0,0,1,0,3.3l-1.4,1.7c-.6.7-1.2,1.4-1.7,2.1a3.62,3.62,0,0,0-.4,4.5c.9,1.6,1.8,3.2,2.7,4.7a3.63,3.63,0,0,0,3.9,1.8l1.5-.3,3.4-.6a3.55,3.55,0,0,1,1,.2,10.91,10.91,0,0,1,1.1.6,1.78,1.78,0,0,1,.7.8c.4.9.7,1.9,1,2.8a13.35,13.35,0,0,0,.7,1.8,3.47,3.47,0,0,0,3.6,2.5h5.3a3.46,3.46,0,0,0,3.5-2.4l.3-.8a21.36,21.36,0,0,0,.9-2.7,3.72,3.72,0,0,1,2.1-2.7,2,2,0,0,1,1.4-.3c1.3.3,2.6.5,3.8.7l1.4.3h0a3.45,3.45,0,0,0,3.3-1.9c.9-1.5,1.8-3.1,2.7-4.7A3.33,3.33,0,0,0,86.1,401.6ZM65.6,416l-1.3.1c-.7,0-1.4.1-2,.1-.2,0-.3,0-.4-.3a22.5,22.5,0,0,1-.8-2.4c-.3-.9-.7-1.9-1-2.8a3.14,3.14,0,0,0-1.6-1.8,17.91,17.91,0,0,1-2.2-1.3,3.41,3.41,0,0,0-1.9-.7,2.77,2.77,0,0,0-.9.1c-.8.2-1.5.3-2.3.5s-1.7.3-2.5.5c-.2,0-.3,0-.4-.2-.6-1.1-1.4-2.3-2.1-3.5-.2-.3-.2-.4,0-.6,1.1-1.2,2.3-2.7,3.5-4.2a4,4,0,0,0,.7-2,18.19,18.19,0,0,0,0-3.3,4,4,0,0,0-.7-1.9c-1-1.3-2.2-2.6-3.3-3.8l-.2-.2c-.2-.2-.2-.3-.1-.5.6-1.1,1.2-2.3,1.9-3.7.1-.3.2-.3.4-.2l.6.1c1.6.3,3.3.6,5,.9a3.36,3.36,0,0,0,1.9-.4,17.49,17.49,0,0,0,2.7-1.6,4.48,4.48,0,0,0,1.4-1.6c.6-1.7,1.2-3.4,1.7-5.1.1-.3.2-.4.5-.4,1.2,0,2.6,0,4.1-.1.2,0,.3,0,.3.3.3.9.6,1.7.9,2.6s.6,1.8,1,2.7A3.14,3.14,0,0,0,70,383a14.17,14.17,0,0,1,2.3,1.4,2.85,2.85,0,0,0,2.7.5,15.52,15.52,0,0,1,2.1-.4l2.8-.6c.2-.1.2,0,.3.1a14,14,0,0,0,1,1.6c.4.7.9,1.5,1.3,2.2a.6.6,0,0,1-.1.4c-1.1,1.4-2.3,2.8-3.4,4.2a3.24,3.24,0,0,0-.8,2.3v3a4.24,4.24,0,0,0,.6,1.8c1.1,1.4,2.3,2.8,3.5,4.1.2.3.2.3.1.6-.8,1.3-1.3,2.5-1.8,3.5-.2.4-.3.4-.7.3-.9-.2-1.8-.3-2.6-.5s-1.6-.3-2.4-.4a3.25,3.25,0,0,0-2.7.6,7.46,7.46,0,0,1-1.2.7,7.46,7.46,0,0,0-1.2.7,3.92,3.92,0,0,0-1.3,1.5,42.24,42.24,0,0,0-1.6,5c-.2.5-.3.6-.7.5a1.27,1.27,0,0,1-.6-.1Z" transform="translate(44.6)"/><path class="cls-4" d="M11,354.8a3.35,3.35,0,1,1,3.5-3.3A3.51,3.51,0,0,1,11,354.8Z" transform="translate(44.6)"/><path class="cls-4" d="M31.6,354.8a3.35,3.35,0,1,1,.2-6.7,3.35,3.35,0,0,1,3.3,3.4A3.51,3.51,0,0,1,31.6,354.8Z" transform="translate(44.6)"/><path class="cls-4" d="M24.7,351.4a3.35,3.35,0,1,1-3.4-3.4A3.37,3.37,0,0,1,24.7,351.4Z" transform="translate(44.6)"/><path class="cls-6" d="M64.2,404.5a8.55,8.55,0,0,1,.1-17.1,8.55,8.55,0,0,1-.1,17.1Zm0-3.3a5.16,5.16,0,0,0,5.2-5.2,5.29,5.29,0,0,0-5.2-5.2,5.2,5.2,0,0,0,0,10.4Z" transform="translate(44.6)"/><path class="cls-4" d="M101.2,648.6A35,35,0,0,0,35,641.2,25.58,25.58,0,0,0,0,664.8a25.65,25.65,0,0,0,25.6,25.6H88.8l-.6-.3c-3.1-1.3-4.7-3-4.7-4.7v-.1H25.6a20.5,20.5,0,0,1,0-41,19.43,19.43,0,0,1,9.5,2.4l2.6,1.4,1-2.8a30,30,0,0,1,28.2-19.9,29.59,29.59,0,0,1,29.2,23.4v.1h.1a38.66,38.66,0,0,1,4.8-.3h.2Z" transform="translate(44.6)"/><path class="cls-6" d="M120.1,658.2a4.49,4.49,0,0,0-1.3-3.1c-2.6-2.7-9-4.5-16.5-4.5h-1.2a35.73,35.73,0,0,0-4.7.4c-7.4,1-11.9,3.7-11.9,7.2a2,2,0,0,0,.1.7c0,.2-.1.3-.1.5v6.8a2,2,0,0,0,.1.7c0,.2-.1.3-.1.5v6.8a2,2,0,0,0,.1.7c0,.2-.1.3-.1.5v6.8a3.94,3.94,0,0,0,1,2.7c2.1,2.6,7.4,4.4,14.2,4.8.9,0,1.7.1,2.6.1,7.5,0,13.9-1.8,16.5-4.5a4.32,4.32,0,0,0,1.3-3.1v-6.8a.9.9,0,0,0-.1-.5c0-.2.1-.5.1-.7v-6.8a.9.9,0,0,0-.1-.5c0-.2.1-.5.1-.7v-6.8a.9.9,0,0,0-.1-.5A2,2,0,0,0,120.1,658.2Zm-7.2,14.2a17.46,17.46,0,0,0,3.3-1.3v3c0,.3-.8,1.3-3.4,2.2-.5.2-1,.3-1.5.5a35.2,35.2,0,0,1-9,1.1,33,33,0,0,1-10.6-1.5c-2.5-.9-3.4-1.9-3.4-2.2v-3c3.3,1.7,8.4,2.7,14,2.7A54.1,54.1,0,0,0,112.9,672.4Zm-4.5,8.8a27.29,27.29,0,0,0,7.4-2c.2-.1.3-.2.5-.2v3c0,.3-.8,1.3-3.4,2.2a14.13,14.13,0,0,1-2.2.6,36.68,36.68,0,0,1-8.4.9,34,34,0,0,1-10.2-1.4c-.1,0-.3-.1-.4-.1-2.5-.9-3.4-1.9-3.4-2.2v-3c3.3,1.7,8.4,2.7,14,2.7A40.71,40.71,0,0,0,108.4,681.2Zm7.8-23c0,.2-.5.9-2.1,1.7a5,5,0,0,1-1.3.5,16.89,16.89,0,0,1-3.4.9,40,40,0,0,1-7.1.6,33,33,0,0,1-10.6-1.5c-2.5-.9-3.4-1.9-3.4-2.2s.8-1.3,3.4-2.2a28.27,28.27,0,0,1,5-1.2,49.16,49.16,0,0,1,5.6-.4,36.48,36.48,0,0,1,5.9.4,25.91,25.91,0,0,1,4.6,1.1C115.4,656.9,116.2,657.9,116.2,658.2Zm-4.7,6.6a16.92,16.92,0,0,0,4.5-1.6c.1,0,.1-.1.2-.1v3c0,.3-.8,1.3-3.4,2.2l-.2.1a32.16,32.16,0,0,1-10.4,1.5,33,33,0,0,1-10.6-1.5c-2.5-.9-3.4-1.9-3.4-2.2v-3c3.3,1.7,8.4,2.7,14,2.7A52.69,52.69,0,0,0,111.5,664.8Z" transform="translate(44.6)"/><path id="SVGID" class="cls-4" d="M34.5,273.7a6.2,6.2,0,1,0,6.2,6.2,6.23,6.23,0,0,0-6.2-6.2Z" transform="translate(44.6)"/><g class="cls-7"><rect id="SVGID-2" data-name="SVGID" class="cls-4" y="224.8" width="145.9" height="109.4"/><g class="cls-8"><rect class="cls-4" y="224.8" width="145.9" height="109.4"/><polygon id="triangle36" class="cls-4" points="155.4 215.2 137.5 216 140.3 211.6 155.4 215.2"/></g><g class="cls-7"><rect class="cls-4" x="67.3" y="270.3" width="22" height="17.5"/></g><path class="cls-4" d="M96,264.4a7.77,7.77,0,0,0-2.2-4.4,6.46,6.46,0,0,0-3.8-1.6H6a6,6,0,0,0-6,6v60a6,6,0,0,0,6,6H50.9a20.47,20.47,0,0,1-.7-5.6v-.4H5.2V312.7l6.6-6.1.7-.7c1-.9,2-1.9,3-2.8,2.1-2,4.2-3.9,6.3-5.9.7.5,1.3,1.1,2,1.6.9.7,1.8,1.4,2.7,2.2l.1.1,12.7,10.6,3.3,2.7,3.3-2.8-3.3-2.7-16-13.3-4.8-3.9c-3.1,2.9-16.7,15.4-16.7,15.4V264.4h84v36.1l-4.9-4.2-6.4-5.5-6.9-5.9-.2-.2L57,296.5,42.7,308.9l3.3,2.7,6.7-5.8L57,302l13.7-11.9.2.2,2.6,2.2,1.6,1.3,1.4,1.2,1.3,1.1,6.4,5.5,4.9,4.2h0a34,34,0,0,1,3.8,3.8,38.94,38.94,0,0,1,2.9,3.9c0-1.7.1-3.4.1-5.1C96.3,293.8,96.3,279,96,264.4Z" transform="translate(44.6)"/><path class="cls-6" d="M95.9,326H90.7a16.4,16.4,0,0,1-.9,4.4h5.5a21.21,21.21,0,0,0,.6-4.4Z" transform="translate(44.6)"/><path class="cls-6" d="M72.4,322a3.81,3.81,0,0,0-1.8,2.6v.4a3.54,3.54,0,0,0,3.5,3.5,3.5,3.5,0,0,0,3.1-1.9h0l1.1-2,5.3-9.5L72.4,322Z" transform="translate(44.6)"/><path class="cls-6" d="M74.7,303v5.3a15.07,15.07,0,0,1,9.6,3.9l3.9-3.7A21.9,21.9,0,0,0,74.7,303Z" transform="translate(44.6)"/><path class="cls-6" d="M72.1,308.3V303a22.07,22.07,0,0,0-20.5,21.6v.4a19,19,0,0,0,.7,5.4h5.5a16.11,16.11,0,0,1-.9-5.4v-.4C57.1,316,64.3,308.9,72.1,308.3Z" transform="translate(44.6)"/><path class="cls-6" d="M95.9,323.3a21.74,21.74,0,0,0-5.6-13.2l-.9.8-2.9,2.9a17.55,17.55,0,0,1,2.9,4.7,19.1,19.1,0,0,1,1.2,4.7h5.3Z" transform="translate(44.6)"/></g><path class="cls-4" d="M44.4,468.9a27.15,27.15,0,0,1,11.4,2.5c-1.3-1.2-2.6-2.4-3.9-3.7a4.35,4.35,0,0,0,.7-.6L65.7,454a4.18,4.18,0,0,0,1.1-1.8,2.89,2.89,0,0,0-1.5-3.3,3,3,0,0,0-3.7.6L49,462.1a5.67,5.67,0,0,0-1,1.3L33.9,449.3c.1-.1.3-.2.5-.4,4.4-4.4,8.8-8.8,13.2-13.3a3.06,3.06,0,0,0,.2-4.4c-1.2-1.3-3.1-1.2-4.5.2-2.7,2.6-5.3,5.3-7.9,7.9-1.9,1.9-3.8,3.9-5.9,6-1.6-1.7-3.2-3.3-4.8-4.9l-.5.5-7.7,7.7c-6.3,6.4-8.4,13.9-6.1,22.5a40.76,40.76,0,0,0,2.6,6.4c-4.2,4.3-8.6,8.6-12.8,12.9l6.7,6.8,13-13A27.18,27.18,0,0,1,44.4,468.9Z" transform="translate(44.6)"/><path class="cls-6" d="M43.2,514.4A21.4,21.4,0,1,1,64.6,493,21.42,21.42,0,0,1,43.2,514.4Zm0-40A18.6,18.6,0,1,0,61.8,493,18.63,18.63,0,0,0,43.2,474.4Z" transform="translate(44.6)"/><path class="cls-6" d="M28.9,494c0-2.7.6-4.7,1.7-6a6.34,6.34,0,0,1,5.1-2,8.66,8.66,0,0,1,1.8.1v2.3a8.75,8.75,0,0,0-1.6-.2,5.46,5.46,0,0,0-2.4.4,3,3,0,0,0-1.4,1.3,5.51,5.51,0,0,0-.5,2.5h.1a3.05,3.05,0,0,1,2.9-1.6,3.61,3.61,0,0,1,2.8,1.1,4.55,4.55,0,0,1,1,3.2,4.7,4.7,0,0,1-1.2,3.4,4.59,4.59,0,0,1-3.4,1.3,4.41,4.41,0,0,1-2.6-.7,4.8,4.8,0,0,1-1.7-2A6.84,6.84,0,0,1,28.9,494Zm4.9,3.7a1.68,1.68,0,0,0,1.4-.6,3,3,0,0,0,.5-1.8,2.54,2.54,0,0,0-.5-1.6,1.68,1.68,0,0,0-1.4-.6,2,2,0,0,0-1.5.6,1.76,1.76,0,0,0-.6,1.3,3.08,3.08,0,0,0,.6,1.9A1.9,1.9,0,0,0,33.8,497.7Z" transform="translate(44.6)"/><path class="cls-6" d="M49.2,493a9.44,9.44,0,0,1-1.2,5.3,4.2,4.2,0,0,1-3.6,1.7,3.87,3.87,0,0,1-3.5-1.8,9.3,9.3,0,0,1-1.2-5.2c0-2.4.4-4.2,1.2-5.3a4.2,4.2,0,0,1,3.6-1.7,3.87,3.87,0,0,1,3.5,1.8A9.3,9.3,0,0,1,49.2,493Zm-6.6,0a10.36,10.36,0,0,0,.4,3.6,1.59,1.59,0,0,0,1.5,1.1c.7,0,1.1-.4,1.4-1.1a10.36,10.36,0,0,0,.4-3.6,13.63,13.63,0,0,0-.4-3.6,1.57,1.57,0,0,0-1.4-1.1,1.39,1.39,0,0,0-1.4,1.1A8,8,0,0,0,42.6,493Z" transform="translate(44.6)"/><path class="cls-6" d="M54.3,494.1H50.7v-2h3.6v-3.6h2v3.6h3.6v2H56.3v3.6h-2Z" transform="translate(44.6)"/><path class="cls-4" d="M51.6,597.5c.3-1.7.7-3.4,1-5a35.44,35.44,0,0,0,.9-10,6.42,6.42,0,0,0-1.4-3.7,6.17,6.17,0,0,0-5.6-2c-.4,0-.6,0-.8-.3a5.8,5.8,0,0,0-6-1.6c-.3.1-.4.1-.6-.1a4.74,4.74,0,0,0-5.1-1v-2.7c0-1.9-.1-3.9-.1-5.8a8.64,8.64,0,0,0-.1-1.5,5.22,5.22,0,0,0-4.7-4H29a4.79,4.79,0,0,0-4.6,3.8,6.52,6.52,0,0,0-.2,2.4c.1,4.5.1,9.1.2,13.6l.1,5.2h0l-1.3-.4c-1.3-.4-2.5-.8-3.8-1.3a13.68,13.68,0,0,0-4.8-.9,6.37,6.37,0,0,0-6.2,5.7,2.15,2.15,0,0,0,1.9,2.7l.9.1,1.9.3a11.91,11.91,0,0,1,6.4,2.9c2.3,2.1,4.3,4,6.3,6,.6.6,1,1.2,1.6,1.8.1.2.3.3.4.5a1.69,1.69,0,0,0-.8,1.9v.8c0,1.2,0,2.3.1,3.5a1.83,1.83,0,0,0,2.1,2c7-.1,14-.2,21-.4a1.79,1.79,0,0,0,2-2.1c0-1.6,0-3.1-.1-4.6a1.91,1.91,0,0,0-.7-1.4c-.2-.2-.3-.2-.2-.7ZM31.4,577v1.3l1.1-.7c.2-.1.3-.2.5-.3a1.38,1.38,0,0,1,.4-.3c.2-.1.3-.2.5-.3,1.7-1,2.4-1,3.8.3a2.13,2.13,0,0,0,2.4.4,3.32,3.32,0,0,1,4,1.1,1.93,1.93,0,0,0,1.8.8,7.45,7.45,0,0,1,1.5,0,3.41,3.41,0,0,1,3.6,3.6,33.41,33.41,0,0,1-.8,8.8l-1.9,9.4H44.7l-14.4.3c-.3,0-.4,0-.6-.3a20.08,20.08,0,0,0-3.8-4.4l-.1-.1-.7-.7a6.47,6.47,0,0,0-.9-.8l-.1-.1c-.7-.7-1.5-1.4-2.1-2.1a14.85,14.85,0,0,0-8.6-4.4c-.8-.1-1.7-.3-2.7-.4h0V588a3.9,3.9,0,0,1,3.9-3.3h.1a15.5,15.5,0,0,1,3.5.7c1.2.4,2.4.8,3.5,1.1a18.29,18.29,0,0,0,2.5.8l1.4.3h.2c.2,0,.3.1.5.1l.6.1v-4.2c0-2.3-.1-4.5-.1-6.8V576c-.1-3.3-.1-6.6-.2-10a5.54,5.54,0,0,1,.2-1.8,2.25,2.25,0,0,1,2.2-2,2.65,2.65,0,0,1,2.4,2.1,8.6,8.6,0,0,1,.1,1.6c0,2.7.1,5.4.1,8.1v2.4A.73.73,0,0,0,31.4,577Zm-2.6-16.9Z" transform="translate(44.6)"/><path class="cls-6" d="M54.8,546A27.75,27.75,0,0,0,.5,557.4a27,27,0,0,0,13.9,19.1c.9.5,1.8.9,2.7,1.3.4.2.9.4,1.4.6l.7.3v-3.5a2.1,2.1,0,0,0-1.4-2.3,23,23,0,0,1,8.1-43.7,22.56,22.56,0,0,1,16.4,5.1,22.88,22.88,0,0,1,5.4,29.5,14.8,14.8,0,0,1-.8,1.3l-.7,1.2,1.1.4a3.55,3.55,0,0,1,.9.4l.1.1a9.29,9.29,0,0,1,1,.5,1.07,1.07,0,0,0,1,.3,1.42,1.42,0,0,0,.9-.8A27.87,27.87,0,0,0,54.8,546Z" transform="translate(44.6)"/><path class="cls-6" d="M18.4,568.1a38.1,38.1,0,0,1-3.6-3,17.53,17.53,0,0,1-5.3-14.5,18.33,18.33,0,0,1,36.2-2.1A17.9,17.9,0,0,1,41,564.8c-.3.4-.6.4-1.1.2a21.72,21.72,0,0,0-2.4-.7,4.34,4.34,0,0,1-.7-.4,2.51,2.51,0,0,1,.4-.7,14.3,14.3,0,0,0,4.7-7.9,14.59,14.59,0,1,0-28.6-5.8,14.43,14.43,0,0,0,4.5,13.4,1.93,1.93,0,0,1,.7,1.5v3.1C18.6,567.6,18.5,567.7,18.4,568.1Z" transform="translate(44.6)"/><path class="cls-6" d="M18.7,569l-.6-.5c-.4-.3-.8-.7-1.2-1a16.41,16.41,0,0,1-2.4-2.1,18.1,18.1,0,0,1-5.4-14.9,18.78,18.78,0,0,1,37.1-2.1c1.3,6.2-.4,11.9-4.8,16.8a1.42,1.42,0,0,1-1.6.4,5.73,5.73,0,0,0-1.4-.4l-.9-.3-.6-.3c-.1,0-.1-.1-.2-.1l-.5-.3.3-.5c0-.1.1-.1.1-.2a2.09,2.09,0,0,1,.4-.6,13.89,13.89,0,0,0,4.5-7.6A14.12,14.12,0,0,0,31,538.5a13.93,13.93,0,0,0-11,2,14.21,14.21,0,0,0-6.1,9.3,13.48,13.48,0,0,0,4.4,12.9,2.19,2.19,0,0,1,.8,1.9v3.1a.37.37,0,0,1-.1.3Zm9-34.7a16.28,16.28,0,0,0-3.1.3A17.83,17.83,0,0,0,10,550.5a16.88,16.88,0,0,0,5.1,14.1c.7.7,1.5,1.3,2.3,2,.2.1.4.3.6.4v-2.7a1.46,1.46,0,0,0-.5-1.2,14.71,14.71,0,0,1-4.7-13.8,15.46,15.46,0,0,1,6.5-10,15,15,0,0,1,11.8-2.1,15.13,15.13,0,0,1,11.3,18,14.9,14.9,0,0,1-4.9,8.1l-.1.1c.1,0,.1.1.2.1l.9.3a8.8,8.8,0,0,1,1.5.5c.3.1.3.1.5-.1A17.44,17.44,0,0,0,45,548.3C43.5,540.2,36,534.3,27.7,534.3Z" transform="translate(44.6)"/><path class="cls-3" d="M50.1,810.3a50,50,0,1,0,50.1,50A50.1,50.1,0,0,0,50.1,810.3Zm0,99a49,49,0,1,1,49.1-49A49.1,49.1,0,0,1,50.1,909.3Z" transform="translate(44.6)"/><path class="cls-3" d="M69.9,841.4,30.8,841h0a4,4,0,0,0-2.6,1,3.63,3.63,0,0,0-1.1,2.6l-.3,30.8a3.76,3.76,0,0,0,3.7,3.7l39.1.4h0a3.76,3.76,0,0,0,3.7-3.7l.3-30.8A3.81,3.81,0,0,0,69.9,841.4ZM30.3,877.8a2.39,2.39,0,0,1-2.4-2.5l.1-7.1,12.5-13.6.2.2,23.6,23.3Zm41.6-2a2.39,2.39,0,0,1-2.5,2.4H65.7l-7.8-8.3,6.4-5.9,7.7,7Zm.1-6-7.7-7.1-7.2,6.4-.2-.2L40.5,853.2,28,866.9l.2-22.4a2.39,2.39,0,0,1,2.5-2.4h0l39.1.4a2.39,2.39,0,0,1,2.4,2.5Z" transform="translate(44.6)"/><path class="cls-3" d="M57.6,847.5h0a5.12,5.12,0,0,0-5.1,5.1,5.06,5.06,0,0,0,5.1,5.1h0a5.07,5.07,0,0,0,3.6-1.5,5,5,0,0,0-3.6-8.7Zm2.8,7.9a4,4,0,0,1-2.9,1.2h0a4.12,4.12,0,0,1-4.1-4.1,4.1,4.1,0,0,1,4.1-4.1h0a4.1,4.1,0,0,1,4.1,4.1A3.85,3.85,0,0,1,60.4,855.4Z" transform="translate(44.6)"/><path class="cls-3" d="M50.1,700.4a50,50,0,1,0,50.1,50A50.1,50.1,0,0,0,50.1,700.4Zm0,99a49,49,0,1,1,49.1-49A49.1,49.1,0,0,1,50.1,799.4Z" transform="translate(44.6)"/><path class="cls-3" d="M62,767.7l-.1-.1H31.2A12,12,0,1,1,36.8,745l.5.3.2-.6a17.22,17.22,0,0,1,32.8,1.2v.2h1l-.1-.2a17.69,17.69,0,0,0-4.9-8.3A18.14,18.14,0,0,0,37,743.2l-.3.7-.7-.3a13.59,13.59,0,0,0-4.8-.9,13.1,13.1,0,1,0,0,26.2H62.6l-.2-.3C62.2,768.1,62.1,767.9,62,767.7Z" transform="translate(44.6)"/><path class="cls-3" d="M82.1,752.3h0v-.4a1.76,1.76,0,0,0-.6-1.3c-1.3-1.4-4.7-2.3-8.6-2.3h-.7a19.47,19.47,0,0,0-2.5.2c-3.8.5-6,1.8-6,3.4v13.2a2.84,2.84,0,0,0,.4,1.2c1,1.3,3.9,2.2,7.4,2.4h1.4c3.9,0,7.3-.9,8.6-2.3a1.76,1.76,0,0,0,.6-1.3V752.8c.1-.3.1-.3,0-.5Zm-3.2,14.3c-.4.1-.8.3-1.3.4a22.58,22.58,0,0,1-4.7.5,19.11,19.11,0,0,1-5.7-.8c-.1,0-.1,0-.2-.1-1.4-.5-2.2-1.1-2.2-1.7v-2.5l.6.3a17.32,17.32,0,0,0,7.6,1.5c1.1,0,2.2-.1,3.3-.2a12.9,12.9,0,0,0,3.9-1.1c.2-.1.3-.1.4-.2l.6-.3v2.5C81.1,765.5,80.3,766.1,78.9,766.6Zm0-4.3-.9.3a19.83,19.83,0,0,1-5.1.6,16.64,16.64,0,0,1-5.9-.9c-1.4-.5-2.2-1.1-2.2-1.7V758l.6.3a17.32,17.32,0,0,0,7.6,1.5,23.81,23.81,0,0,0,5.6-.7,8.35,8.35,0,0,0,1.9-.8l.6-.3v2.5C81.1,761.2,80.3,761.8,78.9,762.3Zm0-4.4h-.1a19.81,19.81,0,0,1-5.8.8,16.64,16.64,0,0,1-5.9-.9c-1.4-.5-2.2-1.1-2.2-1.7v-2.5l.6.3a17.32,17.32,0,0,0,7.6,1.5,25.41,25.41,0,0,0,4.9-.5,10.22,10.22,0,0,0,2.3-.8c.1-.1.2-.1.3-.2l.6-.3v2.5C81.1,756.8,80.3,757.5,78.9,757.9Zm.8-4.6h0c-.2.1-.5.2-.7.3a9.72,9.72,0,0,1-2,.5,24.62,24.62,0,0,1-4,.4,16.64,16.64,0,0,1-5.9-.9c-1.4-.5-2.2-1.1-2.2-1.7s.8-1.2,2.2-1.7a19.07,19.07,0,0,1,2.8-.7c1-.1,2.1-.2,3.1-.2s2.3.1,3.3.2a14.34,14.34,0,0,1,2.6.6c1.4.5,2.2,1.1,2.2,1.7C81.1,752.6,80.1,753.1,79.7,753.3Z" transform="translate(44.6)"/><path class="cls-3" d="M187.4,1015.1v-1a93.7,93.7,0,1,0-187.4,0v2a93.7,93.7,0,0,0,187.4,0v-1Zm-4,.5v.5a89.7,89.7,0,0,1-179.4,0v-2a89.7,89.7,0,1,1,179.4,0v1.5Z" transform="translate(44.6)"/><path class="cls-3" d="M131.3,1016.5a8,8,0,0,0-4.1-7,13.6,13.6,0,0,0-7.8-10,25,25,0,0,0-50-.5,13.31,13.31,0,0,0-9.1,10.3,8.3,8.3,0,0,0-4.3,7.1,8,8,0,0,0,4.3,7.1,13.21,13.21,0,0,0,13,10.9,3.33,3.33,0,0,0,3.3-3.3v-29.5a3.33,3.33,0,0,0-3.3-3.3,4.87,4.87,0,0,0-1.2.1,22.32,22.32,0,0,1,44.6.2,10.14,10.14,0,0,0-2.5-.2,3.33,3.33,0,0,0-3.3,3.3v29.5a3.33,3.33,0,0,0,3.3,3.3,13.45,13.45,0,0,0,3.5-.5v7.3a8,8,0,0,1-7.7,8h-7a6.8,6.8,0,1,0,0,2.6h7.1a10.5,10.5,0,0,0,10.2-10.5v-8.3a13.28,13.28,0,0,0,7.1-9.6A8.2,8.2,0,0,0,131.3,1016.5Z" transform="translate(44.6)"/><path class="cls-3" d="M25,1170a25,25,0,1,1,25-25A25,25,0,0,1,25,1170Zm0-49.1A24.1,24.1,0,1,0,49.1,1145,24.11,24.11,0,0,0,25,1120.9Z" transform="translate(44.6)"/><path id="f" class="cls-3" d="M26.7,1155.9v-9.5h4.1l.7-4.1H26.7v-2a1.75,1.75,0,0,1,2-2h2v-4.1H27.3c-3.4,0-4.8,2-4.8,5.4v2.7H18.4v4.1h4.1v9.5Z" transform="translate(44.6)"/><path class="cls-3" d="M25,1230a25,25,0,1,1,25-25A25,25,0,0,1,25,1230Zm0-49.1A24.1,24.1,0,1,0,49.1,1205,24.11,24.11,0,0,0,25,1180.9Z" transform="translate(44.6)"/><path class="cls-3" d="M38.4,1196.7a15,15,0,0,1-3.2.9,5.89,5.89,0,0,0,2.4-3,10.54,10.54,0,0,1-3.5,1.3,5.28,5.28,0,0,0-4-1.7,5.55,5.55,0,0,0-5.5,5.5,6.15,6.15,0,0,0,.1,1.3,15.41,15.41,0,0,1-11.3-5.7,5.3,5.3,0,0,0-.7,2.8,5.72,5.72,0,0,0,2.4,4.6,5.53,5.53,0,0,1-2.5-.7v.1a5.48,5.48,0,0,0,4.4,5.4,6.75,6.75,0,0,1-1.4.2,3.08,3.08,0,0,1-1-.1,5.37,5.37,0,0,0,5.1,3.8,10.83,10.83,0,0,1-6.8,2.4,5.7,5.7,0,0,1-1.3-.1,15.09,15.09,0,0,0,8.4,2.5,15.51,15.51,0,0,0,15.6-15.6v-.7A37.68,37.68,0,0,0,38.4,1196.7Z" transform="translate(44.6)"/><path class="cls-3" d="M25,1350a25,25,0,1,1,25-25A25,25,0,0,1,25,1350Zm0-49.1A24.1,24.1,0,1,0,49.1,1325,24.11,24.11,0,0,0,25,1300.9Z" transform="translate(44.6)"/><path class="cls-3" d="M36.2,1320.1a5.06,5.06,0,0,0-.9-2.4,2.78,2.78,0,0,0-2.3-1c-3.2-.2-8-.2-8-.2h0s-4.8,0-8,.2a3.82,3.82,0,0,0-2.3,1,5.06,5.06,0,0,0-.9,2.4s-.2,2-.2,3.9v1.8c0,2,.2,3.9.2,3.9a5.06,5.06,0,0,0,.9,2.4,3.52,3.52,0,0,0,2.5,1c1.8.2,7.8.2,7.8.2s4.8,0,8-.3a3.82,3.82,0,0,0,2.3-1,5.06,5.06,0,0,0,.9-2.4s.2-2,.2-3.9v-1.8C36.4,1322.1,36.2,1320.1,36.2,1320.1Zm-14,9.2v-8.6l7.1,4.3Z" transform="translate(44.6)"/><path class="cls-3" d="M25,1290a25,25,0,1,1,25-25A25,25,0,0,1,25,1290Zm0-49.1A24.1,24.1,0,1,0,49.1,1265,24.11,24.11,0,0,0,25,1240.9Z" transform="translate(44.6)"/><path class="cls-3" d="M20,1263.8v3c1.7.1,3.3,0,5,.1-.7,3.7-5.7,4.9-8.4,2.5a5.62,5.62,0,0,1,.2-8.7c2-1.6,4.8-1.2,6.8.2a23.9,23.9,0,0,0,2.2-2.3,8.81,8.81,0,0,0-14.5,6.2,8.49,8.49,0,0,0,5.5,8.5,8.66,8.66,0,0,0,9.9-2.6,10.48,10.48,0,0,0,1.6-6.7A57.49,57.49,0,0,0,20,1263.8Z" transform="translate(44.6)"/><path class="cls-3" d="M36.2,1263.7v-2.5H33.7v2.5H31.2v2.5h2.5v2.5h2.5v-2.5h2.5v-2.5Z" transform="translate(44.6)"/></svg>